<ttFont>
    <TTGlyph name="A" xMin="29" yMin="-19" xMax="829" yMax="784">
      <contour>
        <pt x="150" y="8" on="1"/>
        <pt x="115" y="22" on="0"/>
        <pt x="70" y="77" on="0"/>
        <pt x="43" y="148" on="0"/>
        <pt x="31" y="229" on="0"/>
        <pt x="28" y="310" on="0"/>
        <pt x="31" y="383" on="0"/>
        <pt x="32" y="410" on="1"/>
        <pt x="36" y="499" on="0"/>
        <pt x="96" y="644" on="0"/>
        <pt x="155" y="717" on="1"/>
        <pt x="193" y="762" on="0"/>
        <pt x="260" y="791" on="0"/>
        <pt x="316" y="776" on="0"/>
        <pt x="362" y="727" on="0"/>
        <pt x="394" y="662" on="0"/>
        <pt x="413" y="592" on="0"/>
        <pt x="417" y="534" on="0"/>
        <pt x="405" y="497" on="0"/>
        <pt x="390" y="499" on="1"/>
        <pt x="384" y="526" on="0"/>
        <pt x="379" y="550" on="0"/>
        <pt x="371" y="574" on="0"/>
        <pt x="354" y="613" on="0"/>
        <pt x="336" y="655" on="1"/>
        <pt x="308" y="711" on="0"/>
        <pt x="250" y="741" on="0"/>
        <pt x="196" y="709" on="0"/>
        <pt x="147" y="627" on="0"/>
        <pt x="107" y="518" on="0"/>
        <pt x="79" y="394" on="0"/>
        <pt x="67" y="277" on="0"/>
        <pt x="73" y="179" on="0"/>
        <pt x="87" y="150" on="1"/>
        <pt x="94" y="132" on="0"/>
        <pt x="115" y="92" on="0"/>
        <pt x="145" y="61" on="0"/>
        <pt x="182" y="43" on="0"/>
        <pt x="205" y="47" on="1"/>
        <pt x="253" y="57" on="0"/>
        <pt x="323" y="119" on="0"/>
        <pt x="373" y="207" on="0"/>
        <pt x="407" y="315" on="0"/>
        <pt x="430" y="425" on="0"/>
        <pt x="446" y="530" on="0"/>
        <pt x="459" y="613" on="0"/>
        <pt x="474" y="666" on="0"/>
        <pt x="485" y="670" on="1"/>
        <pt x="495" y="673" on="0"/>
        <pt x="509" y="665" on="0"/>
        <pt x="517" y="649" on="0"/>
        <pt x="519" y="630" on="0"/>
        <pt x="517" y="623" on="1"/>
        <pt x="484" y="566" on="0"/>
        <pt x="459" y="449" on="0"/>
        <pt x="466" y="338" on="0"/>
        <pt x="499" y="237" on="0"/>
        <pt x="548" y="152" on="0"/>
        <pt x="607" y="87" on="0"/>
        <pt x="666" y="50" on="0"/>
        <pt x="719" y="44" on="0"/>
        <pt x="738" y="61" on="1"/>
        <pt x="778" y="103" on="0"/>
        <pt x="822" y="122" on="0"/>
        <pt x="836" y="103" on="0"/>
        <pt x="822" y="57" on="0"/>
        <pt x="786" y="12" on="0"/>
        <pt x="730" y="-21" on="0"/>
        <pt x="662" y="-16" on="0"/>
        <pt x="582" y="42" on="0"/>
        <pt x="540" y="109" on="1"/>
        <pt x="523" y="131" on="0"/>
        <pt x="493" y="185" on="0"/>
        <pt x="466" y="241" on="0"/>
        <pt x="443" y="297" on="0"/>
        <pt x="433" y="323" on="1"/>
        <pt x="427" y="294" on="0"/>
        <pt x="404" y="215" on="0"/>
        <pt x="369" y="134" on="0"/>
        <pt x="322" y="59" on="0"/>
        <pt x="263" y="9" on="0"/>
        <pt x="191" y="-9" on="0"/>
      </contour>
    </TTGlyph>
    <TTGlyph name="AE" xMin="46" yMin="0" xMax="1201" yMax="849">
      <contour>
        <pt x="462" y="251" on="1"/>
        <pt x="454" y="270" on="0"/>
        <pt x="440" y="306" on="0"/>
        <pt x="433" y="323" on="1"/>
        <pt x="427" y="294" on="0"/>
        <pt x="404" y="215" on="0"/>
        <pt x="369" y="134" on="0"/>
        <pt x="322" y="59" on="0"/>
        <pt x="263" y="9" on="0"/>
        <pt x="191" y="-9" on="0"/>
        <pt x="150" y="8" on="1"/>
        <pt x="98" y="29" on="0"/>
        <pt x="52" y="105" on="0"/>
        <pt x="41" y="196" on="0"/>
        <pt x="54" y="292" on="0"/>
        <pt x="62" y="332" on="1"/>
        <pt x="77" y="408" on="0"/>
        <pt x="119" y="547" on="0"/>
        <pt x="168" y="663" on="0"/>
        <pt x="221" y="751" on="0"/>
        <pt x="247" y="777" on="1"/>
        <pt x="281" y="817" on="0"/>
        <pt x="341" y="844" on="0"/>
        <pt x="390" y="831" on="0"/>
        <pt x="429" y="785" on="0"/>
        <pt x="443" y="752" on="1"/>
        <pt x="491" y="771" on="0"/>
        <pt x="599" y="784" on="0"/>
        <pt x="648" y="796" on="1"/>
        <pt x="1128" y="843" on="1"/>
        <pt x="1143" y="851" on="0"/>
        <pt x="1176" y="847" on="0"/>
        <pt x="1198" y="831" on="0"/>
        <pt x="1204" y="804" on="0"/>
        <pt x="1191" y="788" on="1"/>
        <pt x="1175" y="789" on="0"/>
        <pt x="1104" y="787" on="0"/>
        <pt x="1008" y="782" on="0"/>
        <pt x="895" y="775" on="0"/>
        <pt x="781" y="764" on="0"/>
        <pt x="673" y="750" on="0"/>
        <pt x="586" y="733" on="0"/>
        <pt x="529" y="713" on="0"/>
        <pt x="522" y="702" on="1"/>
        <pt x="505" y="673" on="0"/>
        <pt x="496" y="584" on="0"/>
        <pt x="499" y="487" on="0"/>
        <pt x="510" y="395" on="0"/>
        <pt x="514" y="363" on="1"/>
        <pt x="532" y="365" on="0"/>
        <pt x="613" y="379" on="0"/>
        <pt x="705" y="397" on="0"/>
        <pt x="791" y="413" on="0"/>
        <pt x="814" y="418" on="1"/>
        <pt x="850" y="425" on="0"/>
        <pt x="876" y="438" on="0"/>
        <pt x="885" y="449" on="0"/>
        <pt x="891" y="460" on="0"/>
        <pt x="908" y="466" on="1"/>
        <pt x="927" y="472" on="0"/>
        <pt x="937" y="449" on="0"/>
        <pt x="922" y="413" on="0"/>
        <pt x="883" y="377" on="0"/>
        <pt x="853" y="371" on="1"/>
        <pt x="835" y="367" on="0"/>
        <pt x="773" y="362" on="0"/>
        <pt x="702" y="355" on="0"/>
        <pt x="627" y="346" on="0"/>
        <pt x="564" y="331" on="0"/>
        <pt x="519" y="309" on="0"/>
        <pt x="514" y="293" on="1"/>
        <pt x="507" y="272" on="0"/>
        <pt x="511" y="205" on="0"/>
        <pt x="522" y="142" on="0"/>
        <pt x="531" y="96" on="0"/>
        <pt x="529" y="96" on="1"/>
        <pt x="547" y="96" on="0"/>
        <pt x="615" y="97" on="0"/>
        <pt x="695" y="102" on="0"/>
        <pt x="776" y="113" on="0"/>
        <pt x="808" y="122" on="1"/>
        <pt x="828" y="128" on="0"/>
        <pt x="887" y="146" on="0"/>
        <pt x="946" y="171" on="0"/>
        <pt x="997" y="203" on="0"/>
        <pt x="1010" y="222" on="1"/>
        <pt x="1014" y="228" on="0"/>
        <pt x="1010" y="236" on="0"/>
        <pt x="1004" y="246" on="0"/>
        <pt x="1003" y="259" on="0"/>
        <pt x="1010" y="269" on="1"/>
        <pt x="1048" y="266" on="0"/>
        <pt x="1067" y="237" on="0"/>
        <pt x="1041" y="196" on="0"/>
        <pt x="976" y="146" on="0"/>
        <pt x="885" y="99" on="0"/>
        <pt x="774" y="59" on="0"/>
        <pt x="657" y="36" on="0"/>
        <pt x="540" y="36" on="0"/>
        <pt x="488" y="52" on="1"/>
      </contour>
      <contour>
        <pt x="205" y="47" on="1"/>
        <pt x="246" y="55" on="0"/>
        <pt x="309" y="110" on="0"/>
        <pt x="357" y="191" on="0"/>
        <pt x="390" y="292" on="0"/>
        <pt x="414" y="401" on="0"/>
        <pt x="431" y="511" on="0"/>
        <pt x="437" y="561" on="1"/>
        <pt x="436" y="592" on="0"/>
        <pt x="429" y="663" on="0"/>
        <pt x="418" y="708" on="1"/>
        <pt x="402" y="773" on="0"/>
        <pt x="353" y="811" on="0"/>
        <pt x="297" y="779" on="0"/>
        <pt x="236" y="691" on="0"/>
        <pt x="179" y="571" on="0"/>
        <pt x="130" y="433" on="0"/>
        <pt x="96" y="300" on="0"/>
        <pt x="81" y="186" on="0"/>
        <pt x="87" y="150" on="1"/>
        <pt x="94" y="132" on="0"/>
        <pt x="115" y="92" on="0"/>
        <pt x="145" y="61" on="0"/>
        <pt x="182" y="43" on="0"/>
      </contour>
    </TTGlyph>
    <TTGlyph name="AEacute" xMin="46" yMin="0" xMax="1201" yMax="949">
      <component glyphName="AE" x="0" y="0" flags="0x1204"/>
      <component glyphName="acute" x="446" y="219" flags="0x1004"/>
    </TTGlyph>
    <TTGlyph name="Aacute" xMin="29" yMin="-19" xMax="829" yMax="932">
      <component glyphName="A" x="0" y="0" flags="0x1204"/>
      <component glyphName="acute" x="104" y="202" flags="0x1004"/>
    </TTGlyph>
    <TTGlyph name="Abreve" xMin="29" yMin="-19" xMax="829" yMax="927">
      <component glyphName="A" x="0" y="0" flags="0x1204"/>
      <component glyphName="breve" x="154" y="275" flags="0x1004"/>
    </TTGlyph>
    <TTGlyph name="Acircumflex" xMin="29" yMin="-19" xMax="829" yMax="1009">
      <component glyphName="A" x="0" y="0" flags="0x1204"/>
      <component glyphName="circumflex" x="29" y="196" flags="0x1004"/>
    </TTGlyph>
    <TTGlyph name="Adieresis" xMin="22" yMin="-19" xMax="822" yMax="950">
      <contour>
        <pt x="84" y="817" on="1"/>
        <pt x="81" y="822" on="0"/>
        <pt x="87" y="851" on="0"/>
        <pt x="99" y="885" on="0"/>
        <pt x="116" y="919" on="0"/>
        <pt x="126" y="930" on="1"/>
        <pt x="166" y="925" on="0"/>
        <pt x="197" y="892" on="0"/>
        <pt x="195" y="851" on="0"/>
        <pt x="169" y="811" on="0"/>
        <pt x="133" y="789" on="0"/>
        <pt x="96" y="793" on="0"/>
      </contour>
      <contour>
        <pt x="392" y="832" on="1"/>
        <pt x="389" y="838" on="0"/>
        <pt x="377" y="868" on="0"/>
        <pt x="368" y="904" on="0"/>
        <pt x="367" y="939" on="0"/>
        <pt x="377" y="950" on="1"/>
        <pt x="416" y="946" on="0"/>
        <pt x="456" y="912" on="0"/>
        <pt x="467" y="870" on="0"/>
        <pt x="456" y="828" on="0"/>
        <pt x="433" y="805" on="0"/>
        <pt x="404" y="808" on="0"/>
      </contour>
      <contour>
        <pt x="143" y="8" on="1"/>
        <pt x="108" y="22" on="0"/>
        <pt x="63" y="77" on="0"/>
        <pt x="36" y="148" on="0"/>
        <pt x="24" y="229" on="0"/>
        <pt x="21" y="310" on="0"/>
        <pt x="24" y="383" on="0"/>
        <pt x="25" y="410" on="1"/>
        <pt x="29" y="499" on="0"/>
        <pt x="89" y="644" on="0"/>
        <pt x="148" y="717" on="1"/>
        <pt x="186" y="762" on="0"/>
        <pt x="253" y="791" on="0"/>
        <pt x="309" y="776" on="0"/>
        <pt x="355" y="727" on="0"/>
        <pt x="387" y="662" on="0"/>
        <pt x="406" y="592" on="0"/>
        <pt x="410" y="534" on="0"/>
        <pt x="398" y="497" on="0"/>
        <pt x="383" y="499" on="1"/>
        <pt x="377" y="526" on="0"/>
        <pt x="372" y="550" on="0"/>
        <pt x="364" y="574" on="0"/>
        <pt x="347" y="613" on="0"/>
        <pt x="329" y="655" on="1"/>
        <pt x="301" y="711" on="0"/>
        <pt x="243" y="741" on="0"/>
        <pt x="189" y="709" on="0"/>
        <pt x="140" y="627" on="0"/>
        <pt x="100" y="518" on="0"/>
        <pt x="72" y="394" on="0"/>
        <pt x="60" y="277" on="0"/>
        <pt x="66" y="179" on="0"/>
        <pt x="80" y="150" on="1"/>
        <pt x="87" y="132" on="0"/>
        <pt x="108" y="92" on="0"/>
        <pt x="138" y="61" on="0"/>
        <pt x="175" y="43" on="0"/>
        <pt x="198" y="47" on="1"/>
        <pt x="246" y="57" on="0"/>
        <pt x="316" y="119" on="0"/>
        <pt x="366" y="207" on="0"/>
        <pt x="400" y="315" on="0"/>
        <pt x="423" y="425" on="0"/>
        <pt x="439" y="530" on="0"/>
        <pt x="452" y="613" on="0"/>
        <pt x="467" y="666" on="0"/>
        <pt x="478" y="670" on="1"/>
        <pt x="488" y="673" on="0"/>
        <pt x="502" y="665" on="0"/>
        <pt x="510" y="649" on="0"/>
        <pt x="512" y="630" on="0"/>
        <pt x="510" y="623" on="1"/>
        <pt x="477" y="566" on="0"/>
        <pt x="452" y="449" on="0"/>
        <pt x="459" y="338" on="0"/>
        <pt x="492" y="237" on="0"/>
        <pt x="541" y="152" on="0"/>
        <pt x="600" y="87" on="0"/>
        <pt x="659" y="50" on="0"/>
        <pt x="712" y="44" on="0"/>
        <pt x="731" y="61" on="1"/>
        <pt x="771" y="103" on="0"/>
        <pt x="815" y="122" on="0"/>
        <pt x="829" y="103" on="0"/>
        <pt x="815" y="57" on="0"/>
        <pt x="779" y="12" on="0"/>
        <pt x="723" y="-21" on="0"/>
        <pt x="655" y="-16" on="0"/>
        <pt x="575" y="42" on="0"/>
        <pt x="533" y="109" on="1"/>
        <pt x="516" y="131" on="0"/>
        <pt x="486" y="185" on="0"/>
        <pt x="459" y="241" on="0"/>
        <pt x="436" y="297" on="0"/>
        <pt x="426" y="323" on="1"/>
        <pt x="420" y="294" on="0"/>
        <pt x="397" y="215" on="0"/>
        <pt x="362" y="134" on="0"/>
        <pt x="315" y="59" on="0"/>
        <pt x="256" y="9" on="0"/>
        <pt x="184" y="-9" on="0"/>
      </contour>
    </TTGlyph>
    <TTGlyph name="Agrave" xMin="14" yMin="-50" xMax="814" yMax="913">
      <component glyphName="A" x="-15" y="-31" flags="0x1204"/>
      <component glyphName="grave" x="239" y="156" flags="0x1004"/>
    </TTGlyph>
    <TTGlyph name="Amacron" xMin="29" yMin="-19" xMax="829" yMax="878">
      <component glyphName="A" x="0" y="0" flags="0x1204"/>
      <component glyphName="macron" x="82" y="316" flags="0x1004"/>
    </TTGlyph>
    <TTGlyph name="Aogonek" xMin="29" yMin="-264" xMax="829" yMax="784">
      <component glyphName="A" x="0" y="0" flags="0x1204"/>
      <component glyphName="ogonek" x="503" y="-1" flags="0x1004"/>
    </TTGlyph>
    <TTGlyph name="Aring" xMin="29" yMin="-19" xMax="829" yMax="937">
      <contour>
        <pt x="230" y="764" on="1"/>
        <pt x="202" y="768" on="0"/>
        <pt x="173" y="808" on="0"/>
        <pt x="164" y="858" on="0"/>
        <pt x="172" y="903" on="0"/>
        <pt x="180" y="911" on="1"/>
        <pt x="183" y="914" on="0"/>
        <pt x="203" y="912" on="0"/>
        <pt x="204" y="909" on="1"/>
        <pt x="207" y="901" on="0"/>
        <pt x="202" y="878" on="0"/>
        <pt x="195" y="853" on="0"/>
        <pt x="190" y="828" on="0"/>
        <pt x="196" y="805" on="0"/>
        <pt x="216" y="786" on="0"/>
        <pt x="238" y="781" on="1"/>
        <pt x="261" y="775" on="0"/>
        <pt x="301" y="790" on="0"/>
        <pt x="329" y="819" on="0"/>
        <pt x="343" y="858" on="0"/>
        <pt x="338" y="893" on="0"/>
        <pt x="310" y="921" on="0"/>
        <pt x="283" y="925" on="1"/>
        <pt x="263" y="928" on="0"/>
        <pt x="238" y="921" on="0"/>
        <pt x="225" y="913" on="1"/>
        <pt x="218" y="911" on="0"/>
        <pt x="220" y="919" on="0"/>
        <pt x="235" y="929" on="0"/>
        <pt x="262" y="938" on="0"/>
        <pt x="279" y="937" on="1"/>
        <pt x="314" y="935" on="0"/>
        <pt x="353" y="906" on="0"/>
        <pt x="366" y="864" on="0"/>
        <pt x="354" y="817" on="0"/>
        <pt x="320" y="780" on="0"/>
        <pt x="265" y="759" on="0"/>
      </contour>
      <contour>
        <pt x="150" y="8" on="1"/>
        <pt x="115" y="22" on="0"/>
        <pt x="70" y="77" on="0"/>
        <pt x="43" y="148" on="0"/>
        <pt x="31" y="229" on="0"/>
        <pt x="28" y="310" on="0"/>
        <pt x="31" y="383" on="0"/>
        <pt x="32" y="410" on="1"/>
        <pt x="36" y="499" on="0"/>
        <pt x="96" y="644" on="0"/>
        <pt x="155" y="717" on="1"/>
        <pt x="193" y="762" on="0"/>
        <pt x="260" y="791" on="0"/>
        <pt x="316" y="776" on="0"/>
        <pt x="362" y="727" on="0"/>
        <pt x="394" y="662" on="0"/>
        <pt x="413" y="592" on="0"/>
        <pt x="417" y="534" on="0"/>
        <pt x="405" y="497" on="0"/>
        <pt x="390" y="499" on="1"/>
        <pt x="384" y="526" on="0"/>
        <pt x="379" y="550" on="0"/>
        <pt x="371" y="574" on="0"/>
        <pt x="354" y="613" on="0"/>
        <pt x="336" y="655" on="1"/>
        <pt x="308" y="711" on="0"/>
        <pt x="250" y="741" on="0"/>
        <pt x="196" y="709" on="0"/>
        <pt x="147" y="627" on="0"/>
        <pt x="107" y="518" on="0"/>
        <pt x="79" y="394" on="0"/>
        <pt x="67" y="277" on="0"/>
        <pt x="73" y="179" on="0"/>
        <pt x="87" y="150" on="1"/>
        <pt x="94" y="132" on="0"/>
        <pt x="115" y="92" on="0"/>
        <pt x="145" y="61" on="0"/>
        <pt x="182" y="43" on="0"/>
        <pt x="205" y="47" on="1"/>
        <pt x="253" y="57" on="0"/>
        <pt x="323" y="119" on="0"/>
        <pt x="373" y="207" on="0"/>
        <pt x="407" y="315" on="0"/>
        <pt x="430" y="425" on="0"/>
        <pt x="446" y="530" on="0"/>
        <pt x="459" y="613" on="0"/>
        <pt x="474" y="666" on="0"/>
        <pt x="485" y="670" on="1"/>
        <pt x="495" y="673" on="0"/>
        <pt x="509" y="665" on="0"/>
        <pt x="517" y="649" on="0"/>
        <pt x="519" y="630" on="0"/>
        <pt x="517" y="623" on="1"/>
        <pt x="484" y="566" on="0"/>
        <pt x="459" y="449" on="0"/>
        <pt x="466" y="338" on="0"/>
        <pt x="499" y="237" on="0"/>
        <pt x="548" y="152" on="0"/>
        <pt x="607" y="87" on="0"/>
        <pt x="666" y="50" on="0"/>
        <pt x="719" y="44" on="0"/>
        <pt x="738" y="61" on="1"/>
        <pt x="778" y="103" on="0"/>
        <pt x="822" y="122" on="0"/>
        <pt x="836" y="103" on="0"/>
        <pt x="822" y="57" on="0"/>
        <pt x="786" y="12" on="0"/>
        <pt x="730" y="-21" on="0"/>
        <pt x="662" y="-16" on="0"/>
        <pt x="582" y="42" on="0"/>
        <pt x="540" y="109" on="1"/>
        <pt x="523" y="131" on="0"/>
        <pt x="493" y="185" on="0"/>
        <pt x="466" y="241" on="0"/>
        <pt x="443" y="297" on="0"/>
        <pt x="433" y="323" on="1"/>
        <pt x="427" y="294" on="0"/>
        <pt x="404" y="215" on="0"/>
        <pt x="369" y="134" on="0"/>
        <pt x="322" y="59" on="0"/>
        <pt x="263" y="9" on="0"/>
        <pt x="191" y="-9" on="0"/>
      </contour>
    </TTGlyph>
    <TTGlyph name="Atilde" xMin="29" yMin="-19" xMax="829" yMax="893">
      <contour>
        <pt x="38" y="865" on="1"/>
        <pt x="39" y="866" on="0"/>
        <pt x="44" y="868" on="0"/>
        <pt x="45" y="867" on="1"/>
        <pt x="63" y="836" on="0"/>
        <pt x="102" y="815" on="0"/>
        <pt x="145" y="819" on="0"/>
        <pt x="194" y="842" on="0"/>
        <pt x="251" y="869" on="0"/>
        <pt x="314" y="891" on="0"/>
        <pt x="351" y="893" on="1"/>
        <pt x="393" y="895" on="0"/>
        <pt x="446" y="877" on="0"/>
        <pt x="471" y="849" on="0"/>
        <pt x="472" y="814" on="0"/>
        <pt x="463" y="799" on="1"/>
        <pt x="459" y="792" on="0"/>
        <pt x="454" y="803" on="0"/>
        <pt x="433" y="821" on="0"/>
        <pt x="385" y="839" on="0"/>
        <pt x="338" y="839" on="1"/>
        <pt x="316" y="839" on="0"/>
        <pt x="261" y="824" on="0"/>
        <pt x="203" y="805" on="0"/>
        <pt x="145" y="787" on="0"/>
        <pt x="95" y="782" on="0"/>
        <pt x="55" y="796" on="0"/>
        <pt x="45" y="818" on="1"/>
        <pt x="43" y="822" on="0"/>
        <pt x="37" y="834" on="0"/>
        <pt x="33" y="847" on="0"/>
        <pt x="33" y="860" on="0"/>
      </contour>
      <contour>
        <pt x="150" y="8" on="1"/>
        <pt x="115" y="22" on="0"/>
        <pt x="70" y="77" on="0"/>
        <pt x="43" y="148" on="0"/>
        <pt x="31" y="229" on="0"/>
        <pt x="28" y="310" on="0"/>
        <pt x="31" y="383" on="0"/>
        <pt x="32" y="410" on="1"/>
        <pt x="36" y="499" on="0"/>
        <pt x="96" y="644" on="0"/>
        <pt x="155" y="717" on="1"/>
        <pt x="193" y="762" on="0"/>
        <pt x="260" y="791" on="0"/>
        <pt x="316" y="776" on="0"/>
        <pt x="362" y="727" on="0"/>
        <pt x="394" y="662" on="0"/>
        <pt x="413" y="592" on="0"/>
        <pt x="417" y="534" on="0"/>
        <pt x="405" y="497" on="0"/>
        <pt x="390" y="499" on="1"/>
        <pt x="384" y="526" on="0"/>
        <pt x="379" y="550" on="0"/>
        <pt x="371" y="574" on="0"/>
        <pt x="354" y="613" on="0"/>
        <pt x="336" y="655" on="1"/>
        <pt x="308" y="711" on="0"/>
        <pt x="250" y="741" on="0"/>
        <pt x="196" y="709" on="0"/>
        <pt x="147" y="627" on="0"/>
        <pt x="107" y="518" on="0"/>
        <pt x="79" y="394" on="0"/>
        <pt x="67" y="277" on="0"/>
        <pt x="73" y="179" on="0"/>
        <pt x="87" y="150" on="1"/>
        <pt x="94" y="132" on="0"/>
        <pt x="115" y="92" on="0"/>
        <pt x="145" y="61" on="0"/>
        <pt x="182" y="43" on="0"/>
        <pt x="205" y="47" on="1"/>
        <pt x="253" y="57" on="0"/>
        <pt x="323" y="119" on="0"/>
        <pt x="373" y="207" on="0"/>
        <pt x="407" y="315" on="0"/>
        <pt x="430" y="425" on="0"/>
        <pt x="446" y="530" on="0"/>
        <pt x="459" y="613" on="0"/>
        <pt x="474" y="666" on="0"/>
        <pt x="485" y="670" on="1"/>
        <pt x="495" y="673" on="0"/>
        <pt x="509" y="665" on="0"/>
        <pt x="517" y="649" on="0"/>
        <pt x="519" y="630" on="0"/>
        <pt x="517" y="623" on="1"/>
        <pt x="484" y="566" on="0"/>
        <pt x="459" y="449" on="0"/>
        <pt x="466" y="338" on="0"/>
        <pt x="499" y="237" on="0"/>
        <pt x="548" y="152" on="0"/>
        <pt x="607" y="87" on="0"/>
        <pt x="666" y="50" on="0"/>
        <pt x="719" y="44" on="0"/>
        <pt x="738" y="61" on="1"/>
        <pt x="778" y="103" on="0"/>
        <pt x="822" y="122" on="0"/>
        <pt x="836" y="103" on="0"/>
        <pt x="822" y="57" on="0"/>
        <pt x="786" y="12" on="0"/>
        <pt x="730" y="-21" on="0"/>
        <pt x="662" y="-16" on="0"/>
        <pt x="582" y="42" on="0"/>
        <pt x="540" y="109" on="1"/>
        <pt x="523" y="131" on="0"/>
        <pt x="493" y="185" on="0"/>
        <pt x="466" y="241" on="0"/>
        <pt x="443" y="297" on="0"/>
        <pt x="433" y="323" on="1"/>
        <pt x="427" y="294" on="0"/>
        <pt x="404" y="215" on="0"/>
        <pt x="369" y="134" on="0"/>
        <pt x="322" y="59" on="0"/>
        <pt x="263" y="9" on="0"/>
        <pt x="191" y="-9" on="0"/>
      </contour>
    </TTGlyph>
    <TTGlyph name="B" xMin="12" yMin="7" xMax="659" yMax="790">
      <contour>
        <pt x="220" y="8" on="1"/>
        <pt x="170" y="17" on="0"/>
        <pt x="109" y="43" on="0"/>
        <pt x="77" y="78" on="0"/>
        <pt x="69" y="124" on="0"/>
        <pt x="71" y="182" on="0"/>
        <pt x="78" y="253" on="0"/>
        <pt x="79" y="296" on="1"/>
        <pt x="79" y="324" on="0"/>
        <pt x="79" y="394" on="0"/>
        <pt x="77" y="465" on="0"/>
        <pt x="75" y="533" on="0"/>
        <pt x="74" y="585" on="0"/>
        <pt x="72" y="617" on="0"/>
        <pt x="72" y="618" on="1"/>
        <pt x="64" y="626" on="1"/>
        <pt x="61" y="621" on="0"/>
        <pt x="48" y="607" on="0"/>
        <pt x="40" y="610" on="1"/>
        <pt x="11" y="621" on="0"/>
        <pt x="13" y="662" on="0"/>
        <pt x="58" y="709" on="0"/>
        <pt x="137" y="754" on="0"/>
        <pt x="235" y="785" on="0"/>
        <pt x="343" y="795" on="0"/>
        <pt x="394" y="783" on="1"/>
        <pt x="453" y="783" on="0"/>
        <pt x="495" y="743" on="0"/>
        <pt x="490" y="683" on="0"/>
        <pt x="453" y="611" on="0"/>
        <pt x="410" y="549" on="0"/>
        <pt x="376" y="504" on="0"/>
        <pt x="378" y="501" on="1"/>
        <pt x="477" y="489" on="0"/>
        <pt x="599" y="428" on="0"/>
        <pt x="658" y="347" on="0"/>
        <pt x="660" y="251" on="0"/>
        <pt x="617" y="159" on="0"/>
        <pt x="534" y="76" on="0"/>
        <pt x="423" y="19" on="0"/>
        <pt x="291" y="-5" on="0"/>
      </contour>
      <contour>
        <pt x="181" y="63" on="1"/>
        <pt x="267" y="32" on="0"/>
        <pt x="430" y="45" on="0"/>
        <pt x="554" y="120" on="0"/>
        <pt x="623" y="250" on="0"/>
        <pt x="614" y="335" on="1"/>
        <pt x="604" y="368" on="0"/>
        <pt x="550" y="411" on="0"/>
        <pt x="520" y="422" on="1"/>
        <pt x="454" y="448" on="0"/>
        <pt x="363" y="451" on="0"/>
        <pt x="298" y="424" on="0"/>
        <pt x="251" y="378" on="0"/>
        <pt x="206" y="334" on="0"/>
        <pt x="154" y="303" on="0"/>
        <pt x="118" y="304" on="1"/>
        <pt x="118" y="173" on="1"/>
        <pt x="120" y="171" on="0"/>
        <pt x="135" y="180" on="0"/>
        <pt x="154" y="190" on="0"/>
        <pt x="174" y="198" on="0"/>
        <pt x="181" y="197" on="1"/>
        <pt x="181" y="189" on="1"/>
        <pt x="134" y="118" on="1"/>
        <pt x="129" y="111" on="0"/>
        <pt x="141" y="93" on="0"/>
        <pt x="159" y="77" on="0"/>
        <pt x="178" y="64" on="0"/>
      </contour>
      <contour>
        <pt x="118" y="509" on="1"/>
        <pt x="118" y="501" on="0"/>
        <pt x="120" y="463" on="0"/>
        <pt x="123" y="420" on="0"/>
        <pt x="125" y="382" on="0"/>
        <pt x="126" y="375" on="1"/>
        <pt x="150" y="402" on="0"/>
        <pt x="221" y="446" on="0"/>
        <pt x="298" y="488" on="0"/>
        <pt x="372" y="533" on="0"/>
        <pt x="426" y="590" on="0"/>
        <pt x="452" y="663" on="0"/>
        <pt x="442" y="712" on="1"/>
        <pt x="425" y="727" on="0"/>
        <pt x="367" y="744" on="0"/>
        <pt x="299" y="748" on="0"/>
        <pt x="228" y="739" on="0"/>
        <pt x="166" y="717" on="0"/>
        <pt x="120" y="681" on="0"/>
        <pt x="111" y="657" on="1"/>
        <pt x="111" y="645" on="0"/>
        <pt x="113" y="605" on="0"/>
        <pt x="116" y="562" on="0"/>
        <pt x="118" y="521" on="0"/>
      </contour>
    </TTGlyph>
    <TTGlyph name="C" xMin="20" yMin="6" xMax="586" yMax="740">
      <contour>
        <pt x="181" y="15" on="1"/>
        <pt x="133" y="29" on="0"/>
        <pt x="69" y="92" on="0"/>
        <pt x="31" y="178" on="0"/>
        <pt x="17" y="282" on="0"/>
        <pt x="23" y="391" on="0"/>
        <pt x="47" y="502" on="0"/>
        <pt x="84" y="601" on="0"/>
        <pt x="131" y="682" on="0"/>
        <pt x="158" y="709" on="1"/>
        <pt x="184" y="735" on="0"/>
        <pt x="230" y="745" on="0"/>
        <pt x="268" y="728" on="0"/>
        <pt x="298" y="688" on="0"/>
        <pt x="316" y="641" on="0"/>
        <pt x="321" y="592" on="0"/>
        <pt x="310" y="556" on="0"/>
        <pt x="283" y="537" on="0"/>
        <pt x="260" y="544" on="1"/>
        <pt x="249" y="557" on="0"/>
        <pt x="258" y="597" on="0"/>
        <pt x="267" y="638" on="0"/>
        <pt x="262" y="675" on="0"/>
        <pt x="237" y="685" on="1"/>
        <pt x="212" y="695" on="0"/>
        <pt x="168" y="665" on="0"/>
        <pt x="131" y="600" on="0"/>
        <pt x="102" y="509" on="0"/>
        <pt x="82" y="408" on="0"/>
        <pt x="73" y="304" on="0"/>
        <pt x="74" y="213" on="0"/>
        <pt x="88" y="143" on="0"/>
        <pt x="102" y="126" on="1"/>
        <pt x="123" y="101" on="0"/>
        <pt x="172" y="73" on="0"/>
        <pt x="226" y="61" on="0"/>
        <pt x="285" y="61" on="0"/>
        <pt x="315" y="63" on="1"/>
        <pt x="350" y="65" on="0"/>
        <pt x="408" y="94" on="0"/>
        <pt x="462" y="130" on="0"/>
        <pt x="514" y="165" on="0"/>
        <pt x="544" y="173" on="1"/>
        <pt x="581" y="184" on="0"/>
        <pt x="590" y="159" on="0"/>
        <pt x="549" y="113" on="0"/>
        <pt x="468" y="56" on="0"/>
        <pt x="362" y="14" on="0"/>
        <pt x="241" y="-2" on="0"/>
      </contour>
    </TTGlyph>
    <TTGlyph name="Cacute" xMin="20" yMin="6" xMax="586" yMax="889">
      <component glyphName="C" x="0" y="0" flags="0x1204"/>
      <component glyphName="acute" x="100" y="159" flags="0x1004"/>
    </TTGlyph>
    <TTGlyph name="Ccaron" xMin="20" yMin="6" xMax="586" yMax="872">
      <component glyphName="C" x="0" y="0" flags="0x1204"/>
      <component glyphName="caron" x="59" y="159" flags="0x1004"/>
    </TTGlyph>
    <TTGlyph name="Ccedilla" xMin="20" yMin="-349" xMax="586" yMax="740">
      <component glyphName="C" x="0" y="0" flags="0x1204"/>
      <component glyphName="cedilla" x="-19" y="5" flags="0x1004"/>
    </TTGlyph>
    <TTGlyph name="Ccircumflex" xMin="20" yMin="6" xMax="586" yMax="952">
      <component glyphName="C" x="0" y="0" flags="0x1204"/>
      <component glyphName="circumflex" x="-1" y="139" flags="0x1004"/>
    </TTGlyph>
    <TTGlyph name="Cdotaccent" xMin="20" yMin="6" xMax="586" yMax="889">
      <component glyphName="C" x="0" y="0" flags="0x1204"/>
      <component glyphName="dotaccent" x="56" y="193" flags="0x1004"/>
    </TTGlyph>
    <TTGlyph name="D" xMin="37" yMin="0" xMax="622" yMax="746">
      <contour>
        <pt x="110" y="15" on="1"/>
        <pt x="110" y="20" on="0"/>
        <pt x="108" y="45" on="0"/>
        <pt x="105" y="73" on="0"/>
        <pt x="103" y="97" on="0"/>
        <pt x="102" y="102" on="1"/>
        <pt x="94" y="118" on="1"/>
        <pt x="96" y="187" on="0"/>
        <pt x="96" y="291" on="0"/>
        <pt x="91" y="389" on="0"/>
        <pt x="79" y="492" on="0"/>
        <pt x="69" y="561" on="1"/>
        <pt x="59" y="612" on="0"/>
        <pt x="58" y="644" on="1"/>
        <pt x="58" y="657" on="0"/>
        <pt x="61" y="678" on="0"/>
        <pt x="70" y="684" on="0"/>
        <pt x="87" y="673" on="0"/>
        <pt x="101" y="655" on="1"/>
        <pt x="104" y="631" on="0"/>
        <pt x="113" y="544" on="0"/>
        <pt x="122" y="449" on="0"/>
        <pt x="130" y="363" on="0"/>
        <pt x="133" y="339" on="1"/>
        <pt x="134" y="331" on="0"/>
        <pt x="137" y="295" on="0"/>
        <pt x="139" y="255" on="0"/>
        <pt x="141" y="220" on="0"/>
        <pt x="141" y="213" on="1"/>
        <pt x="147" y="207" on="0"/>
        <pt x="152" y="185" on="0"/>
        <pt x="152" y="163" on="0"/>
        <pt x="150" y="144" on="0"/>
        <pt x="150" y="141" on="1"/>
        <pt x="156" y="129" on="0"/>
        <pt x="184" y="112" on="0"/>
        <pt x="218" y="101" on="0"/>
        <pt x="254" y="95" on="0"/>
        <pt x="267" y="94" on="1"/>
        <pt x="345" y="89" on="0"/>
        <pt x="469" y="155" on="0"/>
        <pt x="547" y="269" on="0"/>
        <pt x="572" y="414" on="0"/>
        <pt x="551" y="488" on="1"/>
        <pt x="538" y="534" on="0"/>
        <pt x="478" y="602" on="0"/>
        <pt x="395" y="649" on="0"/>
        <pt x="296" y="679" on="0"/>
        <pt x="192" y="695" on="0"/>
        <pt x="90" y="698" on="0"/>
        <pt x="45" y="696" on="1"/>
        <pt x="37" y="699" on="0"/>
        <pt x="37" y="712" on="0"/>
        <pt x="45" y="727" on="0"/>
        <pt x="57" y="740" on="0"/>
        <pt x="61" y="742" on="1"/>
        <pt x="142" y="757" on="0"/>
        <pt x="304" y="734" on="0"/>
        <pt x="447" y="667" on="0"/>
        <pt x="563" y="559" on="0"/>
        <pt x="598" y="488" on="1"/>
        <pt x="626" y="419" on="0"/>
        <pt x="618" y="291" on="0"/>
        <pt x="563" y="185" on="0"/>
        <pt x="469" y="106" on="0"/>
        <pt x="352" y="63" on="0"/>
        <pt x="221" y="61" on="0"/>
        <pt x="157" y="87" on="1"/>
        <pt x="157" y="83" on="0"/>
        <pt x="162" y="50" on="0"/>
        <pt x="159" y="15" on="0"/>
        <pt x="145" y="-7" on="0"/>
        <pt x="126" y="0" on="1"/>
        <pt x="124" y="2" on="0"/>
        <pt x="112" y="13" on="0"/>
      </contour>
    </TTGlyph>
    <TTGlyph name="Dcaron" xMin="37" yMin="0" xMax="622" yMax="940">
      <component glyphName="D" x="0" y="0" flags="0x1204"/>
      <component glyphName="caron" x="73" y="227" flags="0x1004"/>
    </TTGlyph>
    <TTGlyph name="Dcroat" xMin="-5" yMin="0" xMax="622" yMax="746">
      <component glyphName="D" x="0" y="0" flags="0x1204"/>
      <component glyphName="macron" x="-20" y="-84" flags="0x1004"/>
    </TTGlyph>
    <TTGlyph name="E" xMin="13" yMin="-4" xMax="790" yMax="763">
      <contour>
        <pt x="118" y="15" on="1"/>
        <pt x="99" y="27" on="0"/>
        <pt x="74" y="89" on="0"/>
        <pt x="59" y="175" on="0"/>
        <pt x="53" y="279" on="0"/>
        <pt x="52" y="385" on="0"/>
        <pt x="55" y="488" on="0"/>
        <pt x="59" y="571" on="0"/>
        <pt x="62" y="629" on="0"/>
        <pt x="62" y="638" on="1"/>
        <pt x="59" y="629" on="0"/>
        <pt x="34" y="638" on="0"/>
        <pt x="15" y="659" on="0"/>
        <pt x="12" y="685" on="0"/>
        <pt x="31" y="693" on="1"/>
        <pt x="55" y="703" on="0"/>
        <pt x="108" y="716" on="0"/>
        <pt x="164" y="726" on="0"/>
        <pt x="218" y="734" on="0"/>
        <pt x="244" y="740" on="1"/>
        <pt x="717" y="757" on="1"/>
        <pt x="732" y="765" on="0"/>
        <pt x="765" y="761" on="0"/>
        <pt x="787" y="745" on="0"/>
        <pt x="793" y="718" on="0"/>
        <pt x="780" y="702" on="1"/>
        <pt x="764" y="703" on="0"/>
        <pt x="693" y="704" on="0"/>
        <pt x="599" y="703" on="0"/>
        <pt x="487" y="701" on="0"/>
        <pt x="374" y="696" on="0"/>
        <pt x="267" y="687" on="0"/>
        <pt x="182" y="675" on="0"/>
        <pt x="125" y="657" on="0"/>
        <pt x="118" y="646" on="1"/>
        <pt x="101" y="617" on="0"/>
        <pt x="92" y="528" on="0"/>
        <pt x="95" y="431" on="0"/>
        <pt x="106" y="339" on="0"/>
        <pt x="110" y="307" on="1"/>
        <pt x="125" y="305" on="0"/>
        <pt x="137" y="305" on="0"/>
        <pt x="144" y="308" on="0"/>
        <pt x="153" y="312" on="0"/>
        <pt x="165" y="315" on="1"/>
        <pt x="171" y="316" on="0"/>
        <pt x="208" y="323" on="0"/>
        <pt x="259" y="333" on="0"/>
        <pt x="315" y="344" on="0"/>
        <pt x="366" y="353" on="0"/>
        <pt x="404" y="361" on="0"/>
        <pt x="410" y="362" on="1"/>
        <pt x="446" y="369" on="0"/>
        <pt x="472" y="382" on="0"/>
        <pt x="481" y="393" on="0"/>
        <pt x="487" y="404" on="0"/>
        <pt x="504" y="410" on="1"/>
        <pt x="523" y="416" on="0"/>
        <pt x="533" y="393" on="0"/>
        <pt x="518" y="357" on="0"/>
        <pt x="479" y="321" on="0"/>
        <pt x="449" y="315" on="1"/>
        <pt x="433" y="312" on="0"/>
        <pt x="350" y="296" on="0"/>
        <pt x="257" y="278" on="0"/>
        <pt x="174" y="263" on="0"/>
        <pt x="157" y="260" on="1"/>
        <pt x="155" y="259" on="0"/>
        <pt x="141" y="253" on="0"/>
        <pt x="126" y="245" on="0"/>
        <pt x="113" y="238" on="0"/>
        <pt x="110" y="237" on="1"/>
        <pt x="109" y="236" on="0"/>
        <pt x="102" y="230" on="0"/>
        <pt x="102" y="228" on="1"/>
        <pt x="106" y="138" on="0"/>
        <pt x="148" y="54" on="0"/>
        <pt x="224" y="35" on="0"/>
        <pt x="339" y="64" on="0"/>
        <pt x="417" y="87" on="1"/>
        <pt x="437" y="93" on="0"/>
        <pt x="492" y="104" on="0"/>
        <pt x="546" y="122" on="0"/>
        <pt x="593" y="147" on="0"/>
        <pt x="606" y="166" on="1"/>
        <pt x="610" y="172" on="0"/>
        <pt x="606" y="180" on="0"/>
        <pt x="600" y="190" on="0"/>
        <pt x="599" y="203" on="0"/>
        <pt x="606" y="213" on="1"/>
        <pt x="652" y="201" on="0"/>
        <pt x="670" y="164" on="0"/>
        <pt x="636" y="122" on="0"/>
        <pt x="558" y="77" on="0"/>
        <pt x="457" y="38" on="0"/>
        <pt x="343" y="8" on="0"/>
        <pt x="236" y="-7" on="0"/>
        <pt x="145" y="-1" on="0"/>
      </contour>
    </TTGlyph>
    <TTGlyph name="Eacute" xMin="13" yMin="-4" xMax="790" yMax="915">
      <component glyphName="E" x="0" y="0" flags="0x1204"/>
      <component glyphName="acute" x="55" y="185" flags="0x1004"/>
    </TTGlyph>
    <TTGlyph name="Ebreve" xMin="13" yMin="-4" xMax="790" yMax="885">
      <component glyphName="E" x="0" y="0" flags="0x1204"/>
      <component glyphName="breve" x="134" y="233" flags="0x1004"/>
    </TTGlyph>
    <TTGlyph name="Ecaron" xMin="13" yMin="-4" xMax="790" yMax="902">
      <component glyphName="E" x="0" y="0" flags="0x1204"/>
      <component glyphName="caron" x="121" y="189" flags="0x1004"/>
    </TTGlyph>
    <TTGlyph name="Ecircumflex" xMin="13" yMin="-4" xMax="790" yMax="991">
      <component glyphName="E" x="0" y="0" flags="0x1204"/>
      <component glyphName="circumflex" x="90" y="178" flags="0x1004"/>
    </TTGlyph>
    <TTGlyph name="Edieresis" xMin="13" yMin="-4" xMax="790" yMax="956">
      <component glyphName="E" x="0" y="0" flags="0x1204"/>
      <component glyphName="dieresis" x="15" y="242" flags="0x1004"/>
    </TTGlyph>
    <TTGlyph name="Edotaccent" xMin="13" yMin="-4" xMax="790" yMax="905">
      <component glyphName="E" x="0" y="0" flags="0x1204"/>
      <component glyphName="dotaccent" x="201" y="209" flags="0x1004"/>
    </TTGlyph>
    <TTGlyph name="Egrave" xMin="13" yMin="-4" xMax="790" yMax="954">
      <component glyphName="E" x="0" y="0" flags="0x1204"/>
      <component glyphName="grave" x="212" y="197" flags="0x1004"/>
    </TTGlyph>
    <TTGlyph name="Emacron" xMin="13" yMin="-4" xMax="790" yMax="867">
      <component glyphName="E" x="0" y="0" flags="0x1204"/>
      <component glyphName="macron" x="102" y="305" flags="0x1004"/>
    </TTGlyph>
    <TTGlyph name="Eogonek" xMin="13" yMin="-209" xMax="790" yMax="763">
      <component glyphName="E" x="0" y="0" flags="0x1204"/>
      <component glyphName="ogonek" x="383" y="54" flags="0x1004"/>
    </TTGlyph>
    <TTGlyph name="Eth" xMin="-53" yMin="0" xMax="618" yMax="852">
      <contour>
        <pt x="-52" y="253" on="1"/>
        <pt x="-57" y="267" on="0"/>
        <pt x="-49" y="286" on="0"/>
        <pt x="-29" y="291" on="1"/>
        <pt x="-15" y="294" on="0"/>
        <pt x="46" y="297" on="0"/>
        <pt x="84" y="299" on="1"/>
        <pt x="78" y="387" on="0"/>
        <pt x="54" y="583" on="0"/>
        <pt x="43" y="670" on="1"/>
        <pt x="33" y="721" on="0"/>
        <pt x="32" y="753" on="1"/>
        <pt x="32" y="766" on="0"/>
        <pt x="35" y="787" on="0"/>
        <pt x="44" y="793" on="0"/>
        <pt x="61" y="782" on="0"/>
        <pt x="75" y="764" on="1"/>
        <pt x="77" y="748" on="0"/>
        <pt x="86" y="681" on="0"/>
        <pt x="97" y="597" on="0"/>
        <pt x="109" y="505" on="0"/>
        <pt x="119" y="421" on="0"/>
        <pt x="127" y="355" on="0"/>
        <pt x="129" y="339" on="1"/>
        <pt x="129" y="338" on="0"/>
        <pt x="130" y="326" on="0"/>
        <pt x="130" y="311" on="0"/>
        <pt x="131" y="297" on="0"/>
        <pt x="131" y="295" on="1"/>
        <pt x="166" y="295" on="0"/>
        <pt x="235" y="304" on="0"/>
        <pt x="291" y="313" on="0"/>
        <pt x="328" y="318" on="0"/>
        <pt x="332" y="315" on="1"/>
        <pt x="348" y="305" on="0"/>
        <pt x="339" y="280" on="0"/>
        <pt x="312" y="260" on="0"/>
        <pt x="278" y="252" on="0"/>
        <pt x="268" y="260" on="1"/>
        <pt x="225" y="261" on="0"/>
        <pt x="163" y="256" on="0"/>
        <pt x="135" y="252" on="1"/>
        <pt x="136" y="238" on="0"/>
        <pt x="137" y="218" on="0"/>
        <pt x="137" y="213" on="1"/>
        <pt x="143" y="207" on="0"/>
        <pt x="147" y="185" on="0"/>
        <pt x="147" y="163" on="0"/>
        <pt x="145" y="144" on="0"/>
        <pt x="145" y="141" on="1"/>
        <pt x="151" y="129" on="0"/>
        <pt x="180" y="112" on="0"/>
        <pt x="214" y="101" on="0"/>
        <pt x="250" y="95" on="0"/>
        <pt x="263" y="94" on="1"/>
        <pt x="341" y="89" on="0"/>
        <pt x="465" y="155" on="0"/>
        <pt x="543" y="269" on="0"/>
        <pt x="568" y="414" on="0"/>
        <pt x="547" y="488" on="1"/>
        <pt x="534" y="534" on="0"/>
        <pt x="472" y="619" on="0"/>
        <pt x="386" y="692" on="0"/>
        <pt x="283" y="752" on="0"/>
        <pt x="176" y="793" on="0"/>
        <pt x="72" y="813" on="0"/>
        <pt x="27" y="811" on="1"/>
        <pt x="19" y="814" on="0"/>
        <pt x="17" y="825" on="0"/>
        <pt x="22" y="838" on="0"/>
        <pt x="31" y="849" on="0"/>
        <pt x="35" y="851" on="1"/>
        <pt x="77" y="857" on="0"/>
        <pt x="156" y="846" on="0"/>
        <pt x="230" y="819" on="0"/>
        <pt x="300" y="779" on="0"/>
        <pt x="334" y="756" on="1"/>
        <pt x="369" y="732" on="0"/>
        <pt x="447" y="673" on="0"/>
        <pt x="519" y="606" on="0"/>
        <pt x="577" y="530" on="0"/>
        <pt x="594" y="488" on="1"/>
        <pt x="622" y="419" on="0"/>
        <pt x="614" y="291" on="0"/>
        <pt x="559" y="185" on="0"/>
        <pt x="465" y="106" on="0"/>
        <pt x="348" y="63" on="0"/>
        <pt x="217" y="61" on="0"/>
        <pt x="153" y="87" on="1"/>
        <pt x="153" y="83" on="0"/>
        <pt x="158" y="50" on="0"/>
        <pt x="155" y="15" on="0"/>
        <pt x="141" y="-7" on="0"/>
        <pt x="122" y="0" on="1"/>
        <pt x="120" y="2" on="0"/>
        <pt x="107" y="13" on="0"/>
        <pt x="105" y="15" on="1"/>
        <pt x="105" y="20" on="0"/>
        <pt x="103" y="45" on="0"/>
        <pt x="101" y="73" on="0"/>
        <pt x="99" y="97" on="0"/>
        <pt x="98" y="102" on="1"/>
        <pt x="90" y="118" on="1"/>
        <pt x="91" y="150" on="0"/>
        <pt x="91" y="213" on="0"/>
        <pt x="89" y="245" on="1"/>
        <pt x="63" y="242" on="0"/>
        <pt x="3" y="241" on="0"/>
        <pt x="-37" y="245" on="1"/>
        <pt x="-39" y="245" on="0"/>
        <pt x="-51" y="251" on="0"/>
      </contour>
    </TTGlyph>
    <TTGlyph name="Euro" xMin="16" yMin="6" xMax="700" yMax="740">
      <contour>
        <pt x="319" y="364" on="1"/>
        <pt x="288" y="366" on="0"/>
        <pt x="226" y="370" on="0"/>
        <pt x="194" y="371" on="1"/>
        <pt x="191" y="349" on="0"/>
        <pt x="188" y="307" on="0"/>
        <pt x="187" y="287" on="1"/>
        <pt x="235" y="282" on="0"/>
        <pt x="328" y="263" on="0"/>
        <pt x="390" y="244" on="0"/>
        <pt x="408" y="227" on="0"/>
        <pt x="381" y="223" on="1"/>
        <pt x="366" y="224" on="0"/>
        <pt x="323" y="221" on="0"/>
        <pt x="273" y="216" on="0"/>
        <pt x="218" y="210" on="0"/>
        <pt x="191" y="207" on="1"/>
        <pt x="195" y="179" on="0"/>
        <pt x="207" y="137" on="0"/>
        <pt x="217" y="126" on="1"/>
        <pt x="238" y="101" on="0"/>
        <pt x="287" y="73" on="0"/>
        <pt x="341" y="61" on="0"/>
        <pt x="400" y="61" on="0"/>
        <pt x="430" y="63" on="1"/>
        <pt x="465" y="65" on="0"/>
        <pt x="523" y="94" on="0"/>
        <pt x="576" y="130" on="0"/>
        <pt x="629" y="165" on="0"/>
        <pt x="658" y="173" on="1"/>
        <pt x="696" y="184" on="0"/>
        <pt x="704" y="159" on="0"/>
        <pt x="664" y="113" on="0"/>
        <pt x="583" y="56" on="0"/>
        <pt x="477" y="14" on="0"/>
        <pt x="356" y="-2" on="0"/>
        <pt x="296" y="15" on="1"/>
        <pt x="230" y="34" on="0"/>
        <pt x="157" y="136" on="0"/>
        <pt x="143" y="204" on="1"/>
        <pt x="101" y="202" on="0"/>
        <pt x="38" y="209" on="0"/>
        <pt x="27" y="223" on="1"/>
        <pt x="13" y="243" on="0"/>
        <pt x="19" y="270" on="0"/>
        <pt x="50" y="285" on="0"/>
        <pt x="102" y="291" on="0"/>
        <pt x="134" y="290" on="1"/>
        <pt x="133" y="310" on="0"/>
        <pt x="136" y="351" on="0"/>
        <pt x="138" y="372" on="1"/>
        <pt x="119" y="372" on="0"/>
        <pt x="79" y="372" on="0"/>
        <pt x="59" y="371" on="1"/>
        <pt x="48" y="376" on="0"/>
        <pt x="32" y="390" on="0"/>
        <pt x="29" y="402" on="1"/>
        <pt x="25" y="416" on="0"/>
        <pt x="42" y="434" on="0"/>
        <pt x="77" y="443" on="0"/>
        <pt x="124" y="444" on="0"/>
        <pt x="150" y="443" on="1"/>
        <pt x="167" y="526" on="0"/>
        <pt x="231" y="668" on="0"/>
        <pt x="272" y="709" on="1"/>
        <pt x="298" y="735" on="0"/>
        <pt x="344" y="745" on="0"/>
        <pt x="383" y="728" on="0"/>
        <pt x="413" y="688" on="0"/>
        <pt x="431" y="641" on="0"/>
        <pt x="436" y="592" on="0"/>
        <pt x="425" y="556" on="0"/>
        <pt x="398" y="537" on="0"/>
        <pt x="375" y="544" on="1"/>
        <pt x="364" y="557" on="0"/>
        <pt x="373" y="597" on="0"/>
        <pt x="382" y="638" on="0"/>
        <pt x="376" y="675" on="0"/>
        <pt x="351" y="685" on="1"/>
        <pt x="325" y="695" on="0"/>
        <pt x="279" y="662" on="0"/>
        <pt x="241" y="591" on="0"/>
        <pt x="212" y="493" on="0"/>
        <pt x="203" y="439" on="1"/>
        <pt x="227" y="436" on="0"/>
        <pt x="272" y="429" on="0"/>
        <pt x="306" y="423" on="0"/>
        <pt x="328" y="418" on="0"/>
        <pt x="328" y="418" on="1"/>
        <pt x="351" y="401" on="0"/>
        <pt x="360" y="368" on="0"/>
        <pt x="349" y="347" on="0"/>
        <pt x="327" y="347" on="0"/>
      </contour>
    </TTGlyph>
    <TTGlyph name="F" xMin="24" yMin="0" xMax="685" yMax="739">
      <contour>
        <pt x="141" y="8" on="1"/>
        <pt x="139" y="9" on="0"/>
        <pt x="127" y="21" on="0"/>
        <pt x="126" y="24" on="1"/>
        <pt x="121" y="91" on="0"/>
        <pt x="137" y="230" on="0"/>
        <pt x="154" y="370" on="0"/>
        <pt x="158" y="508" on="0"/>
        <pt x="141" y="575" on="1"/>
        <pt x="133" y="606" on="1"/>
        <pt x="39" y="606" on="1"/>
        <pt x="30" y="606" on="0"/>
        <pt x="24" y="621" on="0"/>
        <pt x="24" y="640" on="0"/>
        <pt x="29" y="658" on="0"/>
        <pt x="31" y="662" on="1"/>
        <pt x="33" y="664" on="0"/>
        <pt x="38" y="670" on="0"/>
        <pt x="39" y="670" on="1"/>
        <pt x="133" y="670" on="1"/>
        <pt x="133" y="725" on="1"/>
        <pt x="133" y="743" on="0"/>
        <pt x="150" y="734" on="0"/>
        <pt x="170" y="709" on="0"/>
        <pt x="188" y="680" on="0"/>
        <pt x="188" y="678" on="1"/>
        <pt x="242" y="670" on="0"/>
        <pt x="349" y="669" on="0"/>
        <pt x="455" y="678" on="0"/>
        <pt x="561" y="693" on="0"/>
        <pt x="614" y="701" on="1"/>
        <pt x="620" y="702" on="0"/>
        <pt x="639" y="692" on="0"/>
        <pt x="654" y="677" on="0"/>
        <pt x="660" y="660" on="0"/>
        <pt x="653" y="653" on="1"/>
        <pt x="635" y="635" on="0"/>
        <pt x="567" y="619" on="0"/>
        <pt x="481" y="615" on="0"/>
        <pt x="384" y="617" on="0"/>
        <pt x="293" y="619" on="0"/>
        <pt x="214" y="615" on="0"/>
        <pt x="188" y="606" on="1"/>
        <pt x="190" y="534" on="0"/>
        <pt x="187" y="391" on="0"/>
        <pt x="182" y="247" on="0"/>
        <pt x="179" y="104" on="0"/>
        <pt x="181" y="32" on="1"/>
        <pt x="165" y="0" on="1"/>
        <pt x="164" y="-2" on="0"/>
        <pt x="146" y="5" on="0"/>
      </contour>
      <contour>
        <pt x="220" y="371" on="1"/>
        <pt x="218" y="371" on="0"/>
        <pt x="213" y="377" on="0"/>
        <pt x="212" y="378" on="1"/>
        <pt x="216" y="389" on="0"/>
        <pt x="228" y="415" on="0"/>
        <pt x="246" y="431" on="0"/>
        <pt x="269" y="432" on="0"/>
        <pt x="284" y="418" on="1"/>
        <pt x="297" y="417" on="0"/>
        <pt x="364" y="425" on="0"/>
        <pt x="450" y="436" on="0"/>
        <pt x="544" y="448" on="0"/>
        <pt x="624" y="456" on="0"/>
        <pt x="680" y="455" on="0"/>
        <pt x="685" y="449" on="1"/>
        <pt x="693" y="438" on="0"/>
        <pt x="667" y="416" on="0"/>
        <pt x="613" y="396" on="0"/>
        <pt x="537" y="379" on="0"/>
        <pt x="453" y="366" on="0"/>
        <pt x="366" y="358" on="0"/>
        <pt x="291" y="357" on="0"/>
        <pt x="233" y="363" on="0"/>
      </contour>
    </TTGlyph>
    <TTGlyph name="G" xMin="30" yMin="-35" xMax="784" yMax="761">
      <contour>
        <pt x="201" y="-23" on="1"/>
        <pt x="129" y="-5" on="0"/>
        <pt x="50" y="101" on="0"/>
        <pt x="22" y="244" on="0"/>
        <pt x="38" y="409" on="0"/>
        <pt x="86" y="563" on="0"/>
        <pt x="157" y="692" on="0"/>
        <pt x="240" y="763" on="0"/>
        <pt x="326" y="759" on="0"/>
        <pt x="365" y="705" on="1"/>
        <pt x="400" y="657" on="0"/>
        <pt x="433" y="545" on="0"/>
        <pt x="428" y="485" on="1"/>
        <pt x="411" y="464" on="0"/>
        <pt x="373" y="453" on="0"/>
        <pt x="336" y="461" on="0"/>
        <pt x="304" y="481" on="0"/>
        <pt x="283" y="503" on="0"/>
        <pt x="278" y="520" on="0"/>
        <pt x="287" y="520" on="1"/>
        <pt x="373" y="520" on="1"/>
        <pt x="374" y="530" on="0"/>
        <pt x="371" y="571" on="0"/>
        <pt x="361" y="621" on="0"/>
        <pt x="345" y="671" on="0"/>
        <pt x="321" y="709" on="0"/>
        <pt x="290" y="728" on="0"/>
        <pt x="270" y="722" on="1"/>
        <pt x="236" y="710" on="0"/>
        <pt x="185" y="644" on="0"/>
        <pt x="148" y="561" on="0"/>
        <pt x="123" y="475" on="0"/>
        <pt x="114" y="445" on="1"/>
        <pt x="70" y="300" on="0"/>
        <pt x="84" y="110" on="0"/>
        <pt x="165" y="11" on="0"/>
        <pt x="297" y="-2" on="0"/>
        <pt x="445" y="61" on="0"/>
        <pt x="591" y="195" on="0"/>
        <pt x="646" y="292" on="1"/>
        <pt x="658" y="312" on="0"/>
        <pt x="688" y="354" on="0"/>
        <pt x="693" y="378" on="1"/>
        <pt x="687" y="380" on="0"/>
        <pt x="635" y="363" on="0"/>
        <pt x="566" y="338" on="0"/>
        <pt x="489" y="313" on="0"/>
        <pt x="427" y="300" on="0"/>
        <pt x="389" y="305" on="0"/>
        <pt x="394" y="323" on="1"/>
        <pt x="397" y="335" on="0"/>
        <pt x="428" y="364" on="0"/>
        <pt x="469" y="385" on="0"/>
        <pt x="509" y="394" on="0"/>
        <pt x="520" y="386" on="1"/>
        <pt x="545" y="390" on="0"/>
        <pt x="602" y="414" on="0"/>
        <pt x="660" y="438" on="0"/>
        <pt x="716" y="457" on="0"/>
        <pt x="740" y="457" on="1"/>
        <pt x="770" y="457" on="0"/>
        <pt x="787" y="438" on="0"/>
        <pt x="781" y="411" on="0"/>
        <pt x="762" y="381" on="0"/>
        <pt x="756" y="371" on="1"/>
        <pt x="724" y="315" on="0"/>
        <pt x="657" y="203" on="0"/>
        <pt x="582" y="104" on="0"/>
        <pt x="497" y="22" on="0"/>
        <pt x="395" y="-28" on="0"/>
        <pt x="274" y="-41" on="0"/>
      </contour>
    </TTGlyph>
    <TTGlyph name="Gbreve" xMin="30" yMin="-35" xMax="784" yMax="901">
      <component glyphName="G" x="0" y="0" flags="0x1204"/>
      <component glyphName="breve" x="265" y="249" flags="0x1004"/>
    </TTGlyph>
    <TTGlyph name="Gcircumflex" xMin="30" yMin="-35" xMax="784" yMax="996">
      <component glyphName="G" x="0" y="0" flags="0x1204"/>
      <component glyphName="circumflex" x="75" y="183" flags="0x1004"/>
    </TTGlyph>
    <TTGlyph name="Gcommaaccent" xMin="30" yMin="-353" xMax="784" yMax="761">
      <component glyphName="G" x="0" y="0" flags="0x1204"/>
      <component glyphName="commaaccent" x="155" y="0" flags="0x1004"/>
    </TTGlyph>
    <TTGlyph name="Gdotaccent" xMin="30" yMin="-35" xMax="784" yMax="936">
      <component glyphName="G" x="0" y="0" flags="0x1204"/>
      <component glyphName="dotaccent" x="168" y="240" flags="0x1004"/>
    </TTGlyph>
    <TTGlyph name="H" xMin="19" yMin="6" xMax="704" yMax="786">
      <contour>
        <pt x="55" y="47" on="1"/>
        <pt x="48" y="77" on="0"/>
        <pt x="64" y="168" on="0"/>
        <pt x="89" y="267" on="0"/>
        <pt x="115" y="362" on="0"/>
        <pt x="118" y="397" on="1"/>
        <pt x="39" y="397" on="1"/>
        <pt x="37" y="397" on="0"/>
        <pt x="28" y="410" on="0"/>
        <pt x="21" y="428" on="0"/>
        <pt x="18" y="447" on="0"/>
        <pt x="29" y="461" on="0"/>
        <pt x="54" y="464" on="0"/>
        <pt x="79" y="457" on="1"/>
        <pt x="83" y="455" on="0"/>
        <pt x="97" y="454" on="0"/>
        <pt x="103" y="452" on="1"/>
        <pt x="110" y="450" on="0"/>
        <pt x="118" y="449" on="1"/>
        <pt x="126" y="473" on="1"/>
        <pt x="127" y="474" on="0"/>
        <pt x="128" y="508" on="0"/>
        <pt x="130" y="556" on="0"/>
        <pt x="130" y="608" on="0"/>
        <pt x="129" y="628" on="1"/>
        <pt x="129" y="632" on="0"/>
        <pt x="123" y="657" on="0"/>
        <pt x="118" y="689" on="0"/>
        <pt x="115" y="724" on="0"/>
        <pt x="121" y="751" on="0"/>
        <pt x="137" y="766" on="0"/>
        <pt x="153" y="762" on="1"/>
        <pt x="158" y="760" on="0"/>
        <pt x="168" y="740" on="0"/>
        <pt x="168" y="738" on="1"/>
        <pt x="166" y="697" on="0"/>
        <pt x="169" y="628" on="0"/>
        <pt x="172" y="560" on="0"/>
        <pt x="174" y="490" on="0"/>
        <pt x="173" y="449" on="1"/>
        <pt x="210" y="440" on="0"/>
        <pt x="317" y="430" on="0"/>
        <pt x="431" y="434" on="0"/>
        <pt x="538" y="457" on="0"/>
        <pt x="574" y="480" on="1"/>
        <pt x="587" y="488" on="0"/>
        <pt x="605" y="533" on="0"/>
        <pt x="618" y="591" on="0"/>
        <pt x="628" y="658" on="0"/>
        <pt x="638" y="719" on="0"/>
        <pt x="649" y="768" on="0"/>
        <pt x="666" y="790" on="0"/>
        <pt x="688" y="781" on="0"/>
        <pt x="704" y="753" on="1"/>
        <pt x="704" y="730" on="1"/>
        <pt x="699" y="659" on="0"/>
        <pt x="681" y="530" on="0"/>
        <pt x="662" y="404" on="0"/>
        <pt x="644" y="276" on="0"/>
        <pt x="638" y="205" on="1"/>
        <pt x="636" y="181" on="0"/>
        <pt x="639" y="147" on="0"/>
        <pt x="641" y="115" on="0"/>
        <pt x="638" y="80" on="0"/>
        <pt x="630" y="55" on="1"/>
        <pt x="617" y="46" on="0"/>
        <pt x="592" y="49" on="0"/>
        <pt x="583" y="63" on="1"/>
        <pt x="580" y="109" on="0"/>
        <pt x="590" y="202" on="0"/>
        <pt x="602" y="295" on="0"/>
        <pt x="610" y="388" on="0"/>
        <pt x="606" y="433" on="1"/>
        <pt x="500" y="398" on="0"/>
        <pt x="276" y="382" on="0"/>
        <pt x="165" y="386" on="1"/>
        <pt x="164" y="378" on="0"/>
        <pt x="157" y="335" on="0"/>
        <pt x="149" y="288" on="0"/>
        <pt x="142" y="245" on="0"/>
        <pt x="141" y="237" on="1"/>
        <pt x="133" y="186" on="0"/>
        <pt x="120" y="75" on="0"/>
        <pt x="111" y="24" on="1"/>
        <pt x="109" y="12" on="0"/>
        <pt x="93" y="0" on="0"/>
        <pt x="79" y="8" on="1"/>
        <pt x="77" y="9" on="0"/>
        <pt x="69" y="20" on="0"/>
        <pt x="61" y="33" on="0"/>
        <pt x="55" y="44" on="0"/>
      </contour>
    </TTGlyph>
    <TTGlyph name="Hcircumflex" xMin="19" yMin="6" xMax="704" yMax="972">
      <component glyphName="H" x="0" y="0" flags="0x1204"/>
      <component glyphName="circumflex" x="141" y="159" flags="0x1004"/>
    </TTGlyph>
    <TTGlyph name="I" xMin="31" yMin="3" xMax="111" yMax="654">
      <contour>
        <pt x="40" y="8" on="1"/>
        <pt x="38" y="8" on="0"/>
        <pt x="33" y="14" on="0"/>
        <pt x="32" y="15" on="1"/>
        <pt x="30" y="90" on="0"/>
        <pt x="33" y="240" on="0"/>
        <pt x="37" y="390" on="0"/>
        <pt x="41" y="539" on="0"/>
        <pt x="40" y="614" on="1"/>
        <pt x="41" y="631" on="0"/>
        <pt x="57" y="652" on="0"/>
        <pt x="77" y="656" on="0"/>
        <pt x="96" y="641" on="0"/>
        <pt x="102" y="623" on="1"/>
        <pt x="102" y="614" on="1"/>
        <pt x="85" y="489" on="0"/>
        <pt x="85" y="229" on="0"/>
        <pt x="87" y="102" on="1"/>
        <pt x="90" y="104" on="0"/>
        <pt x="104" y="113" on="0"/>
        <pt x="111" y="111" on="1"/>
        <pt x="112" y="97" on="0"/>
        <pt x="106" y="51" on="0"/>
        <pt x="89" y="12" on="0"/>
        <pt x="61" y="-6" on="0"/>
      </contour>
    </TTGlyph>
    <TTGlyph name="Iacute" xMin="-37" yMin="3" xMax="223" yMax="908">
      <component glyphName="I" x="0" y="0" flags="0x1204"/>
      <component glyphName="acute" x="-71" y="178" flags="0x1004"/>
    </TTGlyph>
    <TTGlyph name="Ibreve" xMin="-22" yMin="3" xMax="166" yMax="841">
      <component glyphName="I" x="0" y="0" flags="0x1204"/>
      <component glyphName="breve" x="-65" y="189" flags="0x1004"/>
    </TTGlyph>
    <TTGlyph name="Icircumflex" xMin="-87" yMin="3" xMax="197" yMax="889">
      <component glyphName="I" x="0" y="0" flags="0x1204"/>
      <component glyphName="circumflex" x="-149" y="76" flags="0x1004"/>
    </TTGlyph>
    <TTGlyph name="Idieresis" xMin="4" yMin="3" xMax="219" yMax="732">
      <component glyphName="I" x="0" y="0" flags="0x1204"/>
      <component glyphName="dieresis" x="-48" y="228" scalex="0.659240722656" scaley="0.705871582031" flags="0x1004"/>
    </TTGlyph>
    <TTGlyph name="Idotaccent" xMin="22" yMin="3" xMax="127" yMax="855">
      <component glyphName="I" x="0" y="0" flags="0x1204"/>
      <component glyphName="dotaccent" x="-50" y="159" flags="0x1004"/>
    </TTGlyph>
    <TTGlyph name="Igrave" xMin="-19" yMin="3" xMax="174" yMax="917">
      <component glyphName="I" x="0" y="0" flags="0x1204"/>
      <component glyphName="grave" x="-70" y="160" flags="0x1004"/>
    </TTGlyph>
    <TTGlyph name="Imacron" xMin="-124" yMin="3" xMax="296" yMax="793">
      <component glyphName="I" x="0" y="0" flags="0x1204"/>
      <component glyphName="macron" x="-139" y="231" flags="0x1004"/>
    </TTGlyph>
    <TTGlyph name="Iogonek" xMin="-73" yMin="-270" xMax="177" yMax="654">
      <component glyphName="I" x="0" y="0" flags="0x1204"/>
      <component glyphName="ogonek" x="-109" y="-7" flags="0x1004"/>
    </TTGlyph>
    <TTGlyph name="Itilde" xMin="-155" yMin="3" xMax="284" yMax="884">
      <component glyphName="I" x="0" y="0" flags="0x1204"/>
      <component glyphName="tilde" x="-315" y="159" flags="0x1004"/>
    </TTGlyph>
    <TTGlyph name="J" xMin="35" yMin="8" xMax="965" yMax="776">
      <contour>
        <pt x="252" y="8" on="1"/>
        <pt x="248" y="9" on="0"/>
        <pt x="224" y="21" on="0"/>
        <pt x="220" y="24" on="1"/>
        <pt x="174" y="67" on="0"/>
        <pt x="104" y="146" on="0"/>
        <pt x="59" y="233" on="0"/>
        <pt x="41" y="335" on="0"/>
        <pt x="47" y="401" on="1"/>
        <pt x="49" y="406" on="0"/>
        <pt x="57" y="412" on="0"/>
        <pt x="62" y="410" on="1"/>
        <pt x="69" y="353" on="0"/>
        <pt x="93" y="259" on="0"/>
        <pt x="134" y="177" on="0"/>
        <pt x="194" y="102" on="0"/>
        <pt x="236" y="63" on="1"/>
        <pt x="248" y="52" on="0"/>
        <pt x="277" y="45" on="0"/>
        <pt x="307" y="50" on="0"/>
        <pt x="335" y="62" on="0"/>
        <pt x="346" y="71" on="1"/>
        <pt x="383" y="100" on="0"/>
        <pt x="432" y="187" on="0"/>
        <pt x="456" y="289" on="0"/>
        <pt x="457" y="400" on="0"/>
        <pt x="439" y="505" on="0"/>
        <pt x="401" y="599" on="0"/>
        <pt x="375" y="634" on="1"/>
        <pt x="334" y="640" on="0"/>
        <pt x="252" y="626" on="0"/>
        <pt x="168" y="606" on="0"/>
        <pt x="85" y="591" on="0"/>
        <pt x="45" y="595" on="1"/>
        <pt x="25" y="619" on="0"/>
        <pt x="46" y="644" on="0"/>
        <pt x="92" y="655" on="0"/>
        <pt x="144" y="657" on="0"/>
        <pt x="154" y="658" on="1"/>
        <pt x="161" y="659" on="0"/>
        <pt x="207" y="665" on="0"/>
        <pt x="259" y="672" on="0"/>
        <pt x="308" y="680" on="0"/>
        <pt x="320" y="682" on="1"/>
        <pt x="325" y="683" on="0"/>
        <pt x="355" y="688" on="0"/>
        <pt x="359" y="690" on="1"/>
        <pt x="378" y="692" on="0"/>
        <pt x="456" y="702" on="0"/>
        <pt x="554" y="714" on="0"/>
        <pt x="662" y="728" on="0"/>
        <pt x="760" y="740" on="0"/>
        <pt x="837" y="750" on="0"/>
        <pt x="856" y="752" on="1"/>
        <pt x="857" y="752" on="0"/>
        <pt x="880" y="761" on="0"/>
        <pt x="908" y="770" on="0"/>
        <pt x="932" y="777" on="0"/>
        <pt x="934" y="776" on="1"/>
        <pt x="956" y="765" on="0"/>
        <pt x="968" y="741" on="0"/>
        <pt x="961" y="719" on="0"/>
        <pt x="941" y="700" on="0"/>
        <pt x="920" y="690" on="0"/>
        <pt x="903" y="690" on="0"/>
        <pt x="903" y="697" on="1"/>
        <pt x="840" y="697" on="1"/>
        <pt x="478" y="650" on="1"/>
        <pt x="446" y="643" on="1"/>
        <pt x="459" y="623" on="0"/>
        <pt x="480" y="545" on="0"/>
        <pt x="492" y="443" on="0"/>
        <pt x="492" y="326" on="0"/>
        <pt x="476" y="213" on="0"/>
        <pt x="442" y="111" on="0"/>
        <pt x="386" y="37" on="0"/>
        <pt x="306" y="0" on="0"/>
      </contour>
    </TTGlyph>
    <TTGlyph name="Jcircumflex" xMin="35" yMin="8" xMax="965" yMax="953">
      <component glyphName="J" x="0" y="0" flags="0x1204"/>
      <component glyphName="circumflex" x="175" y="140" flags="0x1004"/>
    </TTGlyph>
    <TTGlyph name="K" xMin="25" yMin="7" xMax="838" yMax="775">
      <contour>
        <pt x="590" y="14" on="1"/>
        <pt x="557" y="19" on="0"/>
        <pt x="481" y="58" on="0"/>
        <pt x="399" y="113" on="0"/>
        <pt x="311" y="178" on="0"/>
        <pt x="223" y="242" on="0"/>
        <pt x="136" y="299" on="0"/>
        <pt x="95" y="317" on="1"/>
        <pt x="87" y="274" on="0"/>
        <pt x="81" y="204" on="0"/>
        <pt x="81" y="137" on="0"/>
        <pt x="85" y="67" on="0"/>
        <pt x="87" y="24" on="1"/>
        <pt x="90" y="9" on="0"/>
        <pt x="74" y="5" on="0"/>
        <pt x="53" y="14" on="0"/>
        <pt x="34" y="29" on="0"/>
        <pt x="32" y="32" on="1"/>
        <pt x="32" y="55" on="1"/>
        <pt x="36" y="116" on="0"/>
        <pt x="43" y="208" on="0"/>
        <pt x="48" y="294" on="0"/>
        <pt x="50" y="384" on="0"/>
        <pt x="48" y="443" on="1"/>
        <pt x="48" y="450" on="0"/>
        <pt x="46" y="489" on="0"/>
        <pt x="43" y="534" on="0"/>
        <pt x="41" y="576" on="0"/>
        <pt x="40" y="585" on="1"/>
        <pt x="40" y="587" on="0"/>
        <pt x="34" y="616" on="0"/>
        <pt x="28" y="657" on="0"/>
        <pt x="23" y="701" on="0"/>
        <pt x="27" y="736" on="0"/>
        <pt x="41" y="755" on="0"/>
        <pt x="56" y="750" on="1"/>
        <pt x="66" y="742" on="0"/>
        <pt x="79" y="692" on="0"/>
        <pt x="87" y="625" on="0"/>
        <pt x="91" y="549" on="0"/>
        <pt x="93" y="477" on="0"/>
        <pt x="94" y="418" on="0"/>
        <pt x="95" y="403" on="1"/>
        <pt x="108" y="399" on="0"/>
        <pt x="149" y="411" on="0"/>
        <pt x="190" y="431" on="0"/>
        <pt x="227" y="453" on="0"/>
        <pt x="238" y="459" on="1"/>
        <pt x="287" y="489" on="0"/>
        <pt x="382" y="548" on="0"/>
        <pt x="459" y="619" on="0"/>
        <pt x="513" y="707" on="0"/>
        <pt x="521" y="766" on="1"/>
        <pt x="521" y="768" on="0"/>
        <pt x="527" y="774" on="0"/>
        <pt x="529" y="774" on="1"/>
        <pt x="534" y="775" on="0"/>
        <pt x="563" y="775" on="0"/>
        <pt x="568" y="774" on="1"/>
        <pt x="593" y="749" on="0"/>
        <pt x="578" y="683" on="0"/>
        <pt x="523" y="612" on="0"/>
        <pt x="442" y="540" on="0"/>
        <pt x="361" y="479" on="0"/>
        <pt x="292" y="435" on="0"/>
        <pt x="277" y="427" on="1"/>
        <pt x="270" y="424" on="0"/>
        <pt x="234" y="406" on="0"/>
        <pt x="194" y="386" on="0"/>
        <pt x="158" y="368" on="0"/>
        <pt x="151" y="364" on="1"/>
        <pt x="139" y="352" on="1"/>
        <pt x="264" y="264" on="0"/>
        <pt x="455" y="134" on="0"/>
        <pt x="614" y="72" on="0"/>
        <pt x="753" y="93" on="0"/>
        <pt x="826" y="156" on="1"/>
        <pt x="842" y="148" on="0"/>
        <pt x="834" y="119" on="0"/>
        <pt x="800" y="84" on="0"/>
        <pt x="745" y="50" on="0"/>
        <pt x="682" y="23" on="0"/>
        <pt x="617" y="10" on="0"/>
      </contour>
    </TTGlyph>
    <TTGlyph name="Kcommaaccent" xMin="25" yMin="-353" xMax="838" yMax="775">
      <component glyphName="K" x="0" y="0" flags="0x1204"/>
      <component glyphName="commaaccent" x="136" y="0" flags="0x1004"/>
    </TTGlyph>
    <TTGlyph name="L" xMin="15" yMin="0" xMax="669" yMax="635">
      <contour>
        <pt x="39" y="8" on="1"/>
        <pt x="20" y="15" on="0"/>
        <pt x="10" y="33" on="0"/>
        <pt x="15" y="55" on="1"/>
        <pt x="30" y="127" on="0"/>
        <pt x="64" y="266" on="0"/>
        <pt x="91" y="404" on="0"/>
        <pt x="106" y="546" on="0"/>
        <pt x="102" y="623" on="1"/>
        <pt x="111" y="640" on="0"/>
        <pt x="129" y="630" on="0"/>
        <pt x="142" y="601" on="0"/>
        <pt x="150" y="566" on="0"/>
        <pt x="150" y="559" on="1"/>
        <pt x="144" y="500" on="0"/>
        <pt x="132" y="387" on="0"/>
        <pt x="117" y="275" on="0"/>
        <pt x="99" y="162" on="0"/>
        <pt x="86" y="102" on="1"/>
        <pt x="80" y="72" on="0"/>
        <pt x="128" y="47" on="0"/>
        <pt x="197" y="41" on="0"/>
        <pt x="267" y="46" on="0"/>
        <pt x="284" y="47" on="1"/>
        <pt x="293" y="48" on="0"/>
        <pt x="342" y="52" on="0"/>
        <pt x="397" y="57" on="0"/>
        <pt x="447" y="61" on="0"/>
        <pt x="457" y="63" on="1"/>
        <pt x="466" y="73" on="0"/>
        <pt x="509" y="83" on="0"/>
        <pt x="558" y="91" on="0"/>
        <pt x="607" y="101" on="0"/>
        <pt x="622" y="111" on="1"/>
        <pt x="630" y="116" on="0"/>
        <pt x="657" y="130" on="0"/>
        <pt x="669" y="126" on="1"/>
        <pt x="669" y="102" on="1"/>
        <pt x="665" y="98" on="0"/>
        <pt x="637" y="74" on="0"/>
        <pt x="603" y="43" on="0"/>
        <pt x="569" y="11" on="0"/>
        <pt x="559" y="0" on="1"/>
        <pt x="559" y="2" on="0"/>
        <pt x="553" y="8" on="0"/>
        <pt x="551" y="8" on="1"/>
        <pt x="499" y="15" on="0"/>
        <pt x="367" y="14" on="0"/>
        <pt x="233" y="7" on="0"/>
        <pt x="108" y="-1" on="0"/>
        <pt x="62" y="0" on="1"/>
        <pt x="59" y="1" on="0"/>
        <pt x="41" y="6" on="0"/>
      </contour>
    </TTGlyph>
    <TTGlyph name="Lacute" xMin="15" yMin="0" xMax="669" yMax="855">
      <component glyphName="L" x="0" y="0" flags="0x1204"/>
      <component glyphName="acute" x="223" y="125" flags="0x1004"/>
    </TTGlyph>
    <TTGlyph name="Lcaron" xMin="15" yMin="0" xMax="669" yMax="874">
      <component glyphName="L" x="0" y="0" flags="0x1204"/>
      <component glyphName="quoteright" x="229" y="159" flags="0x1004"/>
    </TTGlyph>
    <TTGlyph name="Lcommaaccent" xMin="15" yMin="-353" xMax="669" yMax="635">
      <component glyphName="L" x="0" y="0" flags="0x1204"/>
      <component glyphName="commaaccent" x="104" y="0" flags="0x1004"/>
    </TTGlyph>
    <TTGlyph name="Ldot" xMin="15" yMin="0" xMax="669" yMax="635">
      <component glyphName="L" x="0" y="0" flags="0x1204"/>
      <component glyphName="periodcentered" x="228" y="0" flags="0x1004"/>
    </TTGlyph>
    <TTGlyph name="Lslash" xMin="-33" yMin="0" xMax="669" yMax="635">
      <contour>
        <pt x="39" y="8" on="1"/>
        <pt x="20" y="15" on="0"/>
        <pt x="10" y="33" on="0"/>
        <pt x="15" y="55" on="1"/>
        <pt x="27" y="118" on="0"/>
        <pt x="56" y="235" on="0"/>
        <pt x="69" y="295" on="1"/>
        <pt x="46" y="288" on="0"/>
        <pt x="-3" y="273" on="0"/>
        <pt x="-29" y="266" on="1"/>
        <pt x="-32" y="273" on="0"/>
        <pt x="-33" y="293" on="0"/>
        <pt x="-28" y="311" on="0"/>
        <pt x="-16" y="326" on="0"/>
        <pt x="-6" y="329" on="1"/>
        <pt x="5" y="331" on="0"/>
        <pt x="51" y="343" on="0"/>
        <pt x="81" y="351" on="1"/>
        <pt x="93" y="417" on="0"/>
        <pt x="106" y="551" on="0"/>
        <pt x="102" y="623" on="1"/>
        <pt x="111" y="640" on="0"/>
        <pt x="129" y="630" on="0"/>
        <pt x="142" y="601" on="0"/>
        <pt x="150" y="566" on="0"/>
        <pt x="150" y="559" on="1"/>
        <pt x="144" y="508" on="0"/>
        <pt x="134" y="412" on="0"/>
        <pt x="128" y="364" on="1"/>
        <pt x="164" y="373" on="0"/>
        <pt x="239" y="392" on="0"/>
        <pt x="301" y="405" on="0"/>
        <pt x="343" y="411" on="0"/>
        <pt x="347" y="408" on="1"/>
        <pt x="367" y="414" on="0"/>
        <pt x="376" y="400" on="0"/>
        <pt x="364" y="376" on="0"/>
        <pt x="339" y="351" on="0"/>
        <pt x="326" y="346" on="1"/>
        <pt x="262" y="341" on="0"/>
        <pt x="166" y="323" on="0"/>
        <pt x="122" y="311" on="1"/>
        <pt x="115" y="260" on="0"/>
        <pt x="97" y="157" on="0"/>
        <pt x="86" y="102" on="1"/>
        <pt x="80" y="72" on="0"/>
        <pt x="128" y="47" on="0"/>
        <pt x="197" y="41" on="0"/>
        <pt x="267" y="46" on="0"/>
        <pt x="284" y="47" on="1"/>
        <pt x="326" y="57" on="0"/>
        <pt x="413" y="61" on="0"/>
        <pt x="499" y="67" on="0"/>
        <pt x="583" y="86" on="0"/>
        <pt x="622" y="111" on="1"/>
        <pt x="630" y="116" on="0"/>
        <pt x="657" y="130" on="0"/>
        <pt x="669" y="126" on="1"/>
        <pt x="669" y="102" on="1"/>
        <pt x="665" y="98" on="0"/>
        <pt x="637" y="74" on="0"/>
        <pt x="603" y="43" on="0"/>
        <pt x="569" y="11" on="0"/>
        <pt x="559" y="0" on="1"/>
        <pt x="559" y="2" on="0"/>
        <pt x="553" y="8" on="0"/>
        <pt x="551" y="8" on="1"/>
        <pt x="499" y="15" on="0"/>
        <pt x="367" y="14" on="0"/>
        <pt x="233" y="7" on="0"/>
        <pt x="108" y="-1" on="0"/>
        <pt x="62" y="0" on="1"/>
        <pt x="59" y="1" on="0"/>
        <pt x="41" y="6" on="0"/>
      </contour>
    </TTGlyph>
    <TTGlyph name="M" xMin="16" yMin="4" xMax="952" yMax="782">
      <contour>
        <pt x="866" y="8" on="1"/>
        <pt x="864" y="10" on="0"/>
        <pt x="852" y="22" on="0"/>
        <pt x="850" y="24" on="1"/>
        <pt x="846" y="52" on="0"/>
        <pt x="850" y="130" on="0"/>
        <pt x="859" y="220" on="0"/>
        <pt x="871" y="316" on="0"/>
        <pt x="881" y="406" on="0"/>
        <pt x="885" y="486" on="0"/>
        <pt x="882" y="515" on="1"/>
        <pt x="877" y="560" on="0"/>
        <pt x="836" y="622" on="0"/>
        <pt x="776" y="655" on="0"/>
        <pt x="704" y="663" on="0"/>
        <pt x="631" y="646" on="0"/>
        <pt x="566" y="607" on="0"/>
        <pt x="543" y="578" on="1"/>
        <pt x="522" y="551" on="0"/>
        <pt x="492" y="472" on="0"/>
        <pt x="469" y="381" on="0"/>
        <pt x="453" y="282" on="0"/>
        <pt x="438" y="187" on="0"/>
        <pt x="425" y="102" on="0"/>
        <pt x="417" y="71" on="1"/>
        <pt x="417" y="69" on="0"/>
        <pt x="411" y="63" on="0"/>
        <pt x="410" y="63" on="1"/>
        <pt x="407" y="63" on="0"/>
        <pt x="396" y="62" on="0"/>
        <pt x="383" y="62" on="0"/>
        <pt x="372" y="63" on="0"/>
        <pt x="370" y="63" on="1"/>
        <pt x="364" y="68" on="0"/>
        <pt x="362" y="129" on="0"/>
        <pt x="366" y="216" on="0"/>
        <pt x="373" y="316" on="0"/>
        <pt x="381" y="406" on="0"/>
        <pt x="386" y="473" on="0"/>
        <pt x="386" y="483" on="1"/>
        <pt x="382" y="561" on="0"/>
        <pt x="329" y="654" on="0"/>
        <pt x="257" y="671" on="0"/>
        <pt x="179" y="607" on="0"/>
        <pt x="150" y="530" on="1"/>
        <pt x="139" y="503" on="0"/>
        <pt x="127" y="412" on="0"/>
        <pt x="118" y="307" on="0"/>
        <pt x="112" y="197" on="0"/>
        <pt x="99" y="100" on="0"/>
        <pt x="79" y="29" on="0"/>
        <pt x="62" y="15" on="1"/>
        <pt x="50" y="24" on="0"/>
        <pt x="36" y="50" on="0"/>
        <pt x="31" y="63" on="1"/>
        <pt x="31" y="71" on="1"/>
        <pt x="38" y="124" on="0"/>
        <pt x="49" y="273" on="0"/>
        <pt x="54" y="430" on="0"/>
        <pt x="52" y="579" on="0"/>
        <pt x="47" y="633" on="1"/>
        <pt x="46" y="646" on="0"/>
        <pt x="27" y="689" on="0"/>
        <pt x="14" y="732" on="0"/>
        <pt x="18" y="771" on="0"/>
        <pt x="39" y="782" on="1"/>
        <pt x="44" y="785" on="0"/>
        <pt x="47" y="782" on="1"/>
        <pt x="86" y="743" on="1"/>
        <pt x="84" y="724" on="0"/>
        <pt x="87" y="675" on="0"/>
        <pt x="92" y="624" on="0"/>
        <pt x="99" y="574" on="0"/>
        <pt x="102" y="554" on="1"/>
        <pt x="142" y="655" on="0"/>
        <pt x="241" y="725" on="0"/>
        <pt x="335" y="694" on="0"/>
        <pt x="414" y="578" on="0"/>
        <pt x="433" y="492" on="1"/>
        <pt x="452" y="502" on="0"/>
        <pt x="482" y="553" on="0"/>
        <pt x="517" y="613" on="0"/>
        <pt x="560" y="670" on="0"/>
        <pt x="591" y="688" on="1"/>
        <pt x="643" y="718" on="0"/>
        <pt x="750" y="715" on="0"/>
        <pt x="842" y="666" on="0"/>
        <pt x="909" y="578" on="0"/>
        <pt x="922" y="523" on="1"/>
        <pt x="927" y="500" on="0"/>
        <pt x="931" y="430" on="0"/>
        <pt x="931" y="348" on="0"/>
        <pt x="926" y="260" on="0"/>
        <pt x="919" y="179" on="0"/>
        <pt x="910" y="109" on="0"/>
        <pt x="905" y="87" on="1"/>
        <pt x="910" y="84" on="0"/>
        <pt x="920" y="90" on="0"/>
        <pt x="930" y="99" on="0"/>
        <pt x="943" y="106" on="0"/>
        <pt x="952" y="102" on="1"/>
        <pt x="956" y="89" on="0"/>
        <pt x="942" y="47" on="0"/>
        <pt x="916" y="12" on="0"/>
        <pt x="882" y="-4" on="0"/>
      </contour>
    </TTGlyph>
    <TTGlyph name="N" xMin="17" yMin="-1" xMax="829" yMax="815">
      <contour>
        <pt x="24" y="15" on="1"/>
        <pt x="17" y="24" on="0"/>
        <pt x="17" y="78" on="0"/>
        <pt x="25" y="149" on="0"/>
        <pt x="39" y="226" on="0"/>
        <pt x="52" y="291" on="0"/>
        <pt x="62" y="336" on="0"/>
        <pt x="63" y="339" on="1"/>
        <pt x="77" y="432" on="0"/>
        <pt x="102" y="600" on="0"/>
        <pt x="102" y="693" on="1"/>
        <pt x="134" y="712" on="0"/>
        <pt x="195" y="697" on="0"/>
        <pt x="250" y="657" on="0"/>
        <pt x="297" y="603" on="0"/>
        <pt x="315" y="583" on="1"/>
        <pt x="325" y="572" on="0"/>
        <pt x="365" y="526" on="0"/>
        <pt x="415" y="468" on="0"/>
        <pt x="470" y="405" on="0"/>
        <pt x="520" y="348" on="0"/>
        <pt x="558" y="302" on="0"/>
        <pt x="567" y="292" on="1"/>
        <pt x="573" y="285" on="0"/>
        <pt x="600" y="249" on="0"/>
        <pt x="630" y="209" on="0"/>
        <pt x="657" y="173" on="0"/>
        <pt x="662" y="166" on="1"/>
        <pt x="684" y="238" on="0"/>
        <pt x="698" y="395" on="0"/>
        <pt x="704" y="554" on="0"/>
        <pt x="714" y="712" on="0"/>
        <pt x="733" y="787" on="1"/>
        <pt x="738" y="809" on="0"/>
        <pt x="761" y="820" on="0"/>
        <pt x="787" y="809" on="0"/>
        <pt x="813" y="783" on="0"/>
        <pt x="828" y="754" on="0"/>
        <pt x="829" y="729" on="0"/>
        <pt x="819" y="725" on="1"/>
        <pt x="815" y="723" on="0"/>
        <pt x="791" y="723" on="0"/>
        <pt x="788" y="732" on="1"/>
        <pt x="780" y="725" on="1"/>
        <pt x="779" y="724" on="0"/>
        <pt x="773" y="696" on="0"/>
        <pt x="766" y="659" on="0"/>
        <pt x="759" y="619" on="0"/>
        <pt x="757" y="606" on="1"/>
        <pt x="746" y="541" on="0"/>
        <pt x="738" y="409" on="0"/>
        <pt x="733" y="277" on="0"/>
        <pt x="726" y="145" on="0"/>
        <pt x="717" y="79" on="1"/>
        <pt x="708" y="56" on="0"/>
        <pt x="683" y="57" on="0"/>
        <pt x="656" y="83" on="0"/>
        <pt x="628" y="127" on="0"/>
        <pt x="606" y="170" on="0"/>
        <pt x="592" y="203" on="0"/>
        <pt x="591" y="205" on="1"/>
        <pt x="503" y="316" on="0"/>
        <pt x="323" y="516" on="0"/>
        <pt x="221" y="614" on="1"/>
        <pt x="210" y="622" on="0"/>
        <pt x="180" y="642" on="0"/>
        <pt x="166" y="638" on="1"/>
        <pt x="165" y="635" on="0"/>
        <pt x="160" y="617" on="0"/>
        <pt x="155" y="597" on="0"/>
        <pt x="151" y="579" on="0"/>
        <pt x="150" y="575" on="1"/>
        <pt x="132" y="434" on="0"/>
        <pt x="99" y="157" on="0"/>
        <pt x="79" y="15" on="1"/>
        <pt x="63" y="0" on="0"/>
        <pt x="37" y="-2" on="0"/>
      </contour>
    </TTGlyph>
    <TTGlyph name="Nacute" xMin="17" yMin="-1" xMax="829" yMax="889">
      <component glyphName="N" x="0" y="0" flags="0x1204"/>
      <component glyphName="acute" x="222" y="159" flags="0x1004"/>
    </TTGlyph>
    <TTGlyph name="Ncaron" xMin="17" yMin="-1" xMax="829" yMax="872">
      <component glyphName="N" x="0" y="0" flags="0x1204"/>
      <component glyphName="caron" x="181" y="159" flags="0x1004"/>
    </TTGlyph>
    <TTGlyph name="Ncommaaccent" xMin="17" yMin="-353" xMax="829" yMax="815">
      <component glyphName="N" x="0" y="0" flags="0x1204"/>
      <component glyphName="commaaccent" x="183" y="0" flags="0x1004"/>
    </TTGlyph>
    <TTGlyph name="Ntilde" xMin="17" yMin="-1" xMax="829" yMax="885">
      <component glyphName="N" x="0" y="0" flags="0x1204"/>
      <component glyphName="tilde" x="42" y="160" flags="0x1004"/>
    </TTGlyph>
    <TTGlyph name="O" xMin="24" yMin="7" xMax="636" yMax="774">
      <contour>
        <pt x="173" y="8" on="1"/>
        <pt x="146" y="14" on="0"/>
        <pt x="97" y="42" on="0"/>
        <pt x="58" y="82" on="0"/>
        <pt x="30" y="131" on="0"/>
        <pt x="24" y="158" on="1"/>
        <pt x="21" y="222" on="0"/>
        <pt x="33" y="341" on="0"/>
        <pt x="60" y="456" on="0"/>
        <pt x="101" y="570" on="0"/>
        <pt x="126" y="630" on="1"/>
        <pt x="126" y="632" on="0"/>
        <pt x="132" y="638" on="0"/>
        <pt x="134" y="638" on="1"/>
        <pt x="139" y="639" on="0"/>
        <pt x="169" y="639" on="0"/>
        <pt x="173" y="638" on="1"/>
        <pt x="178" y="600" on="0"/>
        <pt x="148" y="505" on="0"/>
        <pt x="105" y="403" on="0"/>
        <pt x="63" y="296" on="0"/>
        <pt x="51" y="198" on="0"/>
        <pt x="83" y="111" on="0"/>
        <pt x="134" y="79" on="1"/>
        <pt x="164" y="60" on="0"/>
        <pt x="238" y="48" on="0"/>
        <pt x="313" y="58" on="0"/>
        <pt x="383" y="88" on="0"/>
        <pt x="410" y="111" on="1"/>
        <pt x="484" y="174" on="0"/>
        <pt x="561" y="307" on="0"/>
        <pt x="582" y="437" on="0"/>
        <pt x="557" y="555" on="0"/>
        <pt x="499" y="650" on="0"/>
        <pt x="419" y="715" on="0"/>
        <pt x="330" y="736" on="0"/>
        <pt x="241" y="708" on="0"/>
        <pt x="205" y="662" on="1"/>
        <pt x="190" y="654" on="0"/>
        <pt x="185" y="663" on="0"/>
        <pt x="198" y="685" on="0"/>
        <pt x="225" y="715" on="0"/>
        <pt x="258" y="745" on="0"/>
        <pt x="292" y="768" on="0"/>
        <pt x="307" y="772" on="1"/>
        <pt x="324" y="776" on="0"/>
        <pt x="366" y="771" on="0"/>
        <pt x="407" y="757" on="0"/>
        <pt x="445" y="737" on="0"/>
        <pt x="457" y="725" on="1"/>
        <pt x="476" y="707" on="0"/>
        <pt x="518" y="668" on="0"/>
        <pt x="559" y="625" on="0"/>
        <pt x="594" y="577" on="0"/>
        <pt x="606" y="551" on="1"/>
        <pt x="636" y="485" on="0"/>
        <pt x="636" y="344" on="0"/>
        <pt x="587" y="212" on="0"/>
        <pt x="498" y="100" on="0"/>
        <pt x="381" y="23" on="0"/>
        <pt x="244" y="-8" on="0"/>
      </contour>
    </TTGlyph>
    <TTGlyph name="OE" xMin="35" yMin="-28" xMax="1327" yMax="763">
      <component glyphName="O" x="11" y="-35" flags="0x1004"/>
      <component glyphName="E" x="537" y="0" flags="0x1004"/>
    </TTGlyph>
    <TTGlyph name="Oacute" xMin="24" yMin="7" xMax="636" yMax="911">
      <component glyphName="O" x="0" y="0" flags="0x1204"/>
      <component glyphName="acute" x="124" y="181" flags="0x1004"/>
    </TTGlyph>
    <TTGlyph name="Obreve" xMin="24" yMin="7" xMax="636" yMax="904">
      <component glyphName="O" x="0" y="0" flags="0x1204"/>
      <component glyphName="breve" x="204" y="252" flags="0x1004"/>
    </TTGlyph>
    <TTGlyph name="Ocircumflex" xMin="24" yMin="7" xMax="636" yMax="1020">
      <component glyphName="O" x="0" y="0" flags="0x1204"/>
      <component glyphName="circumflex" x="107" y="207" flags="0x1004"/>
    </TTGlyph>
    <TTGlyph name="Odieresis" xMin="24" yMin="7" xMax="636" yMax="928">
      <component glyphName="O" x="0" y="0" flags="0x1204"/>
      <component glyphName="dieresis" x="99" y="214" flags="0x1004"/>
    </TTGlyph>
    <TTGlyph name="Ograve" xMin="24" yMin="7" xMax="636" yMax="965">
      <component glyphName="O" x="0" y="0" flags="0x1204"/>
      <component glyphName="grave" x="254" y="208" flags="0x1004"/>
    </TTGlyph>
    <TTGlyph name="Ohungarumlaut" xMin="24" yMin="7" xMax="636" yMax="953">
      <component glyphName="O" x="0" y="0" flags="0x1204"/>
      <component glyphName="hungarumlaut" x="16" y="179" flags="0x1004"/>
    </TTGlyph>
    <TTGlyph name="Omacron" xMin="24" yMin="7" xMax="636" yMax="895">
      <component glyphName="O" x="0" y="0" flags="0x1204"/>
      <component glyphName="macron" x="115" y="333" flags="0x1004"/>
    </TTGlyph>
    <TTGlyph name="Oslash" xMin="24" yMin="5" xMax="636" yMax="774">
      <component glyphName="O" x="0" y="0" flags="0x1204"/>
      <component glyphName="slash" x="112" y="0" flags="0x1004"/>
    </TTGlyph>
    <TTGlyph name="Oslashacute" xMin="24" yMin="5" xMax="636" yMax="933">
      <component glyphName="O" x="0" y="0" flags="0x1204"/>
      <component glyphName="slash" x="111" y="0" flags="0x1004"/>
      <component glyphName="acute" x="146" y="203" flags="0x1004"/>
    </TTGlyph>
    <TTGlyph name="Otilde" xMin="24" yMin="7" xMax="636" yMax="916">
      <component glyphName="O" x="0" y="0" flags="0x1204"/>
      <component glyphName="tilde" x="-41" y="191" flags="0x1004"/>
    </TTGlyph>
    <TTGlyph name="P" xMin="34" yMin="-68" xMax="533" yMax="805">
      <contour>
        <pt x="143" y="-41" on="1"/>
        <pt x="132" y="33" on="0"/>
        <pt x="117" y="147" on="0"/>
        <pt x="104" y="244" on="0"/>
        <pt x="91" y="332" on="0"/>
        <pt x="74" y="427" on="0"/>
        <pt x="51" y="539" on="0"/>
        <pt x="34" y="612" on="1"/>
        <pt x="26" y="656" on="0"/>
        <pt x="69" y="729" on="0"/>
        <pt x="146" y="779" on="0"/>
        <pt x="249" y="806" on="0"/>
        <pt x="354" y="804" on="0"/>
        <pt x="451" y="771" on="0"/>
        <pt x="519" y="701" on="0"/>
        <pt x="546" y="594" on="0"/>
        <pt x="529" y="518" on="1"/>
        <pt x="507" y="445" on="0"/>
        <pt x="456" y="359" on="0"/>
        <pt x="377" y="310" on="0"/>
        <pt x="258" y="289" on="0"/>
        <pt x="167" y="282" on="1"/>
        <pt x="135" y="298" on="1"/>
        <pt x="135" y="290" on="1"/>
        <pt x="137" y="278" on="0"/>
        <pt x="146" y="217" on="0"/>
        <pt x="156" y="150" on="0"/>
        <pt x="165" y="89" on="0"/>
        <pt x="167" y="77" on="1"/>
        <pt x="170" y="70" on="0"/>
        <pt x="177" y="33" on="0"/>
        <pt x="181" y="-10" on="0"/>
        <pt x="181" y="-50" on="0"/>
        <pt x="174" y="-71" on="0"/>
        <pt x="158" y="-65" on="0"/>
      </contour>
      <contour>
        <pt x="121" y="375" on="1"/>
        <pt x="123" y="358" on="0"/>
        <pt x="126" y="347" on="0"/>
        <pt x="129" y="341" on="0"/>
        <pt x="133" y="329" on="0"/>
        <pt x="135" y="313" on="1"/>
        <pt x="153" y="332" on="0"/>
        <pt x="199" y="337" on="0"/>
        <pt x="252" y="333" on="0"/>
        <pt x="310" y="331" on="0"/>
        <pt x="370" y="352" on="0"/>
        <pt x="430" y="407" on="0"/>
        <pt x="458" y="463" on="1"/>
        <pt x="490" y="526" on="0"/>
        <pt x="499" y="623" on="0"/>
        <pt x="470" y="693" on="0"/>
        <pt x="409" y="735" on="0"/>
        <pt x="333" y="754" on="0"/>
        <pt x="248" y="750" on="0"/>
        <pt x="170" y="726" on="0"/>
        <pt x="107" y="682" on="0"/>
        <pt x="90" y="651" on="1"/>
        <pt x="87" y="647" on="0"/>
        <pt x="90" y="606" on="0"/>
        <pt x="96" y="549" on="0"/>
        <pt x="105" y="483" on="0"/>
        <pt x="114" y="424" on="0"/>
        <pt x="120" y="381" on="0"/>
      </contour>
    </TTGlyph>
    <TTGlyph name="Q" xMin="-10" yMin="-130" xMax="601" yMax="776">
      <contour>
        <pt x="520" y="-118" on="1"/>
        <pt x="497" y="-97" on="0"/>
        <pt x="459" y="-51" on="0"/>
        <pt x="423" y="-4" on="0"/>
        <pt x="385" y="42" on="0"/>
        <pt x="362" y="63" on="1"/>
        <pt x="355" y="66" on="0"/>
        <pt x="305" y="56" on="0"/>
        <pt x="246" y="43" on="0"/>
        <pt x="192" y="31" on="0"/>
        <pt x="181" y="32" on="1"/>
        <pt x="129" y="25" on="0"/>
        <pt x="57" y="89" on="0"/>
        <pt x="12" y="203" on="0"/>
        <pt x="-9" y="351" on="0"/>
        <pt x="-10" y="503" on="0"/>
        <pt x="8" y="646" on="0"/>
        <pt x="38" y="748" on="0"/>
        <pt x="80" y="795" on="0"/>
        <pt x="105" y="776" on="1"/>
        <pt x="105" y="775" on="0"/>
        <pt x="90" y="702" on="0"/>
        <pt x="70" y="586" on="0"/>
        <pt x="53" y="442" on="0"/>
        <pt x="50" y="298" on="0"/>
        <pt x="69" y="170" on="0"/>
        <pt x="121" y="87" on="0"/>
        <pt x="212" y="62" on="0"/>
        <pt x="284" y="94" on="1"/>
        <pt x="284" y="94" on="0"/>
        <pt x="295" y="99" on="0"/>
        <pt x="308" y="106" on="0"/>
        <pt x="321" y="114" on="0"/>
        <pt x="323" y="118" on="1"/>
        <pt x="326" y="123" on="0"/>
        <pt x="323" y="126" on="1"/>
        <pt x="313" y="138" on="0"/>
        <pt x="279" y="187" on="0"/>
        <pt x="244" y="250" on="0"/>
        <pt x="211" y="319" on="0"/>
        <pt x="190" y="385" on="0"/>
        <pt x="186" y="440" on="0"/>
        <pt x="197" y="457" on="1"/>
        <pt x="205" y="469" on="0"/>
        <pt x="222" y="452" on="0"/>
        <pt x="239" y="413" on="0"/>
        <pt x="255" y="359" on="0"/>
        <pt x="270" y="307" on="0"/>
        <pt x="281" y="266" on="0"/>
        <pt x="284" y="260" on="1"/>
        <pt x="287" y="254" on="0"/>
        <pt x="304" y="222" on="0"/>
        <pt x="324" y="187" on="0"/>
        <pt x="342" y="156" on="0"/>
        <pt x="346" y="150" on="1"/>
        <pt x="371" y="142" on="0"/>
        <pt x="415" y="183" on="0"/>
        <pt x="445" y="263" on="0"/>
        <pt x="458" y="369" on="0"/>
        <pt x="446" y="481" on="0"/>
        <pt x="406" y="588" on="0"/>
        <pt x="331" y="668" on="0"/>
        <pt x="216" y="711" on="0"/>
        <pt x="135" y="704" on="1"/>
        <pt x="134" y="707" on="0"/>
        <pt x="134" y="718" on="0"/>
        <pt x="137" y="730" on="0"/>
        <pt x="141" y="740" on="0"/>
        <pt x="143" y="741" on="1"/>
        <pt x="208" y="749" on="0"/>
        <pt x="329" y="703" on="0"/>
        <pt x="426" y="617" on="0"/>
        <pt x="494" y="500" on="0"/>
        <pt x="520" y="372" on="0"/>
        <pt x="498" y="244" on="0"/>
        <pt x="457" y="189" on="1"/>
        <pt x="456" y="188" on="0"/>
        <pt x="437" y="164" on="0"/>
        <pt x="415" y="133" on="0"/>
        <pt x="398" y="99" on="0"/>
        <pt x="401" y="87" on="1"/>
        <pt x="409" y="79" on="0"/>
        <pt x="441" y="35" on="0"/>
        <pt x="480" y="-13" on="0"/>
        <pt x="520" y="-55" on="0"/>
        <pt x="550" y="-68" on="0"/>
        <pt x="564" y="-43" on="0"/>
        <pt x="559" y="0" on="1"/>
        <pt x="579" y="5" on="0"/>
        <pt x="599" y="-18" on="0"/>
        <pt x="602" y="-55" on="0"/>
        <pt x="590" y="-97" on="0"/>
        <pt x="568" y="-126" on="0"/>
        <pt x="538" y="-134" on="0"/>
      </contour>
    </TTGlyph>
    <TTGlyph name="R" xMin="45" yMin="-45" xMax="708" yMax="792">
      <contour>
        <pt x="126" y="8" on="1"/>
        <pt x="124" y="9" on="0"/>
        <pt x="118" y="21" on="0"/>
        <pt x="118" y="24" on="1"/>
        <pt x="107" y="100" on="0"/>
        <pt x="102" y="208" on="0"/>
        <pt x="102" y="297" on="0"/>
        <pt x="102" y="379" on="0"/>
        <pt x="93" y="480" on="0"/>
        <pt x="69" y="613" on="0"/>
        <pt x="45" y="709" on="1"/>
        <pt x="42" y="716" on="0"/>
        <pt x="56" y="735" on="0"/>
        <pt x="78" y="741" on="0"/>
        <pt x="102" y="724" on="0"/>
        <pt x="108" y="694" on="1"/>
        <pt x="109" y="689" on="0"/>
        <pt x="114" y="664" on="0"/>
        <pt x="118" y="636" on="0"/>
        <pt x="122" y="612" on="0"/>
        <pt x="123" y="607" on="1"/>
        <pt x="132" y="607" on="1"/>
        <pt x="187" y="701" on="0"/>
        <pt x="283" y="786" on="0"/>
        <pt x="360" y="797" on="0"/>
        <pt x="412" y="746" on="0"/>
        <pt x="433" y="661" on="0"/>
        <pt x="417" y="554" on="0"/>
        <pt x="357" y="453" on="0"/>
        <pt x="250" y="370" on="0"/>
        <pt x="168" y="352" on="1"/>
        <pt x="168" y="344" on="1"/>
        <pt x="203" y="329" on="0"/>
        <pt x="274" y="269" on="0"/>
        <pt x="346" y="196" on="0"/>
        <pt x="418" y="122" on="0"/>
        <pt x="492" y="63" on="0"/>
        <pt x="568" y="30" on="0"/>
        <pt x="607" y="35" on="1"/>
        <pt x="609" y="35" on="0"/>
        <pt x="633" y="61" on="0"/>
        <pt x="663" y="93" on="0"/>
        <pt x="692" y="120" on="0"/>
        <pt x="709" y="124" on="0"/>
        <pt x="706" y="93" on="0"/>
        <pt x="689" y="50" on="1"/>
        <pt x="669" y="-5" on="0"/>
        <pt x="612" y="-48" on="0"/>
        <pt x="544" y="-42" on="0"/>
        <pt x="468" y="3" on="0"/>
        <pt x="390" y="69" on="0"/>
        <pt x="314" y="147" on="0"/>
        <pt x="245" y="219" on="0"/>
        <pt x="188" y="277" on="0"/>
        <pt x="168" y="289" on="1"/>
        <pt x="165" y="8" on="1"/>
        <pt x="165" y="2" on="0"/>
        <pt x="154" y="-1" on="0"/>
        <pt x="150" y="0" on="1"/>
        <pt x="145" y="2" on="0"/>
        <pt x="128" y="7" on="0"/>
      </contour>
      <contour>
        <pt x="153" y="407" on="1"/>
        <pt x="199" y="417" on="0"/>
        <pt x="283" y="479" on="0"/>
        <pt x="348" y="559" on="0"/>
        <pt x="390" y="645" on="0"/>
        <pt x="398" y="712" on="0"/>
        <pt x="367" y="750" on="0"/>
        <pt x="328" y="741" on="1"/>
        <pt x="297" y="734" on="0"/>
        <pt x="249" y="703" on="0"/>
        <pt x="212" y="661" on="0"/>
        <pt x="183" y="610" on="0"/>
        <pt x="171" y="583" on="1"/>
        <pt x="163" y="551" on="0"/>
        <pt x="151" y="507" on="0"/>
        <pt x="145" y="469" on="0"/>
        <pt x="147" y="432" on="0"/>
      </contour>
    </TTGlyph>
    <TTGlyph name="Racute" xMin="45" yMin="-45" xMax="708" yMax="906">
      <component glyphName="R" x="0" y="0" flags="0x1204"/>
      <component glyphName="acute" x="94" y="176" flags="0x1004"/>
    </TTGlyph>
    <TTGlyph name="Rcaron" xMin="35" yMin="-45" xMax="708" yMax="912">
      <component glyphName="R" x="0" y="0" flags="0x1204"/>
      <component glyphName="caron" x="-55" y="199" flags="0x1004"/>
    </TTGlyph>
    <TTGlyph name="Rcommaaccent" xMin="45" yMin="-353" xMax="708" yMax="792">
      <component glyphName="R" x="0" y="0" flags="0x1204"/>
      <component glyphName="commaaccent" x="75" y="0" flags="0x1004"/>
    </TTGlyph>
    <TTGlyph name="S" xMin="68" yMin="0" xMax="474" yMax="774">
      <contour>
        <pt x="291" y="8" on="1"/>
        <pt x="271" y="13" on="0"/>
        <pt x="217" y="47" on="0"/>
        <pt x="164" y="95" on="0"/>
        <pt x="119" y="152" on="0"/>
        <pt x="97" y="209" on="0"/>
        <pt x="106" y="263" on="0"/>
        <pt x="133" y="284" on="1"/>
        <pt x="137" y="287" on="0"/>
        <pt x="162" y="297" on="0"/>
        <pt x="187" y="301" on="0"/>
        <pt x="202" y="291" on="0"/>
        <pt x="197" y="275" on="1"/>
        <pt x="162" y="260" on="0"/>
        <pt x="144" y="212" on="0"/>
        <pt x="163" y="158" on="0"/>
        <pt x="210" y="104" on="0"/>
        <pt x="270" y="61" on="0"/>
        <pt x="335" y="33" on="0"/>
        <pt x="391" y="33" on="0"/>
        <pt x="430" y="64" on="0"/>
        <pt x="433" y="102" on="1"/>
        <pt x="436" y="151" on="0"/>
        <pt x="417" y="243" on="0"/>
        <pt x="386" y="284" on="1"/>
        <pt x="360" y="317" on="0"/>
        <pt x="305" y="359" on="0"/>
        <pt x="250" y="391" on="0"/>
        <pt x="195" y="419" on="0"/>
        <pt x="144" y="456" on="0"/>
        <pt x="100" y="507" on="0"/>
        <pt x="82" y="546" on="1"/>
        <pt x="59" y="597" on="0"/>
        <pt x="78" y="686" on="0"/>
        <pt x="139" y="749" on="0"/>
        <pt x="230" y="780" on="0"/>
        <pt x="279" y="774" on="1"/>
        <pt x="309" y="770" on="0"/>
        <pt x="359" y="732" on="0"/>
        <pt x="392" y="681" on="0"/>
        <pt x="404" y="625" on="0"/>
        <pt x="388" y="582" on="0"/>
        <pt x="339" y="561" on="0"/>
        <pt x="295" y="569" on="1"/>
        <pt x="290" y="586" on="0"/>
        <pt x="308" y="604" on="0"/>
        <pt x="332" y="619" on="0"/>
        <pt x="352" y="634" on="0"/>
        <pt x="350" y="648" on="1"/>
        <pt x="342" y="697" on="0"/>
        <pt x="284" y="740" on="0"/>
        <pt x="213" y="739" on="0"/>
        <pt x="145" y="700" on="0"/>
        <pt x="108" y="634" on="0"/>
        <pt x="118" y="547" on="0"/>
        <pt x="161" y="498" on="1"/>
        <pt x="193" y="461" on="0"/>
        <pt x="251" y="424" on="0"/>
        <pt x="308" y="395" on="0"/>
        <pt x="368" y="359" on="0"/>
        <pt x="401" y="323" on="1"/>
        <pt x="429" y="292" on="0"/>
        <pt x="467" y="213" on="0"/>
        <pt x="480" y="132" on="0"/>
        <pt x="467" y="59" on="0"/>
        <pt x="424" y="9" on="0"/>
        <pt x="348" y="-8" on="0"/>
      </contour>
    </TTGlyph>
    <TTGlyph name="Sacute" xMin="68" yMin="0" xMax="474" yMax="912">
      <component glyphName="S" x="0" y="0" flags="0x1204"/>
      <component glyphName="acute" x="45" y="182" flags="0x1004"/>
    </TTGlyph>
    <TTGlyph name="Scaron" xMin="68" yMin="0" xMax="474" yMax="922">
      <contour>
        <pt x="116" y="916" on="1"/>
        <pt x="144" y="924" on="0"/>
        <pt x="187" y="902" on="0"/>
        <pt x="222" y="871" on="0"/>
        <pt x="254" y="845" on="0"/>
        <pt x="273" y="849" on="1"/>
        <pt x="278" y="855" on="0"/>
        <pt x="310" y="881" on="0"/>
        <pt x="351" y="907" on="0"/>
        <pt x="393" y="925" on="0"/>
        <pt x="408" y="922" on="1"/>
        <pt x="424" y="918" on="0"/>
        <pt x="401" y="885" on="0"/>
        <pt x="351" y="846" on="0"/>
        <pt x="292" y="811" on="0"/>
        <pt x="273" y="806" on="1"/>
        <pt x="265" y="806" on="1"/>
        <pt x="249" y="811" on="0"/>
        <pt x="231" y="825" on="0"/>
        <pt x="223" y="830" on="1"/>
        <pt x="216" y="834" on="0"/>
        <pt x="173" y="859" on="0"/>
        <pt x="126" y="885" on="0"/>
        <pt x="90" y="906" on="0"/>
        <pt x="91" y="906" on="1"/>
        <pt x="94" y="908" on="0"/>
        <pt x="114" y="915" on="0"/>
      </contour>
      <contour>
        <pt x="291" y="8" on="1"/>
        <pt x="348" y="-8" on="0"/>
        <pt x="424" y="9" on="0"/>
        <pt x="467" y="59" on="0"/>
        <pt x="480" y="132" on="0"/>
        <pt x="467" y="213" on="0"/>
        <pt x="429" y="292" on="0"/>
        <pt x="401" y="323" on="1"/>
        <pt x="368" y="359" on="0"/>
        <pt x="308" y="395" on="0"/>
        <pt x="251" y="424" on="0"/>
        <pt x="193" y="461" on="0"/>
        <pt x="161" y="498" on="1"/>
        <pt x="118" y="547" on="0"/>
        <pt x="108" y="634" on="0"/>
        <pt x="145" y="700" on="0"/>
        <pt x="213" y="739" on="0"/>
        <pt x="284" y="740" on="0"/>
        <pt x="342" y="697" on="0"/>
        <pt x="350" y="648" on="1"/>
        <pt x="352" y="634" on="0"/>
        <pt x="332" y="619" on="0"/>
        <pt x="308" y="604" on="0"/>
        <pt x="290" y="586" on="0"/>
        <pt x="295" y="569" on="1"/>
        <pt x="339" y="561" on="0"/>
        <pt x="388" y="582" on="0"/>
        <pt x="404" y="625" on="0"/>
        <pt x="392" y="681" on="0"/>
        <pt x="359" y="732" on="0"/>
        <pt x="309" y="770" on="0"/>
        <pt x="279" y="774" on="1"/>
        <pt x="230" y="780" on="0"/>
        <pt x="139" y="749" on="0"/>
        <pt x="78" y="686" on="0"/>
        <pt x="59" y="597" on="0"/>
        <pt x="82" y="546" on="1"/>
        <pt x="100" y="507" on="0"/>
        <pt x="144" y="456" on="0"/>
        <pt x="195" y="419" on="0"/>
        <pt x="250" y="391" on="0"/>
        <pt x="305" y="359" on="0"/>
        <pt x="360" y="317" on="0"/>
        <pt x="386" y="284" on="1"/>
        <pt x="417" y="243" on="0"/>
        <pt x="436" y="151" on="0"/>
        <pt x="433" y="102" on="1"/>
        <pt x="430" y="64" on="0"/>
        <pt x="391" y="33" on="0"/>
        <pt x="335" y="33" on="0"/>
        <pt x="270" y="61" on="0"/>
        <pt x="210" y="104" on="0"/>
        <pt x="163" y="158" on="0"/>
        <pt x="144" y="212" on="0"/>
        <pt x="162" y="260" on="0"/>
        <pt x="197" y="275" on="1"/>
        <pt x="202" y="291" on="0"/>
        <pt x="187" y="301" on="0"/>
        <pt x="162" y="297" on="0"/>
        <pt x="137" y="287" on="0"/>
        <pt x="133" y="284" on="1"/>
        <pt x="106" y="263" on="0"/>
        <pt x="97" y="209" on="0"/>
        <pt x="119" y="152" on="0"/>
        <pt x="164" y="95" on="0"/>
        <pt x="217" y="47" on="0"/>
        <pt x="271" y="13" on="0"/>
      </contour>
    </TTGlyph>
    <TTGlyph name="Scedilla" xMin="68" yMin="-330" xMax="474" yMax="774">
      <component glyphName="S" x="0" y="0" flags="0x1204"/>
      <component glyphName="cedilla" x="30" y="24" flags="0x1004"/>
    </TTGlyph>
    <TTGlyph name="Scircumflex" xMin="75" yMin="-40" xMax="481" yMax="972">
      <component glyphName="S" x="7" y="-40" flags="0x1204"/>
      <component glyphName="circumflex" x="35" y="159" flags="0x1004"/>
    </TTGlyph>
    <TTGlyph name="Scommaaccent" xMin="68" yMin="-353" xMax="474" yMax="774">
      <component glyphName="S" x="0" y="0" flags="0x1204"/>
      <component glyphName="commaaccent" x="75" y="0" flags="0x1004"/>
    </TTGlyph>
    <TTGlyph name="T" xMin="21" yMin="-2" xMax="846" yMax="762">
      <contour>
        <pt x="402" y="15" on="1"/>
        <pt x="393" y="31" on="0"/>
        <pt x="385" y="69" on="0"/>
        <pt x="384" y="109" on="0"/>
        <pt x="390" y="148" on="0"/>
        <pt x="394" y="166" on="1"/>
        <pt x="395" y="226" on="0"/>
        <pt x="404" y="355" on="0"/>
        <pt x="405" y="487" on="0"/>
        <pt x="388" y="618" on="0"/>
        <pt x="364" y="681" on="1"/>
        <pt x="332" y="685" on="0"/>
        <pt x="254" y="674" on="0"/>
        <pt x="174" y="654" on="0"/>
        <pt x="100" y="633" on="0"/>
        <pt x="73" y="626" on="1"/>
        <pt x="66" y="616" on="0"/>
        <pt x="43" y="617" on="0"/>
        <pt x="25" y="631" on="0"/>
        <pt x="18" y="653" on="0"/>
        <pt x="26" y="665" on="1"/>
        <pt x="43" y="671" on="0"/>
        <pt x="145" y="693" on="0"/>
        <pt x="284" y="718" on="0"/>
        <pt x="446" y="742" on="0"/>
        <pt x="604" y="759" on="0"/>
        <pt x="742" y="765" on="0"/>
        <pt x="832" y="753" on="0"/>
        <pt x="860" y="719" on="0"/>
        <pt x="829" y="688" on="1"/>
        <pt x="822" y="688" on="1"/>
        <pt x="818" y="690" on="0"/>
        <pt x="793" y="702" on="0"/>
        <pt x="790" y="705" on="1"/>
        <pt x="696" y="707" on="0"/>
        <pt x="512" y="705" on="0"/>
        <pt x="420" y="688" on="1"/>
        <pt x="420" y="686" on="0"/>
        <pt x="423" y="667" on="0"/>
        <pt x="427" y="644" on="0"/>
        <pt x="430" y="624" on="0"/>
        <pt x="430" y="622" on="1"/>
        <pt x="438" y="536" on="0"/>
        <pt x="444" y="388" on="0"/>
        <pt x="445" y="244" on="0"/>
        <pt x="442" y="95" on="0"/>
        <pt x="441" y="8" on="1"/>
        <pt x="438" y="0" on="0"/>
        <pt x="427" y="-3" on="0"/>
        <pt x="415" y="2" on="0"/>
        <pt x="404" y="12" on="0"/>
      </contour>
    </TTGlyph>
    <TTGlyph name="T_h" xMin="21" yMin="-3" xMax="1058" yMax="762">
      <component glyphName="T" x="0" y="0" flags="0x1004"/>
      <component glyphName="h" x="536" y="-7" flags="0x1004"/>
    </TTGlyph>
    <TTGlyph name="Tcaron" xMin="21" yMin="-2" xMax="846" yMax="908">
      <component glyphName="T" x="0" y="0" flags="0x1204"/>
      <component glyphName="caron" x="114" y="195" flags="0x1004"/>
    </TTGlyph>
    <TTGlyph name="Tcommaaccent" xMin="21" yMin="-376" xMax="846" yMax="762">
      <component glyphName="T" x="0" y="0" flags="0x1204"/>
      <component glyphName="commaaccent" x="249" y="-23" flags="0x1004"/>
    </TTGlyph>
    <TTGlyph name="Thorn" xMin="32" yMin="-9" xMax="436" yMax="863">
      <contour>
        <pt x="82" y="-9" on="1"/>
        <pt x="73" y="-4" on="0"/>
        <pt x="60" y="24" on="0"/>
        <pt x="58" y="30" on="1"/>
        <pt x="59" y="113" on="0"/>
        <pt x="51" y="292" on="0"/>
        <pt x="42" y="478" on="0"/>
        <pt x="37" y="667" on="0"/>
        <pt x="42" y="760" on="1"/>
        <pt x="39" y="776" on="0"/>
        <pt x="30" y="827" on="0"/>
        <pt x="34" y="862" on="0"/>
        <pt x="55" y="863" on="0"/>
        <pt x="82" y="830" on="1"/>
        <pt x="91" y="802" on="0"/>
        <pt x="91" y="708" on="0"/>
        <pt x="85" y="607" on="0"/>
        <pt x="77" y="517" on="0"/>
        <pt x="77" y="493" on="1"/>
        <pt x="82" y="515" on="0"/>
        <pt x="102" y="569" on="0"/>
        <pt x="133" y="617" on="0"/>
        <pt x="175" y="653" on="0"/>
        <pt x="203" y="657" on="1"/>
        <pt x="269" y="667" on="0"/>
        <pt x="364" y="618" on="0"/>
        <pt x="421" y="528" on="0"/>
        <pt x="443" y="410" on="0"/>
        <pt x="429" y="292" on="0"/>
        <pt x="381" y="190" on="0"/>
        <pt x="301" y="130" on="0"/>
        <pt x="188" y="128" on="0"/>
        <pt x="116" y="169" on="1"/>
        <pt x="116" y="161" on="0"/>
        <pt x="114" y="125" on="0"/>
        <pt x="112" y="82" on="0"/>
        <pt x="108" y="37" on="0"/>
        <pt x="101" y="3" on="0"/>
        <pt x="90" y="-15" on="0"/>
      </contour>
      <contour>
        <pt x="186" y="193" on="1"/>
        <pt x="234" y="174" on="0"/>
        <pt x="323" y="199" on="0"/>
        <pt x="352" y="240" on="1"/>
        <pt x="391" y="294" on="0"/>
        <pt x="410" y="405" on="0"/>
        <pt x="387" y="503" on="0"/>
        <pt x="333" y="578" on="0"/>
        <pt x="266" y="613" on="0"/>
        <pt x="194" y="600" on="0"/>
        <pt x="137" y="520" on="0"/>
        <pt x="103" y="364" on="0"/>
        <pt x="108" y="240" on="1"/>
      </contour>
    </TTGlyph>
    <TTGlyph name="U" xMin="23" yMin="1" xMax="804" yMax="632">
      <contour>
        <pt x="102" y="8" on="1"/>
        <pt x="86" y="18" on="0"/>
        <pt x="71" y="67" on="0"/>
        <pt x="65" y="122" on="0"/>
        <pt x="63" y="174" on="0"/>
        <pt x="62" y="189" on="1"/>
        <pt x="59" y="249" on="0"/>
        <pt x="52" y="348" on="0"/>
        <pt x="42" y="440" on="0"/>
        <pt x="30" y="531" on="0"/>
        <pt x="24" y="583" on="1"/>
        <pt x="24" y="585" on="0"/>
        <pt x="23" y="596" on="0"/>
        <pt x="23" y="609" on="0"/>
        <pt x="24" y="620" on="0"/>
        <pt x="24" y="623" on="1"/>
        <pt x="34" y="637" on="0"/>
        <pt x="54" y="626" on="0"/>
        <pt x="69" y="601" on="0"/>
        <pt x="79" y="571" on="0"/>
        <pt x="79" y="567" on="1"/>
        <pt x="102" y="150" on="1"/>
        <pt x="105" y="101" on="0"/>
        <pt x="128" y="64" on="0"/>
        <pt x="162" y="70" on="0"/>
        <pt x="204" y="110" on="0"/>
        <pt x="247" y="169" on="0"/>
        <pt x="288" y="237" on="0"/>
        <pt x="322" y="297" on="0"/>
        <pt x="344" y="341" on="0"/>
        <pt x="346" y="346" on="1"/>
        <pt x="351" y="357" on="0"/>
        <pt x="374" y="411" on="0"/>
        <pt x="399" y="471" on="0"/>
        <pt x="421" y="525" on="0"/>
        <pt x="425" y="536" on="1"/>
        <pt x="426" y="540" on="0"/>
        <pt x="433" y="567" on="0"/>
        <pt x="443" y="597" on="0"/>
        <pt x="456" y="624" on="0"/>
        <pt x="471" y="631" on="0"/>
        <pt x="488" y="613" on="0"/>
        <pt x="497" y="583" on="1"/>
        <pt x="495" y="556" on="0"/>
        <pt x="496" y="457" on="0"/>
        <pt x="508" y="340" on="0"/>
        <pt x="534" y="221" on="0"/>
        <pt x="581" y="127" on="0"/>
        <pt x="651" y="72" on="0"/>
        <pt x="701" y="79" on="1"/>
        <pt x="714" y="81" on="0"/>
        <pt x="737" y="104" on="0"/>
        <pt x="760" y="127" on="0"/>
        <pt x="786" y="141" on="0"/>
        <pt x="804" y="134" on="1"/>
        <pt x="808" y="88" on="0"/>
        <pt x="767" y="31" on="0"/>
        <pt x="700" y="11" on="0"/>
        <pt x="622" y="28" on="0"/>
        <pt x="591" y="55" on="1"/>
        <pt x="552" y="88" on="0"/>
        <pt x="506" y="185" on="0"/>
        <pt x="478" y="294" on="0"/>
        <pt x="463" y="404" on="0"/>
        <pt x="457" y="449" on="1"/>
        <pt x="449" y="465" on="1"/>
        <pt x="447" y="461" on="0"/>
        <pt x="427" y="410" on="0"/>
        <pt x="393" y="334" on="0"/>
        <pt x="349" y="241" on="0"/>
        <pt x="297" y="149" on="0"/>
        <pt x="240" y="66" on="0"/>
        <pt x="183" y="11" on="0"/>
        <pt x="127" y="-9" on="0"/>
      </contour>
    </TTGlyph>
    <TTGlyph name="Uacute" xMin="23" yMin="1" xMax="804" yMax="890">
      <component glyphName="U" x="0" y="0" flags="0x1204"/>
      <component glyphName="acute" x="110" y="160" flags="0x1004"/>
    </TTGlyph>
    <TTGlyph name="Ubreve" xMin="23" yMin="1" xMax="804" yMax="857">
      <component glyphName="U" x="0" y="0" flags="0x1204"/>
      <component glyphName="breve" x="88" y="205" flags="0x1004"/>
    </TTGlyph>
    <TTGlyph name="Ucircumflex" xMin="23" yMin="1" xMax="804" yMax="863">
      <component glyphName="U" x="0" y="0" flags="0x1204"/>
      <component glyphName="circumflex" x="75" y="50" flags="0x1004"/>
    </TTGlyph>
    <TTGlyph name="Udieresis" xMin="23" yMin="1" xMax="804" yMax="874">
      <component glyphName="U" x="0" y="0" flags="0x1204"/>
      <component glyphName="dieresis" x="2" y="160" flags="0x1004"/>
    </TTGlyph>
    <TTGlyph name="Ugrave" xMin="23" yMin="1" xMax="804" yMax="897">
      <component glyphName="U" x="0" y="0" flags="0x1204"/>
      <component glyphName="grave" x="97" y="140" flags="0x1004"/>
    </TTGlyph>
    <TTGlyph name="Uhungarumlaut" xMin="23" yMin="1" xMax="804" yMax="933">
      <component glyphName="U" x="0" y="0" flags="0x1204"/>
      <component glyphName="hungarumlaut" x="-15" y="159" flags="0x1004"/>
    </TTGlyph>
    <TTGlyph name="Umacron" xMin="23" yMin="1" xMax="804" yMax="731">
      <component glyphName="U" x="0" y="0" flags="0x1204"/>
      <component glyphName="macron" x="58" y="169" flags="0x1004"/>
    </TTGlyph>
    <TTGlyph name="Uogonek" xMin="23" yMin="-263" xMax="804" yMax="632">
      <component glyphName="U" x="0" y="0" flags="0x1204"/>
      <component glyphName="ogonek" x="499" y="0" flags="0x1004"/>
    </TTGlyph>
    <TTGlyph name="Uring" xMin="23" yMin="1" xMax="804" yMax="908">
      <component glyphName="U" x="0" y="0" flags="0x1204"/>
      <component glyphName="ring" x="124" y="167" flags="0x1004"/>
    </TTGlyph>
    <TTGlyph name="Utilde" xMin="23" yMin="1" xMax="804" yMax="848">
      <component glyphName="U" x="0" y="0" flags="0x1204"/>
      <component glyphName="tilde" x="-83" y="123" flags="0x1004"/>
    </TTGlyph>
    <TTGlyph name="V" xMin="14" yMin="10" xMax="552" yMax="611">
      <contour>
        <pt x="331" y="39" on="1"/>
        <pt x="305" y="96" on="0"/>
        <pt x="251" y="215" on="0"/>
        <pt x="191" y="334" on="0"/>
        <pt x="125" y="447" on="0"/>
        <pt x="87" y="497" on="1"/>
        <pt x="84" y="501" on="0"/>
        <pt x="64" y="518" on="0"/>
        <pt x="41" y="541" on="0"/>
        <pt x="20" y="565" on="0"/>
        <pt x="16" y="575" on="1"/>
        <pt x="6" y="601" on="0"/>
        <pt x="22" y="614" on="0"/>
        <pt x="52" y="604" on="0"/>
        <pt x="86" y="575" on="0"/>
        <pt x="95" y="559" on="1"/>
        <pt x="125" y="505" on="0"/>
        <pt x="184" y="383" on="0"/>
        <pt x="245" y="262" on="0"/>
        <pt x="310" y="148" on="0"/>
        <pt x="347" y="102" on="1"/>
        <pt x="348" y="103" on="0"/>
        <pt x="354" y="109" on="0"/>
        <pt x="354" y="111" on="1"/>
        <pt x="355" y="114" on="0"/>
        <pt x="361" y="129" on="0"/>
        <pt x="366" y="147" on="0"/>
        <pt x="370" y="163" on="0"/>
        <pt x="371" y="166" on="1"/>
        <pt x="373" y="177" on="0"/>
        <pt x="382" y="224" on="0"/>
        <pt x="392" y="283" on="0"/>
        <pt x="405" y="348" on="0"/>
        <pt x="415" y="407" on="0"/>
        <pt x="424" y="454" on="0"/>
        <pt x="426" y="465" on="1"/>
        <pt x="432" y="479" on="0"/>
        <pt x="437" y="510" on="0"/>
        <pt x="441" y="540" on="0"/>
        <pt x="448" y="570" on="0"/>
        <pt x="457" y="583" on="1"/>
        <pt x="461" y="589" on="0"/>
        <pt x="496" y="603" on="0"/>
        <pt x="532" y="612" on="0"/>
        <pt x="557" y="609" on="0"/>
        <pt x="552" y="599" on="1"/>
        <pt x="549" y="594" on="0"/>
        <pt x="536" y="572" on="0"/>
        <pt x="521" y="546" on="0"/>
        <pt x="508" y="524" on="0"/>
        <pt x="505" y="520" on="1"/>
        <pt x="500" y="511" on="0"/>
        <pt x="485" y="447" on="0"/>
        <pt x="468" y="357" on="0"/>
        <pt x="447" y="250" on="0"/>
        <pt x="425" y="149" on="0"/>
        <pt x="400" y="62" on="0"/>
        <pt x="373" y="12" on="0"/>
        <pt x="345" y="8" on="0"/>
      </contour>
    </TTGlyph>
    <TTGlyph name="W" xMin="15" yMin="-1" xMax="873" yMax="646">
      <contour>
        <pt x="614" y="8" on="1"/>
        <pt x="563" y="30" on="0"/>
        <pt x="484" y="113" on="0"/>
        <pt x="423" y="213" on="0"/>
        <pt x="378" y="322" on="0"/>
        <pt x="361" y="371" on="1"/>
        <pt x="354" y="378" on="1"/>
        <pt x="350" y="376" on="0"/>
        <pt x="329" y="333" on="0"/>
        <pt x="299" y="269" on="0"/>
        <pt x="260" y="190" on="0"/>
        <pt x="217" y="115" on="0"/>
        <pt x="171" y="49" on="0"/>
        <pt x="125" y="11" on="0"/>
        <pt x="81" y="8" on="0"/>
        <pt x="62" y="32" on="1"/>
        <pt x="60" y="34" on="0"/>
        <pt x="54" y="46" on="0"/>
        <pt x="54" y="47" on="1"/>
        <pt x="24" y="465" on="1"/>
        <pt x="19" y="479" on="0"/>
        <pt x="12" y="514" on="0"/>
        <pt x="24" y="527" on="1"/>
        <pt x="45" y="538" on="0"/>
        <pt x="72" y="524" on="0"/>
        <pt x="79" y="504" on="1"/>
        <pt x="85" y="485" on="0"/>
        <pt x="85" y="425" on="0"/>
        <pt x="82" y="362" on="0"/>
        <pt x="77" y="303" on="0"/>
        <pt x="79" y="284" on="1"/>
        <pt x="80" y="273" on="0"/>
        <pt x="84" y="222" on="0"/>
        <pt x="89" y="164" on="0"/>
        <pt x="93" y="112" on="0"/>
        <pt x="94" y="102" on="1"/>
        <pt x="94" y="99" on="0"/>
        <pt x="100" y="81" on="0"/>
        <pt x="102" y="79" on="1"/>
        <pt x="103" y="77" on="0"/>
        <pt x="110" y="77" on="0"/>
        <pt x="110" y="79" on="1"/>
        <pt x="152" y="115" on="0"/>
        <pt x="213" y="206" on="0"/>
        <pt x="262" y="306" on="0"/>
        <pt x="306" y="409" on="0"/>
        <pt x="331" y="457" on="1"/>
        <pt x="342" y="475" on="0"/>
        <pt x="375" y="466" on="0"/>
        <pt x="386" y="449" on="1"/>
        <pt x="409" y="410" on="0"/>
        <pt x="432" y="328" on="0"/>
        <pt x="456" y="245" on="0"/>
        <pt x="492" y="163" on="0"/>
        <pt x="527" y="126" on="1"/>
        <pt x="580" y="69" on="0"/>
        <pt x="668" y="44" on="0"/>
        <pt x="738" y="80" on="0"/>
        <pt x="790" y="166" on="0"/>
        <pt x="823" y="275" on="0"/>
        <pt x="835" y="394" on="0"/>
        <pt x="827" y="497" on="0"/>
        <pt x="797" y="572" on="0"/>
        <pt x="771" y="583" on="1"/>
        <pt x="769" y="585" on="0"/>
        <pt x="760" y="585" on="0"/>
        <pt x="760" y="583" on="1"/>
        <pt x="760" y="544" on="1"/>
        <pt x="760" y="542" on="0"/>
        <pt x="749" y="545" on="0"/>
        <pt x="736" y="551" on="0"/>
        <pt x="725" y="561" on="0"/>
        <pt x="724" y="567" on="1"/>
        <pt x="724" y="646" on="1"/>
        <pt x="767" y="657" on="0"/>
        <pt x="829" y="602" on="0"/>
        <pt x="867" y="501" on="0"/>
        <pt x="879" y="367" on="0"/>
        <pt x="866" y="230" on="0"/>
        <pt x="827" y="103" on="0"/>
        <pt x="763" y="16" on="0"/>
        <pt x="672" y="-17" on="0"/>
      </contour>
    </TTGlyph>
    <TTGlyph name="Wacute" xMin="15" yMin="-1" xMax="873" yMax="889">
      <component glyphName="W" x="0" y="0" flags="0x1204"/>
      <component glyphName="acute" x="250" y="159" flags="0x1004"/>
    </TTGlyph>
    <TTGlyph name="Wcircumflex" xMin="15" yMin="-1" xMax="873" yMax="840">
      <component glyphName="W" x="0" y="0" flags="0x1204"/>
      <component glyphName="circumflex" x="214" y="27" flags="0x1004"/>
    </TTGlyph>
    <TTGlyph name="Wdieresis" xMin="15" yMin="-1" xMax="873" yMax="873">
      <component glyphName="W" x="0" y="0" flags="0x1204"/>
      <component glyphName="dieresis" x="38" y="159" flags="0x1004"/>
    </TTGlyph>
    <TTGlyph name="Wgrave" xMin="15" yMin="-1" xMax="873" yMax="916">
      <component glyphName="W" x="0" y="0" flags="0x1204"/>
      <component glyphName="grave" x="315" y="159" flags="0x1004"/>
    </TTGlyph>
    <TTGlyph name="X" xMin="11" yMin="0" xMax="536" yMax="713">
      <contour>
        <pt x="141" y="24" on="1"/>
        <pt x="139" y="29" on="0"/>
        <pt x="139" y="58" on="0"/>
        <pt x="141" y="63" on="1"/>
        <pt x="150" y="78" on="0"/>
        <pt x="181" y="117" on="0"/>
        <pt x="215" y="162" on="0"/>
        <pt x="247" y="211" on="0"/>
        <pt x="267" y="259" on="0"/>
        <pt x="271" y="304" on="0"/>
        <pt x="259" y="323" on="1"/>
        <pt x="231" y="365" on="0"/>
        <pt x="179" y="445" on="0"/>
        <pt x="123" y="521" on="0"/>
        <pt x="61" y="591" on="0"/>
        <pt x="24" y="623" on="1"/>
        <pt x="18" y="628" on="0"/>
        <pt x="12" y="635" on="0"/>
        <pt x="11" y="645" on="0"/>
        <pt x="13" y="659" on="0"/>
        <pt x="15" y="670" on="1"/>
        <pt x="28" y="679" on="0"/>
        <pt x="57" y="671" on="0"/>
        <pt x="86" y="647" on="0"/>
        <pt x="113" y="613" on="0"/>
        <pt x="135" y="579" on="0"/>
        <pt x="152" y="550" on="0"/>
        <pt x="157" y="544" on="1"/>
        <pt x="164" y="533" on="0"/>
        <pt x="201" y="479" on="0"/>
        <pt x="241" y="419" on="0"/>
        <pt x="277" y="365" on="0"/>
        <pt x="284" y="354" on="1"/>
        <pt x="285" y="352" on="0"/>
        <pt x="297" y="340" on="0"/>
        <pt x="299" y="339" on="1"/>
        <pt x="300" y="337" on="0"/>
        <pt x="306" y="337" on="0"/>
        <pt x="307" y="339" on="1"/>
        <pt x="464" y="662" on="1"/>
        <pt x="473" y="680" on="0"/>
        <pt x="501" y="709" on="0"/>
        <pt x="527" y="716" on="0"/>
        <pt x="541" y="695" on="0"/>
        <pt x="536" y="662" on="1"/>
        <pt x="502" y="621" on="0"/>
        <pt x="449" y="530" on="0"/>
        <pt x="403" y="435" on="0"/>
        <pt x="361" y="339" on="0"/>
        <pt x="338" y="292" on="1"/>
        <pt x="338" y="275" on="1"/>
        <pt x="464" y="87" on="1"/>
        <pt x="472" y="79" on="1"/>
        <pt x="475" y="85" on="0"/>
        <pt x="485" y="120" on="0"/>
        <pt x="497" y="155" on="0"/>
        <pt x="511" y="179" on="0"/>
        <pt x="519" y="173" on="1"/>
        <pt x="528" y="167" on="0"/>
        <pt x="534" y="136" on="0"/>
        <pt x="531" y="96" on="0"/>
        <pt x="518" y="53" on="0"/>
        <pt x="499" y="22" on="0"/>
        <pt x="472" y="7" on="0"/>
        <pt x="457" y="15" on="1"/>
        <pt x="447" y="20" on="0"/>
        <pt x="422" y="59" on="0"/>
        <pt x="395" y="111" on="0"/>
        <pt x="367" y="167" on="0"/>
        <pt x="340" y="211" on="0"/>
        <pt x="316" y="234" on="0"/>
        <pt x="307" y="228" on="1"/>
        <pt x="301" y="215" on="0"/>
        <pt x="285" y="192" on="0"/>
        <pt x="272" y="168" on="0"/>
        <pt x="264" y="142" on="0"/>
        <pt x="267" y="126" on="1"/>
        <pt x="259" y="112" on="0"/>
        <pt x="238" y="78" on="0"/>
        <pt x="214" y="44" on="0"/>
        <pt x="188" y="12" on="0"/>
        <pt x="173" y="0" on="1"/>
        <pt x="170" y="-3" on="0"/>
        <pt x="165" y="0" on="1"/>
        <pt x="160" y="4" on="0"/>
        <pt x="142" y="22" on="0"/>
      </contour>
    </TTGlyph>
    <TTGlyph name="Y" xMin="11" yMin="4" xMax="590" yMax="790">
      <contour>
        <pt x="465" y="15" on="1"/>
        <pt x="449" y="31" on="0"/>
        <pt x="437" y="97" on="0"/>
        <pt x="438" y="180" on="0"/>
        <pt x="447" y="273" on="0"/>
        <pt x="458" y="361" on="0"/>
        <pt x="466" y="434" on="0"/>
        <pt x="465" y="457" on="1"/>
        <pt x="457" y="457" on="1"/>
        <pt x="419" y="395" on="0"/>
        <pt x="348" y="342" on="0"/>
        <pt x="283" y="340" on="0"/>
        <pt x="225" y="378" on="0"/>
        <pt x="176" y="434" on="0"/>
        <pt x="137" y="499" on="0"/>
        <pt x="123" y="524" on="1"/>
        <pt x="17" y="683" on="1"/>
        <pt x="11" y="696" on="0"/>
        <pt x="11" y="721" on="0"/>
        <pt x="22" y="737" on="0"/>
        <pt x="42" y="739" on="0"/>
        <pt x="56" y="730" on="1"/>
        <pt x="69" y="721" on="0"/>
        <pt x="94" y="674" on="0"/>
        <pt x="124" y="611" on="0"/>
        <pt x="161" y="541" on="0"/>
        <pt x="212" y="479" on="0"/>
        <pt x="279" y="432" on="0"/>
        <pt x="324" y="425" on="1"/>
        <pt x="355" y="420" on="0"/>
        <pt x="402" y="449" on="0"/>
        <pt x="441" y="502" on="0"/>
        <pt x="471" y="574" on="0"/>
        <pt x="497" y="648" on="0"/>
        <pt x="521" y="719" on="0"/>
        <pt x="545" y="771" on="0"/>
        <pt x="573" y="797" on="0"/>
        <pt x="590" y="790" on="1"/>
        <pt x="585" y="740" on="0"/>
        <pt x="566" y="613" on="0"/>
        <pt x="546" y="476" on="0"/>
        <pt x="528" y="334" on="0"/>
        <pt x="516" y="200" on="0"/>
        <pt x="513" y="83" on="0"/>
        <pt x="520" y="39" on="1"/>
        <pt x="523" y="25" on="0"/>
        <pt x="513" y="8" on="0"/>
        <pt x="495" y="2" on="0"/>
        <pt x="474" y="6" on="0"/>
      </contour>
    </TTGlyph>
    <TTGlyph name="Yacute" xMin="11" yMin="4" xMax="590" yMax="921">
      <component glyphName="Y" x="0" y="0" flags="0x1204"/>
      <component glyphName="acute" x="198" y="191" flags="0x1004"/>
    </TTGlyph>
    <TTGlyph name="Ycircumflex" xMin="11" yMin="4" xMax="590" yMax="950">
      <component glyphName="Y" x="0" y="0" flags="0x1204"/>
      <component glyphName="circumflex" x="89" y="137" flags="0x1004"/>
    </TTGlyph>
    <TTGlyph name="Ydieresis" xMin="-9" yMin="4" xMax="590" yMax="795">
      <component glyphName="Y" x="0" y="0" flags="0x1204"/>
      <component glyphName="dieresis" x="-88" y="81" flags="0x1004"/>
    </TTGlyph>
    <TTGlyph name="Ygrave" xMin="11" yMin="4" xMax="590" yMax="916">
      <component glyphName="Y" x="0" y="0" flags="0x1204"/>
      <component glyphName="grave" x="147" y="159" flags="0x1004"/>
    </TTGlyph>
    <TTGlyph name="Z" xMin="10" yMin="-7" xMax="758" yMax="779">
      <contour>
        <pt x="252" y="8" on="1"/>
        <pt x="200" y="28" on="0"/>
        <pt x="154" y="83" on="0"/>
        <pt x="149" y="145" on="0"/>
        <pt x="176" y="215" on="0"/>
        <pt x="218" y="287" on="0"/>
        <pt x="267" y="359" on="0"/>
        <pt x="287" y="393" on="1"/>
        <pt x="274" y="394" on="0"/>
        <pt x="229" y="378" on="0"/>
        <pt x="183" y="362" on="0"/>
        <pt x="143" y="357" on="0"/>
        <pt x="136" y="370" on="1"/>
        <pt x="124" y="390" on="0"/>
        <pt x="143" y="412" on="0"/>
        <pt x="187" y="426" on="0"/>
        <pt x="249" y="437" on="0"/>
        <pt x="312" y="455" on="0"/>
        <pt x="370" y="485" on="0"/>
        <pt x="388" y="512" on="1"/>
        <pt x="421" y="561" on="0"/>
        <pt x="480" y="660" on="0"/>
        <pt x="514" y="709" on="1"/>
        <pt x="493" y="711" on="0"/>
        <pt x="402" y="686" on="0"/>
        <pt x="290" y="651" on="0"/>
        <pt x="171" y="613" on="0"/>
        <pt x="73" y="594" on="0"/>
        <pt x="10" y="602" on="0"/>
        <pt x="10" y="630" on="1"/>
        <pt x="10" y="639" on="0"/>
        <pt x="56" y="655" on="0"/>
        <pt x="113" y="670" on="0"/>
        <pt x="163" y="682" on="0"/>
        <pt x="168" y="685" on="1"/>
        <pt x="267" y="711" on="0"/>
        <pt x="461" y="759" on="0"/>
        <pt x="561" y="779" on="1"/>
        <pt x="583" y="784" on="0"/>
        <pt x="588" y="754" on="0"/>
        <pt x="576" y="713" on="0"/>
        <pt x="557" y="673" on="0"/>
        <pt x="554" y="669" on="1"/>
        <pt x="546" y="658" on="0"/>
        <pt x="510" y="604" on="0"/>
        <pt x="470" y="544" on="0"/>
        <pt x="434" y="490" on="0"/>
        <pt x="428" y="480" on="1"/>
        <pt x="426" y="478" on="0"/>
        <pt x="421" y="466" on="0"/>
        <pt x="420" y="464" on="1"/>
        <pt x="421" y="464" on="0"/>
        <pt x="448" y="466" on="0"/>
        <pt x="489" y="471" on="0"/>
        <pt x="538" y="479" on="0"/>
        <pt x="583" y="491" on="0"/>
        <pt x="618" y="508" on="0"/>
        <pt x="625" y="519" on="1"/>
        <pt x="629" y="515" on="0"/>
        <pt x="649" y="494" on="0"/>
        <pt x="664" y="469" on="0"/>
        <pt x="667" y="446" on="0"/>
        <pt x="656" y="440" on="1"/>
        <pt x="627" y="425" on="0"/>
        <pt x="555" y="423" on="0"/>
        <pt x="480" y="424" on="0"/>
        <pt x="409" y="415" on="0"/>
        <pt x="381" y="393" on="1"/>
        <pt x="303" y="323" on="0"/>
        <pt x="231" y="208" on="0"/>
        <pt x="222" y="121" on="0"/>
        <pt x="266" y="64" on="0"/>
        <pt x="345" y="39" on="0"/>
        <pt x="448" y="47" on="0"/>
        <pt x="557" y="90" on="0"/>
        <pt x="661" y="169" on="0"/>
        <pt x="701" y="228" on="1"/>
        <pt x="703" y="244" on="0"/>
        <pt x="704" y="259" on="0"/>
        <pt x="701" y="268" on="0"/>
        <pt x="696" y="279" on="0"/>
        <pt x="693" y="292" on="1"/>
        <pt x="691" y="300" on="0"/>
        <pt x="710" y="296" on="0"/>
        <pt x="735" y="276" on="0"/>
        <pt x="757" y="242" on="0"/>
        <pt x="759" y="202" on="0"/>
        <pt x="730" y="156" on="0"/>
        <pt x="693" y="134" on="1"/>
        <pt x="648" y="107" on="0"/>
        <pt x="540" y="45" on="0"/>
        <pt x="424" y="0" on="0"/>
        <pt x="306" y="-14" on="0"/>
      </contour>
    </TTGlyph>
    <TTGlyph name="Zacute" xMin="10" yMin="-7" xMax="758" yMax="892">
      <component glyphName="Z" x="0" y="0" flags="0x1204"/>
      <component glyphName="acute" x="184" y="162" flags="0x1004"/>
    </TTGlyph>
    <TTGlyph name="Zcaron" xMin="10" yMin="-7" xMax="758" yMax="862">
      <component glyphName="Z" x="0" y="0" flags="0x1204"/>
      <component glyphName="caron" x="-29" y="149" flags="0x1004"/>
    </TTGlyph>
    <TTGlyph name="Zdotaccent" xMin="10" yMin="-7" xMax="758" yMax="905">
      <component glyphName="Z" x="0" y="0" flags="0x1204"/>
      <component glyphName="dotaccent" x="164" y="209" flags="0x1004"/>
    </TTGlyph>
    <TTGlyph name="a" xMin="9" yMin="3" xMax="560" yMax="640">
      <contour>
        <pt x="59" y="37" on="1"/>
        <pt x="39" y="57" on="0"/>
        <pt x="15" y="139" on="0"/>
        <pt x="6" y="243" on="0"/>
        <pt x="12" y="360" on="0"/>
        <pt x="33" y="471" on="0"/>
        <pt x="68" y="567" on="0"/>
        <pt x="119" y="630" on="0"/>
        <pt x="184" y="649" on="0"/>
        <pt x="224" y="628" on="1"/>
        <pt x="238" y="620" on="0"/>
        <pt x="269" y="582" on="0"/>
        <pt x="297" y="535" on="0"/>
        <pt x="318" y="488" on="0"/>
        <pt x="323" y="472" on="1"/>
        <pt x="324" y="467" on="0"/>
        <pt x="323" y="416" on="0"/>
        <pt x="321" y="344" on="0"/>
        <pt x="324" y="257" on="0"/>
        <pt x="335" y="174" on="0"/>
        <pt x="359" y="103" on="0"/>
        <pt x="399" y="62" on="0"/>
        <pt x="460" y="59" on="0"/>
        <pt x="504" y="85" on="1"/>
        <pt x="520" y="99" on="0"/>
        <pt x="526" y="126" on="0"/>
        <pt x="526" y="145" on="0"/>
        <pt x="530" y="151" on="0"/>
        <pt x="546" y="143" on="1"/>
        <pt x="566" y="117" on="0"/>
        <pt x="553" y="58" on="0"/>
        <pt x="508" y="13" on="0"/>
        <pt x="440" y="-6" on="0"/>
        <pt x="369" y="22" on="0"/>
        <pt x="305" y="108" on="0"/>
        <pt x="286" y="190" on="1"/>
        <pt x="280" y="173" on="0"/>
        <pt x="255" y="123" on="0"/>
        <pt x="221" y="73" on="0"/>
        <pt x="178" y="29" on="0"/>
        <pt x="132" y="7" on="0"/>
        <pt x="83" y="12" on="0"/>
      </contour>
      <contour>
        <pt x="68" y="100" on="1"/>
        <pt x="85" y="64" on="0"/>
        <pt x="131" y="58" on="0"/>
        <pt x="179" y="100" on="0"/>
        <pt x="226" y="180" on="0"/>
        <pt x="259" y="281" on="0"/>
        <pt x="276" y="392" on="0"/>
        <pt x="265" y="494" on="0"/>
        <pt x="223" y="578" on="0"/>
        <pt x="180" y="602" on="1"/>
        <pt x="179" y="603" on="0"/>
        <pt x="174" y="603" on="0"/>
        <pt x="172" y="603" on="1"/>
        <pt x="141" y="589" on="0"/>
        <pt x="95" y="521" on="0"/>
        <pt x="62" y="429" on="0"/>
        <pt x="44" y="323" on="0"/>
        <pt x="42" y="221" on="0"/>
        <pt x="54" y="130" on="0"/>
      </contour>
    </TTGlyph>
    <TTGlyph name="aacute" xMin="9" yMin="3" xMax="560" yMax="798">
      <component glyphName="a" x="0" y="0" flags="0x1204"/>
      <component glyphName="acute" x="12" y="68" flags="0x1004"/>
    </TTGlyph>
    <TTGlyph name="abreve" xMin="9" yMin="3" xMax="560" yMax="825">
      <component glyphName="a" x="0" y="0" flags="0x1204"/>
      <component glyphName="breve" x="37" y="173" flags="0x1004"/>
    </TTGlyph>
    <TTGlyph name="acircumflex" xMin="0" yMin="3" xMax="560" yMax="894">
      <component glyphName="a" x="0" y="0" flags="0x1204"/>
      <component glyphName="circumflex" x="-62" y="81" flags="0x1004"/>
    </TTGlyph>
    <TTGlyph name="acute" xMin="34" yMin="614" xMax="294" yMax="730">
      <contour>
        <pt x="42" y="624" on="1"/>
        <pt x="40" y="625" on="0"/>
        <pt x="35" y="637" on="0"/>
        <pt x="34" y="639" on="1"/>
        <pt x="28" y="653" on="0"/>
        <pt x="69" y="677" on="0"/>
        <pt x="138" y="698" on="0"/>
        <pt x="222" y="718" on="0"/>
        <pt x="260" y="729" on="1"/>
        <pt x="292" y="738" on="0"/>
        <pt x="295" y="721" on="0"/>
        <pt x="259" y="688" on="0"/>
        <pt x="196" y="648" on="0"/>
        <pt x="126" y="619" on="0"/>
        <pt x="61" y="609" on="0"/>
      </contour>
    </TTGlyph>
    <TTGlyph name="adieresis" xMin="9" yMin="3" xMax="560" yMax="836">
      <component glyphName="a" x="0" y="0" flags="0x1204"/>
      <component glyphName="dieresis" x="-57" y="122" flags="0x1004"/>
    </TTGlyph>
    <TTGlyph name="ae" xMin="9" yMin="9" xMax="610" yMax="640">
      <contour>
        <pt x="59" y="37" on="1"/>
        <pt x="39" y="57" on="0"/>
        <pt x="15" y="139" on="0"/>
        <pt x="6" y="243" on="0"/>
        <pt x="12" y="360" on="0"/>
        <pt x="33" y="471" on="0"/>
        <pt x="68" y="567" on="0"/>
        <pt x="119" y="630" on="0"/>
        <pt x="184" y="649" on="0"/>
        <pt x="224" y="628" on="1"/>
        <pt x="238" y="620" on="0"/>
        <pt x="269" y="582" on="0"/>
        <pt x="297" y="535" on="0"/>
        <pt x="318" y="488" on="0"/>
        <pt x="323" y="472" on="1"/>
        <pt x="325" y="457" on="0"/>
        <pt x="326" y="429" on="0"/>
        <pt x="328" y="415" on="1"/>
        <pt x="335" y="446" on="0"/>
        <pt x="353" y="519" on="0"/>
        <pt x="382" y="576" on="0"/>
        <pt x="427" y="603" on="0"/>
        <pt x="461" y="588" on="1"/>
        <pt x="464" y="586" on="0"/>
        <pt x="475" y="575" on="0"/>
        <pt x="487" y="563" on="0"/>
        <pt x="498" y="552" on="0"/>
        <pt x="500" y="549" on="1"/>
        <pt x="504" y="500" on="0"/>
        <pt x="484" y="432" on="0"/>
        <pt x="450" y="385" on="0"/>
        <pt x="408" y="353" on="0"/>
        <pt x="370" y="324" on="0"/>
        <pt x="343" y="294" on="0"/>
        <pt x="342" y="272" on="1"/>
        <pt x="341" y="261" on="0"/>
        <pt x="340" y="241" on="0"/>
        <pt x="340" y="232" on="1"/>
        <pt x="340" y="225" on="0"/>
        <pt x="340" y="213" on="0"/>
        <pt x="341" y="207" on="1"/>
        <pt x="343" y="180" on="0"/>
        <pt x="368" y="135" on="0"/>
        <pt x="397" y="115" on="1"/>
        <pt x="414" y="103" on="0"/>
        <pt x="464" y="115" on="0"/>
        <pt x="516" y="145" on="0"/>
        <pt x="566" y="183" on="0"/>
        <pt x="602" y="210" on="0"/>
        <pt x="618" y="218" on="0"/>
        <pt x="610" y="202" on="1"/>
        <pt x="596" y="169" on="0"/>
        <pt x="558" y="103" on="0"/>
        <pt x="506" y="57" on="0"/>
        <pt x="439" y="42" on="0"/>
        <pt x="397" y="60" on="1"/>
        <pt x="362" y="75" on="0"/>
        <pt x="342" y="99" on="1"/>
        <pt x="331" y="51" on="0"/>
        <pt x="308" y="18" on="0"/>
        <pt x="290" y="44" on="0"/>
        <pt x="282" y="125" on="0"/>
        <pt x="286" y="190" on="1"/>
        <pt x="280" y="173" on="0"/>
        <pt x="255" y="123" on="0"/>
        <pt x="221" y="73" on="0"/>
        <pt x="178" y="29" on="0"/>
        <pt x="132" y="7" on="0"/>
        <pt x="83" y="12" on="0"/>
      </contour>
      <contour>
        <pt x="68" y="100" on="1"/>
        <pt x="85" y="64" on="0"/>
        <pt x="131" y="58" on="0"/>
        <pt x="179" y="100" on="0"/>
        <pt x="226" y="180" on="0"/>
        <pt x="259" y="281" on="0"/>
        <pt x="276" y="392" on="0"/>
        <pt x="265" y="494" on="0"/>
        <pt x="223" y="578" on="0"/>
        <pt x="180" y="602" on="1"/>
        <pt x="179" y="603" on="0"/>
        <pt x="174" y="603" on="0"/>
        <pt x="172" y="603" on="1"/>
        <pt x="141" y="589" on="0"/>
        <pt x="95" y="521" on="0"/>
        <pt x="62" y="429" on="0"/>
        <pt x="44" y="323" on="0"/>
        <pt x="42" y="221" on="0"/>
        <pt x="54" y="130" on="0"/>
      </contour>
      <contour>
        <pt x="365" y="423" on="1"/>
        <pt x="364" y="418" on="0"/>
        <pt x="358" y="388" on="0"/>
        <pt x="358" y="383" on="1"/>
        <pt x="359" y="382" on="0"/>
        <pt x="364" y="382" on="0"/>
        <pt x="365" y="383" on="1"/>
        <pt x="368" y="385" on="0"/>
        <pt x="380" y="394" on="0"/>
        <pt x="392" y="403" on="0"/>
        <pt x="403" y="412" on="0"/>
        <pt x="405" y="414" on="1"/>
        <pt x="435" y="444" on="0"/>
        <pt x="460" y="495" on="0"/>
        <pt x="460" y="527" on="0"/>
        <pt x="439" y="538" on="0"/>
        <pt x="410" y="520" on="0"/>
        <pt x="378" y="469" on="0"/>
      </contour>
    </TTGlyph>
    <TTGlyph name="aeacute" xMin="9" yMin="9" xMax="610" yMax="804">
      <component glyphName="ae" x="0" y="0" flags="0x1204"/>
      <component glyphName="acute" x="169" y="74" flags="0x1004"/>
    </TTGlyph>
    <TTGlyph name="agrave" xMin="9" yMin="3" xMax="560" yMax="841">
      <component glyphName="a" x="0" y="0" flags="0x1204"/>
      <component glyphName="grave" x="97" y="84" flags="0x1004"/>
    </TTGlyph>
    <TTGlyph name="amacron" xMin="-42" yMin="3" xMax="560" yMax="756">
      <component glyphName="a" x="0" y="0" flags="0x1204"/>
      <component glyphName="macron" x="-57" y="194" flags="0x1004"/>
    </TTGlyph>
    <TTGlyph name="ampersand" xMin="17" yMin="5" xMax="559" yMax="525">
      <contour>
        <pt x="426" y="24" on="1"/>
        <pt x="417" y="38" on="0"/>
        <pt x="411" y="73" on="0"/>
        <pt x="409" y="111" on="0"/>
        <pt x="407" y="149" on="0"/>
        <pt x="402" y="166" on="1"/>
        <pt x="306" y="123" on="0"/>
        <pt x="166" y="102" on="0"/>
        <pt x="72" y="126" on="0"/>
        <pt x="22" y="184" on="0"/>
        <pt x="12" y="256" on="0"/>
        <pt x="38" y="332" on="0"/>
        <pt x="95" y="392" on="0"/>
        <pt x="182" y="425" on="0"/>
        <pt x="237" y="418" on="1"/>
        <pt x="259" y="415" on="0"/>
        <pt x="297" y="394" on="0"/>
        <pt x="330" y="366" on="0"/>
        <pt x="362" y="335" on="0"/>
        <pt x="379" y="323" on="1"/>
        <pt x="386" y="323" on="1"/>
        <pt x="388" y="346" on="0"/>
        <pt x="384" y="389" on="0"/>
        <pt x="375" y="432" on="0"/>
        <pt x="365" y="475" on="0"/>
        <pt x="362" y="497" on="1"/>
        <pt x="384" y="526" on="0"/>
        <pt x="411" y="523" on="0"/>
        <pt x="427" y="481" on="0"/>
        <pt x="434" y="414" on="0"/>
        <pt x="439" y="343" on="0"/>
        <pt x="444" y="282" on="0"/>
        <pt x="450" y="268" on="1"/>
        <pt x="456" y="271" on="0"/>
        <pt x="478" y="299" on="0"/>
        <pt x="502" y="329" on="0"/>
        <pt x="527" y="350" on="0"/>
        <pt x="536" y="346" on="1"/>
        <pt x="556" y="338" on="0"/>
        <pt x="562" y="312" on="0"/>
        <pt x="546" y="281" on="0"/>
        <pt x="516" y="250" on="0"/>
        <pt x="485" y="222" on="0"/>
        <pt x="460" y="201" on="0"/>
        <pt x="457" y="197" on="1"/>
        <pt x="452" y="189" on="0"/>
        <pt x="468" y="146" on="0"/>
        <pt x="487" y="90" on="0"/>
        <pt x="495" y="31" on="0"/>
        <pt x="481" y="8" on="1"/>
        <pt x="462" y="3" on="0"/>
        <pt x="435" y="7" on="0"/>
      </contour>
      <contour>
        <pt x="87" y="173" on="1"/>
        <pt x="118" y="156" on="0"/>
        <pt x="199" y="152" on="0"/>
        <pt x="282" y="168" on="0"/>
        <pt x="359" y="200" on="0"/>
        <pt x="386" y="220" on="1"/>
        <pt x="389" y="229" on="0"/>
        <pt x="383" y="249" on="0"/>
        <pt x="373" y="268" on="0"/>
        <pt x="360" y="286" on="0"/>
        <pt x="354" y="292" on="1"/>
        <pt x="306" y="345" on="0"/>
        <pt x="216" y="377" on="0"/>
        <pt x="142" y="359" on="0"/>
        <pt x="86" y="305" on="0"/>
        <pt x="59" y="243" on="0"/>
        <pt x="64" y="186" on="0"/>
      </contour>
    </TTGlyph>
    <TTGlyph name="aogonek" xMin="9" yMin="-255" xMax="560" yMax="640">
      <component glyphName="a" x="0" y="0" flags="0x1204"/>
      <component glyphName="ogonek" x="229" y="8" flags="0x1004"/>
    </TTGlyph>
    <TTGlyph name="aring" xMin="9" yMin="3" xMax="560" yMax="884">
      <contour>
        <pt x="146" y="645" on="1"/>
        <pt x="126" y="648" on="0"/>
        <pt x="100" y="677" on="0"/>
        <pt x="83" y="717" on="0"/>
        <pt x="77" y="763" on="0"/>
        <pt x="78" y="806" on="0"/>
        <pt x="85" y="839" on="0"/>
        <pt x="91" y="847" on="1"/>
        <pt x="95" y="852" on="0"/>
        <pt x="118" y="848" on="0"/>
        <pt x="119" y="844" on="1"/>
        <pt x="123" y="827" on="0"/>
        <pt x="109" y="776" on="0"/>
        <pt x="102" y="724" on="0"/>
        <pt x="119" y="679" on="0"/>
        <pt x="156" y="668" on="1"/>
        <pt x="181" y="660" on="0"/>
        <pt x="225" y="680" on="0"/>
        <pt x="256" y="721" on="0"/>
        <pt x="272" y="774" on="0"/>
        <pt x="266" y="823" on="0"/>
        <pt x="236" y="861" on="0"/>
        <pt x="206" y="867" on="1"/>
        <pt x="183" y="871" on="0"/>
        <pt x="156" y="861" on="0"/>
        <pt x="142" y="850" on="1"/>
        <pt x="134" y="847" on="0"/>
        <pt x="137" y="858" on="0"/>
        <pt x="153" y="873" on="0"/>
        <pt x="183" y="885" on="0"/>
        <pt x="202" y="884" on="1"/>
        <pt x="240" y="881" on="0"/>
        <pt x="283" y="840" on="0"/>
        <pt x="297" y="782" on="0"/>
        <pt x="283" y="718" on="0"/>
        <pt x="246" y="666" on="0"/>
        <pt x="185" y="638" on="0"/>
      </contour>
      <contour>
        <pt x="59" y="37" on="1"/>
        <pt x="39" y="57" on="0"/>
        <pt x="15" y="139" on="0"/>
        <pt x="6" y="243" on="0"/>
        <pt x="12" y="360" on="0"/>
        <pt x="33" y="471" on="0"/>
        <pt x="68" y="567" on="0"/>
        <pt x="119" y="630" on="0"/>
        <pt x="184" y="649" on="0"/>
        <pt x="224" y="628" on="1"/>
        <pt x="238" y="620" on="0"/>
        <pt x="269" y="582" on="0"/>
        <pt x="297" y="535" on="0"/>
        <pt x="318" y="488" on="0"/>
        <pt x="323" y="472" on="1"/>
        <pt x="324" y="467" on="0"/>
        <pt x="323" y="416" on="0"/>
        <pt x="321" y="344" on="0"/>
        <pt x="324" y="257" on="0"/>
        <pt x="335" y="174" on="0"/>
        <pt x="359" y="103" on="0"/>
        <pt x="399" y="62" on="0"/>
        <pt x="460" y="59" on="0"/>
        <pt x="504" y="85" on="1"/>
        <pt x="520" y="99" on="0"/>
        <pt x="526" y="126" on="0"/>
        <pt x="526" y="145" on="0"/>
        <pt x="530" y="151" on="0"/>
        <pt x="546" y="143" on="1"/>
        <pt x="566" y="117" on="0"/>
        <pt x="553" y="58" on="0"/>
        <pt x="508" y="13" on="0"/>
        <pt x="440" y="-6" on="0"/>
        <pt x="369" y="22" on="0"/>
        <pt x="305" y="108" on="0"/>
        <pt x="286" y="190" on="1"/>
        <pt x="280" y="173" on="0"/>
        <pt x="255" y="123" on="0"/>
        <pt x="221" y="73" on="0"/>
        <pt x="178" y="29" on="0"/>
        <pt x="132" y="7" on="0"/>
        <pt x="83" y="12" on="0"/>
      </contour>
      <contour>
        <pt x="68" y="100" on="1"/>
        <pt x="85" y="64" on="0"/>
        <pt x="131" y="58" on="0"/>
        <pt x="179" y="100" on="0"/>
        <pt x="226" y="180" on="0"/>
        <pt x="259" y="281" on="0"/>
        <pt x="276" y="392" on="0"/>
        <pt x="265" y="494" on="0"/>
        <pt x="223" y="578" on="0"/>
        <pt x="180" y="602" on="1"/>
        <pt x="179" y="603" on="0"/>
        <pt x="174" y="603" on="0"/>
        <pt x="172" y="603" on="1"/>
        <pt x="141" y="589" on="0"/>
        <pt x="95" y="521" on="0"/>
        <pt x="62" y="429" on="0"/>
        <pt x="44" y="323" on="0"/>
        <pt x="42" y="221" on="0"/>
        <pt x="54" y="130" on="0"/>
      </contour>
    </TTGlyph>
    <TTGlyph name="asciicircum" xMin="58" yMin="586" xMax="366" yMax="817">
      <contour>
        <pt x="82" y="619" on="1"/>
        <pt x="80" y="621" on="0"/>
        <pt x="61" y="639" on="0"/>
        <pt x="58" y="643" on="1"/>
        <pt x="57" y="644" on="0"/>
        <pt x="98" y="674" on="0"/>
        <pt x="149" y="714" on="0"/>
        <pt x="197" y="752" on="0"/>
        <pt x="203" y="761" on="1"/>
        <pt x="211" y="774" on="0"/>
        <pt x="228" y="806" on="0"/>
        <pt x="242" y="817" on="1"/>
        <pt x="250" y="817" on="1"/>
        <pt x="262" y="809" on="0"/>
        <pt x="292" y="772" on="0"/>
        <pt x="323" y="724" on="0"/>
        <pt x="349" y="672" on="0"/>
        <pt x="365" y="626" on="0"/>
        <pt x="366" y="591" on="0"/>
        <pt x="356" y="586" on="1"/>
        <pt x="342" y="579" on="0"/>
        <pt x="309" y="610" on="0"/>
        <pt x="278" y="658" on="0"/>
        <pt x="254" y="708" on="0"/>
        <pt x="250" y="721" on="1"/>
        <pt x="238" y="727" on="0"/>
        <pt x="214" y="710" on="0"/>
        <pt x="189" y="680" on="0"/>
        <pt x="161" y="643" on="0"/>
        <pt x="132" y="617" on="0"/>
        <pt x="100" y="607" on="0"/>
      </contour>
    </TTGlyph>
    <TTGlyph name="asciitilde" xMin="26" yMin="540" xMax="680" yMax="815">
      <contour>
        <pt x="356" y="549" on="1"/>
        <pt x="317" y="558" on="0"/>
        <pt x="273" y="596" on="0"/>
        <pt x="247" y="646" on="0"/>
        <pt x="228" y="704" on="0"/>
        <pt x="213" y="733" on="1"/>
        <pt x="210" y="736" on="0"/>
        <pt x="205" y="733" on="1"/>
        <pt x="175" y="709" on="0"/>
        <pt x="140" y="680" on="0"/>
        <pt x="116" y="650" on="0"/>
        <pt x="97" y="610" on="0"/>
        <pt x="84" y="576" on="1"/>
        <pt x="41" y="564" on="0"/>
        <pt x="18" y="583" on="0"/>
        <pt x="35" y="627" on="0"/>
        <pt x="81" y="687" on="0"/>
        <pt x="134" y="742" on="0"/>
        <pt x="180" y="784" on="0"/>
        <pt x="190" y="789" on="1"/>
        <pt x="211" y="799" on="0"/>
        <pt x="240" y="774" on="0"/>
        <pt x="264" y="725" on="0"/>
        <pt x="288" y="663" on="0"/>
        <pt x="320" y="610" on="0"/>
        <pt x="365" y="578" on="0"/>
        <pt x="431" y="589" on="0"/>
        <pt x="523" y="654" on="0"/>
        <pt x="586" y="725" on="1"/>
        <pt x="594" y="734" on="0"/>
        <pt x="608" y="764" on="0"/>
        <pt x="621" y="793" on="0"/>
        <pt x="633" y="814" on="0"/>
        <pt x="649" y="815" on="0"/>
        <pt x="668" y="790" on="0"/>
        <pt x="680" y="757" on="1"/>
        <pt x="686" y="740" on="0"/>
        <pt x="661" y="727" on="0"/>
        <pt x="649" y="725" on="1"/>
        <pt x="629" y="704" on="0"/>
        <pt x="589" y="655" on="0"/>
        <pt x="547" y="608" on="0"/>
        <pt x="501" y="568" on="0"/>
        <pt x="449" y="543" on="0"/>
        <pt x="390" y="537" on="0"/>
      </contour>
    </TTGlyph>
    <TTGlyph name="asterisk" xMin="14" yMin="0" xMax="500" yMax="389">
      <contour>
        <pt x="141" y="8" on="1"/>
        <pt x="121" y="18" on="0"/>
        <pt x="116" y="63" on="0"/>
        <pt x="123" y="116" on="0"/>
        <pt x="135" y="166" on="0"/>
        <pt x="134" y="181" on="1"/>
        <pt x="115" y="184" on="0"/>
        <pt x="81" y="168" on="0"/>
        <pt x="62" y="166" on="1"/>
        <pt x="30" y="161" on="0"/>
        <pt x="10" y="167" on="0"/>
        <pt x="19" y="181" on="0"/>
        <pt x="50" y="201" on="0"/>
        <pt x="84" y="221" on="0"/>
        <pt x="113" y="235" on="0"/>
        <pt x="118" y="237" on="1"/>
        <pt x="120" y="238" on="0"/>
        <pt x="132" y="243" on="0"/>
        <pt x="134" y="244" on="1"/>
        <pt x="133" y="245" on="0"/>
        <pt x="116" y="259" on="0"/>
        <pt x="93" y="279" on="0"/>
        <pt x="70" y="303" on="0"/>
        <pt x="59" y="325" on="0"/>
        <pt x="63" y="342" on="0"/>
        <pt x="79" y="346" on="1"/>
        <pt x="82" y="347" on="0"/>
        <pt x="100" y="347" on="0"/>
        <pt x="102" y="346" on="1"/>
        <pt x="120" y="341" on="0"/>
        <pt x="161" y="348" on="0"/>
        <pt x="192" y="343" on="0"/>
        <pt x="206" y="311" on="0"/>
        <pt x="197" y="268" on="1"/>
        <pt x="208" y="271" on="0"/>
        <pt x="216" y="296" on="0"/>
        <pt x="220" y="327" on="0"/>
        <pt x="222" y="360" on="0"/>
        <pt x="230" y="384" on="0"/>
        <pt x="249" y="393" on="0"/>
        <pt x="267" y="386" on="1"/>
        <pt x="278" y="381" on="0"/>
        <pt x="280" y="352" on="0"/>
        <pt x="273" y="318" on="0"/>
        <pt x="262" y="288" on="0"/>
        <pt x="260" y="284" on="1"/>
        <pt x="278" y="281" on="0"/>
        <pt x="326" y="288" on="0"/>
        <pt x="377" y="302" on="0"/>
        <pt x="425" y="318" on="0"/>
        <pt x="441" y="323" on="1"/>
        <pt x="444" y="332" on="0"/>
        <pt x="461" y="331" on="0"/>
        <pt x="481" y="319" on="0"/>
        <pt x="498" y="299" on="0"/>
        <pt x="502" y="278" on="0"/>
        <pt x="487" y="262" on="0"/>
        <pt x="465" y="260" on="1"/>
        <pt x="455" y="259" on="0"/>
        <pt x="412" y="256" on="0"/>
        <pt x="359" y="251" on="0"/>
        <pt x="305" y="243" on="0"/>
        <pt x="262" y="231" on="0"/>
        <pt x="239" y="215" on="0"/>
        <pt x="244" y="205" on="1"/>
        <pt x="247" y="198" on="0"/>
        <pt x="263" y="192" on="0"/>
        <pt x="280" y="187" on="0"/>
        <pt x="292" y="180" on="0"/>
        <pt x="292" y="173" on="1"/>
        <pt x="292" y="118" on="1"/>
        <pt x="292" y="106" on="0"/>
        <pt x="273" y="105" on="0"/>
        <pt x="250" y="115" on="0"/>
        <pt x="230" y="130" on="0"/>
        <pt x="228" y="134" on="1"/>
        <pt x="217" y="131" on="0"/>
        <pt x="209" y="103" on="0"/>
        <pt x="206" y="67" on="0"/>
        <pt x="202" y="30" on="0"/>
        <pt x="190" y="4" on="0"/>
        <pt x="165" y="-4" on="0"/>
      </contour>
    </TTGlyph>
    <TTGlyph name="at" xMin="40" yMin="-165" xMax="1088" yMax="932">
      <contour>
        <pt x="220" y="-165" on="1"/>
        <pt x="156" y="-154" on="0"/>
        <pt x="78" y="-74" on="0"/>
        <pt x="40" y="34" on="0"/>
        <pt x="40" y="154" on="0"/>
        <pt x="54" y="205" on="1"/>
        <pt x="83" y="307" on="0"/>
        <pt x="185" y="513" on="0"/>
        <pt x="315" y="695" on="0"/>
        <pt x="469" y="841" on="0"/>
        <pt x="550" y="883" on="1"/>
        <pt x="641" y="927" on="0"/>
        <pt x="795" y="936" on="0"/>
        <pt x="918" y="887" on="0"/>
        <pt x="1009" y="788" on="0"/>
        <pt x="1068" y="660" on="0"/>
        <pt x="1093" y="514" on="0"/>
        <pt x="1083" y="369" on="0"/>
        <pt x="1037" y="235" on="0"/>
        <pt x="955" y="132" on="0"/>
        <pt x="835" y="71" on="0"/>
        <pt x="755" y="71" on="1"/>
        <pt x="691" y="71" on="0"/>
        <pt x="591" y="141" on="0"/>
        <pt x="574" y="205" on="1"/>
        <pt x="564" y="210" on="0"/>
        <pt x="538" y="192" on="0"/>
        <pt x="504" y="162" on="0"/>
        <pt x="466" y="128" on="0"/>
        <pt x="423" y="106" on="0"/>
        <pt x="377" y="103" on="0"/>
        <pt x="354" y="119" on="1"/>
        <pt x="324" y="139" on="0"/>
        <pt x="300" y="226" on="0"/>
        <pt x="304" y="338" on="0"/>
        <pt x="333" y="462" on="0"/>
        <pt x="376" y="573" on="0"/>
        <pt x="432" y="660" on="0"/>
        <pt x="491" y="699" on="0"/>
        <pt x="549" y="677" on="0"/>
        <pt x="574" y="623" on="1"/>
        <pt x="601" y="565" on="0"/>
        <pt x="634" y="436" on="0"/>
        <pt x="629" y="371" on="1"/>
        <pt x="612" y="364" on="0"/>
        <pt x="602" y="321" on="0"/>
        <pt x="605" y="271" on="0"/>
        <pt x="616" y="224" on="0"/>
        <pt x="621" y="213" on="1"/>
        <pt x="639" y="173" on="0"/>
        <pt x="709" y="130" on="0"/>
        <pt x="791" y="121" on="0"/>
        <pt x="874" y="145" on="0"/>
        <pt x="905" y="173" on="1"/>
        <pt x="999" y="258" on="0"/>
        <pt x="1064" y="482" on="0"/>
        <pt x="1039" y="607" on="1"/>
        <pt x="1028" y="659" on="0"/>
        <pt x="985" y="755" on="0"/>
        <pt x="919" y="830" on="0"/>
        <pt x="828" y="878" on="0"/>
        <pt x="771" y="883" on="1"/>
        <pt x="699" y="888" on="0"/>
        <pt x="557" y="840" on="0"/>
        <pt x="424" y="750" on="0"/>
        <pt x="304" y="626" on="0"/>
        <pt x="203" y="483" on="0"/>
        <pt x="127" y="330" on="0"/>
        <pt x="82" y="182" on="0"/>
        <pt x="72" y="48" on="0"/>
        <pt x="105" y="-58" on="0"/>
        <pt x="184" y="-126" on="0"/>
        <pt x="251" y="-134" on="1"/>
        <pt x="267" y="-136" on="0"/>
        <pt x="303" y="-138" on="0"/>
        <pt x="339" y="-134" on="0"/>
        <pt x="371" y="-122" on="0"/>
        <pt x="384" y="-110" on="1"/>
        <pt x="390" y="-112" on="0"/>
        <pt x="394" y="-124" on="0"/>
        <pt x="395" y="-137" on="0"/>
        <pt x="393" y="-149" on="0"/>
        <pt x="393" y="-149" on="1"/>
        <pt x="386" y="-147" on="0"/>
        <pt x="341" y="-153" on="0"/>
        <pt x="287" y="-162" on="0"/>
        <pt x="235" y="-168" on="0"/>
      </contour>
      <contour>
        <pt x="361" y="189" on="1"/>
        <pt x="363" y="187" on="0"/>
        <pt x="375" y="175" on="0"/>
        <pt x="377" y="173" on="1"/>
        <pt x="419" y="168" on="0"/>
        <pt x="486" y="217" on="0"/>
        <pt x="530" y="293" on="0"/>
        <pt x="548" y="382" on="0"/>
        <pt x="542" y="418" on="1"/>
        <pt x="553" y="423" on="0"/>
        <pt x="565" y="464" on="0"/>
        <pt x="567" y="519" on="0"/>
        <pt x="559" y="577" on="0"/>
        <pt x="542" y="624" on="0"/>
        <pt x="516" y="650" on="0"/>
        <pt x="480" y="638" on="0"/>
        <pt x="436" y="580" on="0"/>
        <pt x="409" y="520" on="1"/>
        <pt x="375" y="446" on="0"/>
        <pt x="341" y="296" on="0"/>
        <pt x="346" y="213" on="1"/>
        <pt x="348" y="210" on="0"/>
        <pt x="359" y="192" on="0"/>
      </contour>
      <contour>
        <pt x="566" y="237" on="1"/>
        <pt x="561" y="237" on="0"/>
        <pt x="561" y="221" on="0"/>
        <pt x="566" y="221" on="1"/>
        <pt x="572" y="221" on="0"/>
        <pt x="572" y="237" on="0"/>
      </contour>
    </TTGlyph>
    <TTGlyph name="atilde" xMin="-46" yMin="3" xMax="560" yMax="811">
      <component glyphName="a" x="0" y="0" flags="0x1204"/>
      <component glyphName="tilde" x="-206" y="86" flags="0x1004"/>
    </TTGlyph>
    <TTGlyph name="b" xMin="21" yMin="0" xMax="485" yMax="717">
      <contour>
        <pt x="126" y="8" on="1"/>
        <pt x="117" y="13" on="0"/>
        <pt x="104" y="41" on="0"/>
        <pt x="102" y="47" on="1"/>
        <pt x="104" y="122" on="0"/>
        <pt x="100" y="279" on="0"/>
        <pt x="86" y="354" on="1"/>
        <pt x="85" y="360" on="0"/>
        <pt x="71" y="425" on="0"/>
        <pt x="53" y="508" on="0"/>
        <pt x="36" y="590" on="0"/>
        <pt x="31" y="614" on="1"/>
        <pt x="28" y="630" on="0"/>
        <pt x="19" y="681" on="0"/>
        <pt x="23" y="716" on="0"/>
        <pt x="44" y="718" on="0"/>
        <pt x="71" y="685" on="1"/>
        <pt x="71" y="680" on="0"/>
        <pt x="73" y="653" on="0"/>
        <pt x="75" y="623" on="0"/>
        <pt x="78" y="596" on="0"/>
        <pt x="79" y="591" on="1"/>
        <pt x="82" y="570" on="0"/>
        <pt x="94" y="503" on="0"/>
        <pt x="107" y="437" on="0"/>
        <pt x="117" y="388" on="0"/>
        <pt x="118" y="386" on="1"/>
        <pt x="126" y="371" on="1"/>
        <pt x="131" y="393" on="0"/>
        <pt x="151" y="447" on="0"/>
        <pt x="182" y="496" on="0"/>
        <pt x="224" y="531" on="0"/>
        <pt x="252" y="536" on="1"/>
        <pt x="318" y="546" on="0"/>
        <pt x="413" y="497" on="0"/>
        <pt x="470" y="406" on="0"/>
        <pt x="492" y="288" on="0"/>
        <pt x="478" y="171" on="0"/>
        <pt x="430" y="68" on="0"/>
        <pt x="350" y="8" on="0"/>
        <pt x="237" y="6" on="0"/>
        <pt x="165" y="47" on="1"/>
        <pt x="164" y="35" on="0"/>
        <pt x="161" y="14" on="0"/>
        <pt x="152" y="1" on="0"/>
        <pt x="138" y="0" on="0"/>
      </contour>
      <contour>
        <pt x="236" y="71" on="1"/>
        <pt x="283" y="52" on="0"/>
        <pt x="372" y="78" on="0"/>
        <pt x="401" y="118" on="1"/>
        <pt x="440" y="172" on="0"/>
        <pt x="459" y="284" on="0"/>
        <pt x="436" y="382" on="0"/>
        <pt x="382" y="457" on="0"/>
        <pt x="315" y="492" on="0"/>
        <pt x="243" y="478" on="0"/>
        <pt x="186" y="398" on="0"/>
        <pt x="152" y="242" on="0"/>
        <pt x="157" y="118" on="1"/>
        <pt x="157" y="121" on="0"/>
        <pt x="161" y="132" on="0"/>
        <pt x="166" y="145" on="0"/>
        <pt x="171" y="156" on="0"/>
        <pt x="173" y="158" on="1"/>
        <pt x="176" y="163" on="0"/>
        <pt x="195" y="175" on="0"/>
        <pt x="197" y="173" on="1"/>
        <pt x="205" y="166" on="1"/>
        <pt x="203" y="150" on="0"/>
        <pt x="201" y="121" on="0"/>
        <pt x="206" y="96" on="0"/>
        <pt x="221" y="77" on="0"/>
      </contour>
    </TTGlyph>
    <TTGlyph name="backslash" xMin="33" yMin="50" xMax="495" yMax="722">
      <contour>
        <pt x="482" y="53" on="1"/>
        <pt x="460" y="39" on="0"/>
        <pt x="432" y="61" on="0"/>
        <pt x="414" y="100" on="0"/>
        <pt x="404" y="142" on="0"/>
        <pt x="401" y="150" on="1"/>
        <pt x="372" y="207" on="0"/>
        <pt x="324" y="301" on="0"/>
        <pt x="274" y="388" on="0"/>
        <pt x="217" y="474" on="0"/>
        <pt x="181" y="522" on="1"/>
        <pt x="167" y="541" on="0"/>
        <pt x="125" y="579" on="0"/>
        <pt x="83" y="619" on="0"/>
        <pt x="48" y="661" on="0"/>
        <pt x="40" y="684" on="1"/>
        <pt x="31" y="708" on="0"/>
        <pt x="35" y="725" on="0"/>
        <pt x="54" y="718" on="0"/>
        <pt x="84" y="693" on="0"/>
        <pt x="101" y="676" on="1"/>
        <pt x="141" y="636" on="0"/>
        <pt x="199" y="570" on="1"/>
        <pt x="242" y="516" on="0"/>
        <pt x="309" y="413" on="0"/>
        <pt x="369" y="308" on="0"/>
        <pt x="429" y="197" on="0"/>
        <pt x="464" y="134" on="1"/>
        <pt x="468" y="127" on="0"/>
        <pt x="484" y="106" on="0"/>
        <pt x="495" y="83" on="0"/>
        <pt x="494" y="61" on="0"/>
      </contour>
    </TTGlyph>
    <TTGlyph name="bar" xMin="8" yMin="-6" xMax="166" yMax="709">
      <contour>
        <pt x="102" y="8" on="1"/>
        <pt x="95" y="18" on="0"/>
        <pt x="94" y="39" on="0"/>
        <pt x="98" y="60" on="0"/>
        <pt x="103" y="82" on="0"/>
        <pt x="102" y="94" on="1"/>
        <pt x="97" y="239" on="0"/>
        <pt x="53" y="534" on="0"/>
        <pt x="8" y="670" on="1"/>
        <pt x="4" y="682" on="0"/>
        <pt x="21" y="702" on="0"/>
        <pt x="47" y="711" on="0"/>
        <pt x="74" y="706" on="0"/>
        <pt x="79" y="693" on="1"/>
        <pt x="78" y="612" on="0"/>
        <pt x="92" y="442" on="0"/>
        <pt x="116" y="270" on="0"/>
        <pt x="148" y="102" on="0"/>
        <pt x="166" y="24" on="1"/>
        <pt x="163" y="15" on="0"/>
        <pt x="148" y="-1" on="0"/>
        <pt x="129" y="-8" on="0"/>
        <pt x="110" y="-3" on="0"/>
      </contour>
    </TTGlyph>
    <TTGlyph name="braceleft" xMin="24" yMin="-143" xMax="533" yMax="842">
      <contour>
        <pt x="329" y="-134" on="1"/>
        <pt x="281" y="-120" on="0"/>
        <pt x="214" y="-73" on="0"/>
        <pt x="203" y="-23" on="1"/>
        <pt x="203" y="-16" on="0"/>
        <pt x="204" y="32" on="0"/>
        <pt x="206" y="98" on="0"/>
        <pt x="209" y="172" on="0"/>
        <pt x="211" y="238" on="0"/>
        <pt x="213" y="286" on="0"/>
        <pt x="213" y="292" on="1"/>
        <pt x="214" y="324" on="0"/>
        <pt x="211" y="359" on="0"/>
        <pt x="191" y="377" on="0"/>
        <pt x="149" y="386" on="0"/>
        <pt x="111" y="394" on="1"/>
        <pt x="98" y="384" on="0"/>
        <pt x="64" y="386" on="0"/>
        <pt x="36" y="404" on="0"/>
        <pt x="19" y="433" on="0"/>
        <pt x="24" y="449" on="1"/>
        <pt x="28" y="464" on="0"/>
        <pt x="49" y="489" on="0"/>
        <pt x="55" y="504" on="1"/>
        <pt x="70" y="494" on="0"/>
        <pt x="99" y="500" on="0"/>
        <pt x="124" y="522" on="0"/>
        <pt x="145" y="557" on="0"/>
        <pt x="160" y="593" on="0"/>
        <pt x="166" y="627" on="0"/>
        <pt x="165" y="638" on="1"/>
        <pt x="158" y="693" on="0"/>
        <pt x="128" y="763" on="0"/>
        <pt x="108" y="803" on="0"/>
        <pt x="110" y="819" on="0"/>
        <pt x="160" y="825" on="0"/>
        <pt x="271" y="826" on="0"/>
        <pt x="371" y="831" on="1"/>
        <pt x="381" y="831" on="0"/>
        <pt x="397" y="836" on="0"/>
        <pt x="413" y="841" on="0"/>
        <pt x="431" y="842" on="0"/>
        <pt x="442" y="838" on="1"/>
        <pt x="451" y="835" on="0"/>
        <pt x="458" y="821" on="0"/>
        <pt x="460" y="805" on="0"/>
        <pt x="458" y="788" on="0"/>
        <pt x="457" y="783" on="1"/>
        <pt x="456" y="776" on="0"/>
        <pt x="425" y="771" on="0"/>
        <pt x="377" y="770" on="0"/>
        <pt x="318" y="771" on="0"/>
        <pt x="261" y="768" on="0"/>
        <pt x="211" y="761" on="0"/>
        <pt x="197" y="752" on="1"/>
        <pt x="204" y="710" on="0"/>
        <pt x="219" y="652" on="0"/>
        <pt x="228" y="609" on="0"/>
        <pt x="226" y="574" on="0"/>
        <pt x="207" y="536" on="0"/>
        <pt x="168" y="490" on="0"/>
        <pt x="134" y="457" on="1"/>
        <pt x="172" y="443" on="0"/>
        <pt x="242" y="421" on="0"/>
        <pt x="284" y="425" on="1"/>
        <pt x="290" y="415" on="0"/>
        <pt x="289" y="352" on="0"/>
        <pt x="281" y="266" on="0"/>
        <pt x="268" y="168" on="0"/>
        <pt x="257" y="78" on="0"/>
        <pt x="249" y="7" on="0"/>
        <pt x="250" y="-8" on="1"/>
        <pt x="255" y="-25" on="0"/>
        <pt x="284" y="-57" on="0"/>
        <pt x="323" y="-82" on="0"/>
        <pt x="369" y="-98" on="0"/>
        <pt x="412" y="-99" on="0"/>
        <pt x="450" y="-82" on="0"/>
        <pt x="462" y="-62" on="1"/>
        <pt x="492" y="-53" on="0"/>
        <pt x="528" y="-64" on="0"/>
        <pt x="538" y="-91" on="0"/>
        <pt x="523" y="-126" on="0"/>
        <pt x="502" y="-141" on="1"/>
        <pt x="477" y="-140" on="0"/>
        <pt x="435" y="-142" on="0"/>
        <pt x="395" y="-144" on="0"/>
        <pt x="353" y="-141" on="0"/>
      </contour>
    </TTGlyph>
    <TTGlyph name="braceright" xMin="18" yMin="-206" xMax="543" yMax="898">
      <contour>
        <pt x="339" y="-199" on="1"/>
        <pt x="337" y="-197" on="0"/>
        <pt x="337" y="-183" on="0"/>
        <pt x="340" y="-167" on="0"/>
        <pt x="344" y="-154" on="0"/>
        <pt x="346" y="-152" on="1"/>
        <pt x="362" y="-139" on="0"/>
        <pt x="390" y="-124" on="0"/>
        <pt x="416" y="-110" on="0"/>
        <pt x="442" y="-91" on="0"/>
        <pt x="457" y="-73" on="1"/>
        <pt x="501" y="-19" on="0"/>
        <pt x="518" y="59" on="0"/>
        <pt x="490" y="115" on="0"/>
        <pt x="434" y="154" on="0"/>
        <pt x="374" y="184" on="0"/>
        <pt x="327" y="210" on="0"/>
        <pt x="323" y="226" on="1"/>
        <pt x="319" y="244" on="0"/>
        <pt x="332" y="272" on="0"/>
        <pt x="357" y="296" on="0"/>
        <pt x="387" y="318" on="0"/>
        <pt x="411" y="342" on="0"/>
        <pt x="423" y="368" on="0"/>
        <pt x="418" y="384" on="1"/>
        <pt x="360" y="380" on="0"/>
        <pt x="290" y="408" on="0"/>
        <pt x="254" y="460" on="0"/>
        <pt x="246" y="531" on="0"/>
        <pt x="255" y="608" on="0"/>
        <pt x="274" y="686" on="0"/>
        <pt x="292" y="754" on="0"/>
        <pt x="303" y="807" on="0"/>
        <pt x="299" y="819" on="1"/>
        <pt x="291" y="820" on="0"/>
        <pt x="234" y="809" on="0"/>
        <pt x="162" y="796" on="0"/>
        <pt x="86" y="786" on="0"/>
        <pt x="30" y="789" on="0"/>
        <pt x="7" y="810" on="0"/>
        <pt x="24" y="835" on="1"/>
        <pt x="31" y="846" on="0"/>
        <pt x="47" y="851" on="1"/>
        <pt x="80" y="849" on="0"/>
        <pt x="157" y="852" on="0"/>
        <pt x="235" y="863" on="0"/>
        <pt x="308" y="883" on="0"/>
        <pt x="338" y="898" on="1"/>
        <pt x="349" y="903" on="0"/>
        <pt x="369" y="887" on="0"/>
        <pt x="383" y="861" on="0"/>
        <pt x="389" y="833" on="0"/>
        <pt x="386" y="827" on="1"/>
        <pt x="385" y="825" on="0"/>
        <pt x="373" y="811" on="0"/>
        <pt x="359" y="795" on="0"/>
        <pt x="347" y="781" on="0"/>
        <pt x="346" y="780" on="1"/>
        <pt x="341" y="773" on="0"/>
        <pt x="331" y="727" on="0"/>
        <pt x="321" y="663" on="0"/>
        <pt x="313" y="592" on="0"/>
        <pt x="308" y="528" on="0"/>
        <pt x="306" y="479" on="0"/>
        <pt x="308" y="471" on="1"/>
        <pt x="311" y="448" on="0"/>
        <pt x="342" y="444" on="0"/>
        <pt x="386" y="456" on="0"/>
        <pt x="435" y="475" on="0"/>
        <pt x="477" y="476" on="0"/>
        <pt x="504" y="447" on="0"/>
        <pt x="504" y="407" on="1"/>
        <pt x="504" y="405" on="0"/>
        <pt x="493" y="382" on="0"/>
        <pt x="489" y="376" on="1"/>
        <pt x="488" y="375" on="0"/>
        <pt x="482" y="368" on="0"/>
        <pt x="481" y="368" on="1"/>
        <pt x="474" y="357" on="0"/>
        <pt x="452" y="323" on="0"/>
        <pt x="432" y="290" on="0"/>
        <pt x="418" y="266" on="0"/>
        <pt x="418" y="266" on="1"/>
        <pt x="418" y="258" on="1"/>
        <pt x="476" y="207" on="0"/>
        <pt x="535" y="109" on="0"/>
        <pt x="550" y="19" on="0"/>
        <pt x="530" y="-60" on="0"/>
        <pt x="489" y="-125" on="0"/>
        <pt x="436" y="-173" on="0"/>
        <pt x="386" y="-202" on="0"/>
        <pt x="346" y="-209" on="0"/>
      </contour>
    </TTGlyph>
    <TTGlyph name="bracketleft" xMin="30" yMin="-147" xMax="607" yMax="823">
      <contour>
        <pt x="497" y="-131" on="1"/>
        <pt x="483" y="-126" on="0"/>
        <pt x="449" y="-127" on="0"/>
        <pt x="416" y="-129" on="0"/>
        <pt x="387" y="-125" on="0"/>
        <pt x="378" y="-114" on="1"/>
        <pt x="366" y="-114" on="0"/>
        <pt x="308" y="-110" on="0"/>
        <pt x="243" y="-105" on="0"/>
        <pt x="185" y="-100" on="0"/>
        <pt x="173" y="-99" on="1"/>
        <pt x="153" y="-97" on="0"/>
        <pt x="91" y="-96" on="0"/>
        <pt x="41" y="-82" on="0"/>
        <pt x="20" y="-48" on="0"/>
        <pt x="40" y="-12" on="1"/>
        <pt x="41" y="16" on="0"/>
        <pt x="36" y="149" on="0"/>
        <pt x="33" y="319" on="0"/>
        <pt x="35" y="505" on="0"/>
        <pt x="49" y="667" on="0"/>
        <pt x="78" y="784" on="0"/>
        <pt x="104" y="800" on="1"/>
        <pt x="134" y="799" on="0"/>
        <pt x="207" y="810" on="0"/>
        <pt x="282" y="821" on="0"/>
        <pt x="352" y="825" on="0"/>
        <pt x="379" y="816" on="1"/>
        <pt x="405" y="807" on="0"/>
        <pt x="407" y="783" on="0"/>
        <pt x="380" y="763" on="0"/>
        <pt x="332" y="754" on="0"/>
        <pt x="309" y="761" on="1"/>
        <pt x="302" y="760" on="0"/>
        <pt x="259" y="757" on="0"/>
        <pt x="207" y="753" on="0"/>
        <pt x="156" y="748" on="0"/>
        <pt x="143" y="745" on="1"/>
        <pt x="127" y="741" on="0"/>
        <pt x="106" y="677" on="0"/>
        <pt x="94" y="577" on="0"/>
        <pt x="89" y="451" on="0"/>
        <pt x="89" y="317" on="0"/>
        <pt x="93" y="186" on="0"/>
        <pt x="97" y="78" on="0"/>
        <pt x="101" y="1" on="0"/>
        <pt x="102" y="-12" on="1"/>
        <pt x="108" y="-24" on="0"/>
        <pt x="148" y="-39" on="0"/>
        <pt x="193" y="-47" on="0"/>
        <pt x="236" y="-51" on="0"/>
        <pt x="245" y="-52" on="1"/>
        <pt x="295" y="-56" on="0"/>
        <pt x="384" y="-63" on="0"/>
        <pt x="470" y="-67" on="0"/>
        <pt x="558" y="-69" on="0"/>
        <pt x="607" y="-67" on="1"/>
        <pt x="607" y="-99" on="1"/>
        <pt x="544" y="-146" on="1"/>
        <pt x="542" y="-147" on="0"/>
        <pt x="530" y="-147" on="0"/>
        <pt x="528" y="-146" on="1"/>
        <pt x="527" y="-146" on="0"/>
        <pt x="518" y="-141" on="0"/>
        <pt x="507" y="-136" on="0"/>
        <pt x="498" y="-131" on="0"/>
      </contour>
    </TTGlyph>
    <TTGlyph name="bracketright" xMin="7" yMin="-141" xMax="554" yMax="872">
      <contour>
        <pt x="180" y="-135" on="1"/>
        <pt x="179" y="-131" on="0"/>
        <pt x="179" y="-106" on="0"/>
        <pt x="180" y="-103" on="1"/>
        <pt x="196" y="-96" on="0"/>
        <pt x="252" y="-85" on="0"/>
        <pt x="318" y="-75" on="0"/>
        <pt x="388" y="-65" on="0"/>
        <pt x="447" y="-50" on="0"/>
        <pt x="489" y="-30" on="0"/>
        <pt x="495" y="-16" on="1"/>
        <pt x="501" y="0" on="0"/>
        <pt x="500" y="41" on="0"/>
        <pt x="495" y="85" on="0"/>
        <pt x="488" y="126" on="0"/>
        <pt x="487" y="142" on="1"/>
        <pt x="486" y="153" on="0"/>
        <pt x="485" y="211" on="0"/>
        <pt x="483" y="292" on="0"/>
        <pt x="481" y="388" on="0"/>
        <pt x="479" y="486" on="0"/>
        <pt x="477" y="578" on="0"/>
        <pt x="476" y="650" on="0"/>
        <pt x="475" y="696" on="0"/>
        <pt x="475" y="698" on="1"/>
        <pt x="474" y="710" on="0"/>
        <pt x="471" y="746" on="0"/>
        <pt x="462" y="780" on="0"/>
        <pt x="444" y="803" on="0"/>
        <pt x="428" y="801" on="1"/>
        <pt x="417" y="800" on="0"/>
        <pt x="368" y="793" on="0"/>
        <pt x="315" y="785" on="0"/>
        <pt x="269" y="778" on="0"/>
        <pt x="262" y="777" on="1"/>
        <pt x="233" y="772" on="0"/>
        <pt x="172" y="753" on="0"/>
        <pt x="110" y="735" on="0"/>
        <pt x="49" y="725" on="0"/>
        <pt x="19" y="730" on="1"/>
        <pt x="5" y="746" on="0"/>
        <pt x="10" y="770" on="0"/>
        <pt x="32" y="788" on="0"/>
        <pt x="62" y="799" on="0"/>
        <pt x="74" y="801" on="1"/>
        <pt x="90" y="804" on="0"/>
        <pt x="156" y="816" on="0"/>
        <pt x="226" y="829" on="0"/>
        <pt x="285" y="839" on="0"/>
        <pt x="294" y="841" on="1"/>
        <pt x="303" y="842" on="0"/>
        <pt x="355" y="855" on="0"/>
        <pt x="416" y="867" on="0"/>
        <pt x="474" y="875" on="0"/>
        <pt x="491" y="872" on="1"/>
        <pt x="496" y="861" on="0"/>
        <pt x="508" y="768" on="0"/>
        <pt x="520" y="631" on="0"/>
        <pt x="532" y="463" on="0"/>
        <pt x="542" y="291" on="0"/>
        <pt x="550" y="128" on="0"/>
        <pt x="554" y="0" on="0"/>
        <pt x="553" y="-78" on="0"/>
        <pt x="550" y="-79" on="1"/>
        <pt x="545" y="-79" on="0"/>
        <pt x="487" y="-92" on="0"/>
        <pt x="406" y="-109" on="0"/>
        <pt x="315" y="-127" on="0"/>
        <pt x="236" y="-139" on="0"/>
        <pt x="182" y="-142" on="0"/>
      </contour>
    </TTGlyph>
    <TTGlyph name="breve" xMin="43" yMin="553" xMax="231" yMax="652">
      <contour>
        <pt x="76" y="652" on="1"/>
        <pt x="79" y="625" on="0"/>
        <pt x="119" y="590" on="0"/>
        <pt x="164" y="583" on="0"/>
        <pt x="199" y="609" on="0"/>
        <pt x="198" y="645" on="1"/>
        <pt x="231" y="652" on="1"/>
        <pt x="232" y="616" on="0"/>
        <pt x="207" y="571" on="0"/>
        <pt x="168" y="551" on="0"/>
        <pt x="121" y="555" on="0"/>
        <pt x="78" y="579" on="0"/>
        <pt x="47" y="622" on="0"/>
        <pt x="43" y="651" on="1"/>
      </contour>
    </TTGlyph>
    <TTGlyph name="brokenbar" xMin="31" yMin="3" xMax="111" yMax="654">
      <contour>
        <pt x="38" y="399" on="1"/>
        <pt x="40" y="453" on="0"/>
        <pt x="41" y="560" on="0"/>
        <pt x="40" y="614" on="1"/>
        <pt x="41" y="631" on="0"/>
        <pt x="57" y="652" on="0"/>
        <pt x="77" y="656" on="0"/>
        <pt x="96" y="641" on="0"/>
        <pt x="102" y="623" on="1"/>
        <pt x="102" y="614" on="1"/>
        <pt x="94" y="560" on="0"/>
        <pt x="87" y="449" on="0"/>
        <pt x="85" y="392" on="1"/>
      </contour>
      <contour>
        <pt x="91" y="332" on="1"/>
        <pt x="90" y="295" on="0"/>
        <pt x="88" y="241" on="0"/>
        <pt x="87" y="191" on="0"/>
        <pt x="86" y="138" on="0"/>
        <pt x="87" y="102" on="1"/>
        <pt x="90" y="104" on="0"/>
        <pt x="104" y="113" on="0"/>
        <pt x="111" y="111" on="1"/>
        <pt x="112" y="97" on="0"/>
        <pt x="106" y="51" on="0"/>
        <pt x="89" y="12" on="0"/>
        <pt x="61" y="-6" on="0"/>
        <pt x="40" y="8" on="1"/>
        <pt x="38" y="8" on="0"/>
        <pt x="33" y="14" on="0"/>
        <pt x="32" y="15" on="1"/>
        <pt x="31" y="63" on="0"/>
        <pt x="31" y="136" on="0"/>
        <pt x="33" y="203" on="0"/>
        <pt x="36" y="276" on="0"/>
        <pt x="38" y="324" on="1"/>
      </contour>
    </TTGlyph>
    <TTGlyph name="bullet" xMin="57" yMin="255" xMax="212" yMax="406">
      <contour>
        <pt x="97" y="258" on="1"/>
        <pt x="64" y="280" on="0"/>
        <pt x="51" y="336" on="0"/>
        <pt x="78" y="382" on="0"/>
        <pt x="138" y="410" on="0"/>
        <pt x="179" y="406" on="1"/>
        <pt x="210" y="374" on="0"/>
        <pt x="214" y="311" on="0"/>
        <pt x="183" y="265" on="0"/>
        <pt x="127" y="246" on="0"/>
      </contour>
    </TTGlyph>
    <TTGlyph name="c" xMin="26" yMin="-8" xMax="405" yMax="512">
      <contour>
        <pt x="134" y="15" on="1"/>
        <pt x="108" y="35" on="0"/>
        <pt x="63" y="117" on="0"/>
        <pt x="33" y="218" on="0"/>
        <pt x="21" y="328" on="0"/>
        <pt x="31" y="425" on="0"/>
        <pt x="68" y="498" on="0"/>
        <pt x="102" y="512" on="1"/>
        <pt x="130" y="523" on="0"/>
        <pt x="171" y="492" on="0"/>
        <pt x="197" y="441" on="0"/>
        <pt x="206" y="387" on="0"/>
        <pt x="196" y="362" on="0"/>
        <pt x="167" y="383" on="0"/>
        <pt x="142" y="433" on="1"/>
        <pt x="131" y="456" on="0"/>
        <pt x="106" y="441" on="0"/>
        <pt x="85" y="385" on="0"/>
        <pt x="72" y="300" on="0"/>
        <pt x="71" y="208" on="0"/>
        <pt x="86" y="121" on="0"/>
        <pt x="122" y="60" on="0"/>
        <pt x="183" y="37" on="0"/>
        <pt x="228" y="55" on="1"/>
        <pt x="237" y="59" on="0"/>
        <pt x="277" y="101" on="0"/>
        <pt x="324" y="153" on="0"/>
        <pt x="370" y="201" on="0"/>
        <pt x="401" y="219" on="0"/>
        <pt x="409" y="196" on="0"/>
        <pt x="394" y="150" on="1"/>
        <pt x="383" y="115" on="0"/>
        <pt x="326" y="44" on="0"/>
        <pt x="253" y="-3" on="0"/>
        <pt x="171" y="-12" on="0"/>
      </contour>
    </TTGlyph>
    <TTGlyph name="cacute" xMin="26" yMin="-8" xMax="405" yMax="730">
      <component glyphName="c" x="0" y="0" flags="0x1204"/>
      <component glyphName="acute" x="2" y="0" flags="0x1004"/>
    </TTGlyph>
    <TTGlyph name="caron" xMin="90" yMin="580" xMax="402" yMax="713">
      <contour>
        <pt x="114" y="713" on="1"/>
        <pt x="142" y="721" on="0"/>
        <pt x="186" y="697" on="0"/>
        <pt x="223" y="664" on="0"/>
        <pt x="257" y="636" on="0"/>
        <pt x="276" y="640" on="1"/>
        <pt x="281" y="646" on="0"/>
        <pt x="308" y="669" on="0"/>
        <pt x="343" y="691" on="0"/>
        <pt x="380" y="705" on="0"/>
        <pt x="395" y="702" on="1"/>
        <pt x="411" y="698" on="0"/>
        <pt x="392" y="663" on="0"/>
        <pt x="350" y="621" on="0"/>
        <pt x="296" y="585" on="0"/>
        <pt x="278" y="580" on="1"/>
        <pt x="268" y="580" on="1"/>
        <pt x="254" y="584" on="0"/>
        <pt x="236" y="598" on="0"/>
        <pt x="227" y="603" on="1"/>
        <pt x="223" y="605" on="0"/>
        <pt x="199" y="622" on="0"/>
        <pt x="169" y="644" on="0"/>
        <pt x="135" y="669" on="0"/>
        <pt x="107" y="689" on="0"/>
        <pt x="90" y="703" on="0"/>
        <pt x="90" y="703" on="1"/>
        <pt x="93" y="705" on="0"/>
        <pt x="112" y="712" on="0"/>
      </contour>
    </TTGlyph>
    <TTGlyph name="ccaron" xMin="26" yMin="-8" xMax="405" yMax="713">
      <component glyphName="c" x="0" y="0" flags="0x1204"/>
      <component glyphName="caron" x="-38" y="0" flags="0x1004"/>
    </TTGlyph>
    <TTGlyph name="ccedilla" xMin="26" yMin="-349" xMax="405" yMax="512">
      <component glyphName="c" x="0" y="0" flags="0x1204"/>
      <component glyphName="cedilla" x="-60" y="5" flags="0x1004"/>
    </TTGlyph>
    <TTGlyph name="ccircumflex" xMin="26" yMin="-8" xMax="405" yMax="813">
      <component glyphName="c" x="0" y="0" flags="0x1204"/>
      <component glyphName="circumflex" x="-11" y="0" flags="0x1004"/>
    </TTGlyph>
    <TTGlyph name="cdotaccent" xMin="26" yMin="-8" xMax="405" yMax="696">
      <component glyphName="c" x="0" y="0" flags="0x1204"/>
      <component glyphName="dotaccent" x="87" y="0" flags="0x1004"/>
    </TTGlyph>
    <TTGlyph name="cedilla" xMin="214" yMin="-354" xMax="386" yMax="19">
      <contour>
        <pt x="214" y="-318" on="1"/>
        <pt x="226" y="-326" on="0"/>
        <pt x="264" y="-314" on="0"/>
        <pt x="300" y="-283" on="0"/>
        <pt x="326" y="-237" on="0"/>
        <pt x="324" y="-185" on="0"/>
        <pt x="286" y="-130" on="0"/>
        <pt x="241" y="-106" on="1"/>
        <pt x="245" y="-97" on="0"/>
        <pt x="241" y="-63" on="0"/>
        <pt x="233" y="-27" on="0"/>
        <pt x="230" y="4" on="0"/>
        <pt x="236" y="10" on="1"/>
        <pt x="254" y="29" on="0"/>
        <pt x="264" y="9" on="0"/>
        <pt x="270" y="-36" on="0"/>
        <pt x="283" y="-87" on="0"/>
        <pt x="303" y="-99" on="1"/>
        <pt x="360" y="-132" on="0"/>
        <pt x="396" y="-207" on="0"/>
        <pt x="375" y="-276" on="0"/>
        <pt x="307" y="-332" on="0"/>
        <pt x="261" y="-345" on="1"/>
        <pt x="255" y="-354" on="0"/>
        <pt x="246" y="-353" on="0"/>
        <pt x="236" y="-341" on="0"/>
        <pt x="223" y="-324" on="0"/>
      </contour>
    </TTGlyph>
    <TTGlyph name="cent" xMin="73" yMin="-115" xMax="407" yMax="583">
      <contour>
        <pt x="223" y="-101" on="1"/>
        <pt x="215" y="-90" on="0"/>
        <pt x="207" y="-37" on="0"/>
        <pt x="205" y="-8" on="1"/>
        <pt x="167" y="-8" on="0"/>
        <pt x="134" y="15" on="1"/>
        <pt x="110" y="33" on="0"/>
        <pt x="81" y="102" on="0"/>
        <pt x="70" y="188" on="0"/>
        <pt x="77" y="283" on="0"/>
        <pt x="100" y="373" on="0"/>
        <pt x="138" y="449" on="0"/>
        <pt x="165" y="473" on="1"/>
        <pt x="160" y="496" on="0"/>
        <pt x="147" y="540" on="0"/>
        <pt x="139" y="565" on="1"/>
        <pt x="135" y="577" on="0"/>
        <pt x="154" y="585" on="0"/>
        <pt x="183" y="580" on="0"/>
        <pt x="212" y="562" on="0"/>
        <pt x="217" y="549" on="1"/>
        <pt x="217" y="501" on="1"/>
        <pt x="241" y="504" on="0"/>
        <pt x="277" y="467" on="0"/>
        <pt x="298" y="416" on="0"/>
        <pt x="304" y="367" on="0"/>
        <pt x="294" y="347" on="0"/>
        <pt x="265" y="370" on="0"/>
        <pt x="242" y="418" on="1"/>
        <pt x="231" y="437" on="0"/>
        <pt x="218" y="435" on="1"/>
        <pt x="220" y="347" on="0"/>
        <pt x="238" y="177" on="0"/>
        <pt x="252" y="90" on="1"/>
        <pt x="265" y="101" on="0"/>
        <pt x="304" y="141" on="0"/>
        <pt x="345" y="182" on="0"/>
        <pt x="382" y="215" on="0"/>
        <pt x="405" y="221" on="0"/>
        <pt x="408" y="192" on="0"/>
        <pt x="394" y="150" on="1"/>
        <pt x="387" y="130" on="0"/>
        <pt x="362" y="88" on="0"/>
        <pt x="329" y="50" on="0"/>
        <pt x="288" y="18" on="0"/>
        <pt x="266" y="8" on="1"/>
        <pt x="271" y="-15" on="0"/>
        <pt x="282" y="-62" on="0"/>
        <pt x="287" y="-86" on="1"/>
        <pt x="284" y="-95" on="0"/>
        <pt x="269" y="-111" on="0"/>
        <pt x="250" y="-117" on="0"/>
        <pt x="231" y="-112" on="0"/>
      </contour>
      <contour>
        <pt x="179" y="401" on="1"/>
        <pt x="164" y="377" on="0"/>
        <pt x="138" y="308" on="0"/>
        <pt x="121" y="233" on="0"/>
        <pt x="117" y="159" on="0"/>
        <pt x="131" y="101" on="0"/>
        <pt x="168" y="69" on="0"/>
        <pt x="201" y="73" on="1"/>
        <pt x="199" y="121" on="0"/>
        <pt x="197" y="206" on="0"/>
        <pt x="193" y="285" on="0"/>
        <pt x="186" y="362" on="0"/>
      </contour>
    </TTGlyph>
    <TTGlyph name="circumflex" xMin="62" yMin="584" xMax="346" yMax="813">
      <contour>
        <pt x="86" y="590" on="1"/>
        <pt x="84" y="592" on="0"/>
        <pt x="65" y="610" on="0"/>
        <pt x="62" y="614" on="1"/>
        <pt x="61" y="615" on="0"/>
        <pt x="94" y="653" on="0"/>
        <pt x="136" y="702" on="0"/>
        <pt x="176" y="748" on="0"/>
        <pt x="182" y="757" on="1"/>
        <pt x="190" y="770" on="0"/>
        <pt x="207" y="802" on="0"/>
        <pt x="221" y="813" on="1"/>
        <pt x="229" y="813" on="1"/>
        <pt x="258" y="758" on="0"/>
        <pt x="310" y="678" on="0"/>
        <pt x="343" y="625" on="0"/>
        <pt x="349" y="597" on="0"/>
        <pt x="332" y="595" on="1"/>
        <pt x="318" y="588" on="0"/>
        <pt x="286" y="615" on="0"/>
        <pt x="256" y="658" on="0"/>
        <pt x="233" y="704" on="0"/>
        <pt x="229" y="717" on="1"/>
        <pt x="217" y="723" on="0"/>
        <pt x="197" y="702" on="0"/>
        <pt x="177" y="666" on="0"/>
        <pt x="156" y="623" on="0"/>
        <pt x="132" y="591" on="0"/>
        <pt x="103" y="578" on="0"/>
      </contour>
    </TTGlyph>
    <TTGlyph name="colon" xMin="15" yMin="189" xMax="141" yMax="545">
      <contour>
        <pt x="79" y="213" on="1"/>
        <pt x="67" y="230" on="0"/>
        <pt x="67" y="258" on="0"/>
        <pt x="81" y="278" on="0"/>
        <pt x="104" y="289" on="0"/>
        <pt x="125" y="291" on="0"/>
        <pt x="141" y="284" on="0"/>
        <pt x="141" y="276" on="1"/>
        <pt x="141" y="213" on="1"/>
        <pt x="141" y="209" on="0"/>
        <pt x="129" y="202" on="0"/>
        <pt x="113" y="196" on="0"/>
        <pt x="97" y="191" on="0"/>
        <pt x="94" y="189" on="1"/>
        <pt x="102" y="189" on="1"/>
        <pt x="99" y="192" on="0"/>
        <pt x="81" y="210" on="0"/>
      </contour>
      <contour>
        <pt x="54" y="450" on="1"/>
        <pt x="47" y="461" on="0"/>
        <pt x="35" y="472" on="0"/>
        <pt x="25" y="483" on="0"/>
        <pt x="18" y="502" on="0"/>
        <pt x="15" y="520" on="1"/>
        <pt x="18" y="523" on="0"/>
        <pt x="28" y="534" on="0"/>
        <pt x="40" y="543" on="0"/>
        <pt x="51" y="547" on="0"/>
        <pt x="54" y="544" on="1"/>
        <pt x="94" y="505" on="1"/>
        <pt x="101" y="498" on="0"/>
        <pt x="96" y="479" on="0"/>
        <pt x="83" y="461" on="0"/>
        <pt x="66" y="445" on="0"/>
        <pt x="62" y="441" on="1"/>
        <pt x="61" y="442" on="0"/>
        <pt x="55" y="448" on="0"/>
      </contour>
    </TTGlyph>
    <TTGlyph name="comma" xMin="41" yMin="-275" xMax="182" yMax="173">
      <contour>
        <pt x="96" y="-267" on="1"/>
        <pt x="89" y="-262" on="0"/>
        <pt x="89" y="-233" on="0"/>
        <pt x="99" y="-195" on="0"/>
        <pt x="115" y="-150" on="0"/>
        <pt x="131" y="-108" on="0"/>
        <pt x="142" y="-72" on="0"/>
        <pt x="143" y="-62" on="1"/>
        <pt x="144" y="-54" on="0"/>
        <pt x="143" y="-26" on="0"/>
        <pt x="141" y="2" on="0"/>
        <pt x="137" y="27" on="0"/>
        <pt x="135" y="32" on="1"/>
        <pt x="132" y="40" on="0"/>
        <pt x="99" y="73" on="0"/>
        <pt x="63" y="109" on="0"/>
        <pt x="37" y="142" on="0"/>
        <pt x="41" y="150" on="1"/>
        <pt x="55" y="178" on="0"/>
        <pt x="98" y="168" on="0"/>
        <pt x="140" y="112" on="0"/>
        <pt x="175" y="20" on="0"/>
        <pt x="189" y="-88" on="0"/>
        <pt x="173" y="-202" on="0"/>
        <pt x="143" y="-252" on="1"/>
        <pt x="132" y="-270" on="0"/>
        <pt x="115" y="-280" on="0"/>
      </contour>
    </TTGlyph>
    <TTGlyph name="commaaccent" xMin="137" yMin="-353" xMax="275" yMax="-57">
      <contour>
        <pt x="169" y="-339" on="1"/>
        <pt x="168" y="-326" on="0"/>
        <pt x="200" y="-289" on="0"/>
        <pt x="232" y="-247" on="0"/>
        <pt x="248" y="-203" on="0"/>
        <pt x="231" y="-183" on="1"/>
        <pt x="228" y="-175" on="0"/>
        <pt x="195" y="-142" on="0"/>
        <pt x="159" y="-106" on="0"/>
        <pt x="133" y="-73" on="0"/>
        <pt x="137" y="-65" on="1"/>
        <pt x="150" y="-51" on="0"/>
        <pt x="192" y="-63" on="0"/>
        <pt x="234" y="-101" on="0"/>
        <pt x="269" y="-161" on="0"/>
        <pt x="281" y="-230" on="0"/>
        <pt x="263" y="-303" on="0"/>
        <pt x="231" y="-335" on="1"/>
        <pt x="220" y="-353" on="0"/>
        <pt x="188" y="-352" on="0"/>
      </contour>
    </TTGlyph>
    <TTGlyph name="copyright" xMin="80" yMin="-70" xMax="773" yMax="945">
      <contour>
        <pt x="332" y="-70" on="1"/>
        <pt x="281" y="-58" on="0"/>
        <pt x="203" y="16" on="0"/>
        <pt x="145" y="124" on="0"/>
        <pt x="106" y="257" on="0"/>
        <pt x="83" y="397" on="0"/>
        <pt x="77" y="536" on="0"/>
        <pt x="84" y="656" on="0"/>
        <pt x="103" y="748" on="0"/>
        <pt x="118" y="772" on="1"/>
        <pt x="124" y="782" on="0"/>
        <pt x="141" y="786" on="0"/>
        <pt x="156" y="779" on="0"/>
        <pt x="165" y="763" on="0"/>
        <pt x="164" y="754" on="1"/>
        <pt x="129" y="536" on="0"/>
        <pt x="145" y="235" on="0"/>
        <pt x="219" y="47" on="0"/>
        <pt x="337" y="-38" on="0"/>
        <pt x="468" y="-38" on="0"/>
        <pt x="598" y="36" on="0"/>
        <pt x="697" y="165" on="0"/>
        <pt x="750" y="339" on="0"/>
        <pt x="729" y="539" on="0"/>
        <pt x="618" y="754" on="0"/>
        <pt x="503" y="859" on="1"/>
        <pt x="474" y="885" on="0"/>
        <pt x="417" y="887" on="0"/>
        <pt x="363" y="859" on="0"/>
        <pt x="311" y="810" on="0"/>
        <pt x="287" y="785" on="1"/>
        <pt x="269" y="778" on="0"/>
        <pt x="264" y="804" on="0"/>
        <pt x="282" y="849" on="0"/>
        <pt x="321" y="901" on="0"/>
        <pt x="377" y="939" on="0"/>
        <pt x="447" y="951" on="0"/>
        <pt x="486" y="934" on="1"/>
        <pt x="572" y="896" on="0"/>
        <pt x="692" y="761" on="0"/>
        <pt x="762" y="593" on="0"/>
        <pt x="784" y="406" on="0"/>
        <pt x="760" y="226" on="0"/>
        <pt x="691" y="68" on="0"/>
        <pt x="580" y="-42" on="0"/>
        <pt x="428" y="-90" on="0"/>
      </contour>
      <contour>
        <pt x="390" y="124" on="1"/>
        <pt x="358" y="146" on="0"/>
        <pt x="305" y="237" on="0"/>
        <pt x="269" y="350" on="0"/>
        <pt x="254" y="473" on="0"/>
        <pt x="267" y="582" on="0"/>
        <pt x="311" y="664" on="0"/>
        <pt x="352" y="680" on="1"/>
        <pt x="377" y="689" on="0"/>
        <pt x="417" y="673" on="0"/>
        <pt x="447" y="638" on="0"/>
        <pt x="466" y="591" on="0"/>
        <pt x="473" y="549" on="0"/>
        <pt x="469" y="519" on="0"/>
        <pt x="452" y="516" on="0"/>
        <pt x="421" y="549" on="0"/>
        <pt x="399" y="591" on="1"/>
        <pt x="385" y="617" on="0"/>
        <pt x="356" y="599" on="0"/>
        <pt x="332" y="537" on="0"/>
        <pt x="316" y="442" on="0"/>
        <pt x="315" y="339" on="0"/>
        <pt x="333" y="242" on="0"/>
        <pt x="376" y="174" on="0"/>
        <pt x="449" y="148" on="0"/>
        <pt x="503" y="168" on="1"/>
        <pt x="511" y="171" on="0"/>
        <pt x="542" y="200" on="0"/>
        <pt x="581" y="240" on="0"/>
        <pt x="624" y="285" on="0"/>
        <pt x="664" y="322" on="0"/>
        <pt x="696" y="347" on="0"/>
        <pt x="714" y="345" on="0"/>
        <pt x="713" y="312" on="0"/>
        <pt x="700" y="273" on="1"/>
        <pt x="686" y="235" on="0"/>
        <pt x="619" y="156" on="0"/>
        <pt x="532" y="103" on="0"/>
        <pt x="434" y="93" on="0"/>
      </contour>
    </TTGlyph>
    <TTGlyph name="currency" xMin="29" yMin="31" xMax="438" yMax="535">
      <contour>
        <pt x="95" y="48" on="1"/>
        <pt x="90" y="55" on="0"/>
        <pt x="95" y="73" on="0"/>
        <pt x="105" y="91" on="0"/>
        <pt x="117" y="107" on="0"/>
        <pt x="119" y="112" on="1"/>
        <pt x="121" y="117" on="0"/>
        <pt x="129" y="132" on="0"/>
        <pt x="134" y="140" on="1"/>
        <pt x="115" y="161" on="0"/>
        <pt x="92" y="198" on="0"/>
        <pt x="83" y="237" on="0"/>
        <pt x="86" y="281" on="0"/>
        <pt x="94" y="309" on="1"/>
        <pt x="95" y="312" on="0"/>
        <pt x="98" y="331" on="0"/>
        <pt x="101" y="353" on="0"/>
        <pt x="105" y="373" on="0"/>
        <pt x="106" y="377" on="1"/>
        <pt x="93" y="395" on="0"/>
        <pt x="81" y="417" on="0"/>
        <pt x="72" y="431" on="0"/>
        <pt x="60" y="441" on="0"/>
        <pt x="47" y="447" on="1"/>
        <pt x="42" y="450" on="0"/>
        <pt x="30" y="478" on="0"/>
        <pt x="28" y="506" on="0"/>
        <pt x="41" y="521" on="0"/>
        <pt x="62" y="511" on="1"/>
        <pt x="85" y="499" on="0"/>
        <pt x="120" y="456" on="0"/>
        <pt x="134" y="426" on="1"/>
        <pt x="151" y="459" on="0"/>
        <pt x="176" y="499" on="0"/>
        <pt x="206" y="518" on="0"/>
        <pt x="249" y="522" on="0"/>
        <pt x="284" y="521" on="1"/>
        <pt x="291" y="521" on="0"/>
        <pt x="311" y="506" on="0"/>
        <pt x="331" y="488" on="0"/>
        <pt x="349" y="471" on="0"/>
        <pt x="354" y="468" on="1"/>
        <pt x="367" y="492" on="0"/>
        <pt x="392" y="527" on="0"/>
        <pt x="414" y="541" on="0"/>
        <pt x="431" y="529" on="0"/>
        <pt x="437" y="507" on="1"/>
        <pt x="438" y="505" on="0"/>
        <pt x="438" y="494" on="0"/>
        <pt x="437" y="492" on="1"/>
        <pt x="427" y="467" on="0"/>
        <pt x="407" y="436" on="0"/>
        <pt x="395" y="421" on="1"/>
        <pt x="395" y="368" on="0"/>
        <pt x="382" y="286" on="0"/>
        <pt x="358" y="221" on="0"/>
        <pt x="324" y="169" on="0"/>
        <pt x="303" y="147" on="1"/>
        <pt x="317" y="135" on="0"/>
        <pt x="351" y="106" on="0"/>
        <pt x="362" y="95" on="1"/>
        <pt x="393" y="61" on="0"/>
        <pt x="396" y="36" on="0"/>
        <pt x="368" y="38" on="0"/>
        <pt x="324" y="56" on="0"/>
        <pt x="308" y="65" on="1"/>
        <pt x="294" y="73" on="0"/>
        <pt x="272" y="99" on="0"/>
        <pt x="264" y="114" on="1"/>
        <pt x="245" y="102" on="0"/>
        <pt x="204" y="95" on="0"/>
        <pt x="183" y="103" on="1"/>
        <pt x="174" y="85" on="0"/>
        <pt x="154" y="50" on="0"/>
        <pt x="132" y="31" on="0"/>
        <pt x="108" y="31" on="0"/>
      </contour>
      <contour>
        <pt x="174" y="175" on="1"/>
        <pt x="199" y="154" on="0"/>
        <pt x="255" y="171" on="0"/>
        <pt x="304" y="222" on="0"/>
        <pt x="341" y="298" on="0"/>
        <pt x="356" y="375" on="0"/>
        <pt x="342" y="443" on="0"/>
        <pt x="315" y="461" on="1"/>
        <pt x="278" y="486" on="0"/>
        <pt x="215" y="473" on="0"/>
        <pt x="168" y="421" on="0"/>
        <pt x="140" y="344" on="0"/>
        <pt x="133" y="264" on="0"/>
        <pt x="151" y="193" on="0"/>
      </contour>
      <contour>
        <pt x="332" y="127" on="1"/>
        <pt x="376" y="84" on="1"/>
        <pt x="374" y="85" on="0"/>
        <pt x="372" y="87" on="1"/>
        <pt x="370" y="89" on="0"/>
        <pt x="365" y="92" on="0"/>
        <pt x="362" y="95" on="1"/>
        <pt x="356" y="102" on="0"/>
        <pt x="341" y="118" on="0"/>
      </contour>
    </TTGlyph>
    <TTGlyph name="d" xMin="12" yMin="8" xMax="379" yMax="744">
      <contour>
        <pt x="79" y="24" on="1"/>
        <pt x="62" y="45" on="0"/>
        <pt x="35" y="119" on="0"/>
        <pt x="17" y="211" on="0"/>
        <pt x="9" y="312" on="0"/>
        <pt x="15" y="405" on="0"/>
        <pt x="37" y="482" on="0"/>
        <pt x="78" y="527" on="0"/>
        <pt x="139" y="531" on="0"/>
        <pt x="181" y="504" on="1"/>
        <pt x="216" y="483" on="0"/>
        <pt x="273" y="422" on="0"/>
        <pt x="292" y="386" on="1"/>
        <pt x="292" y="389" on="0"/>
        <pt x="293" y="405" on="0"/>
        <pt x="293" y="422" on="0"/>
        <pt x="292" y="438" on="0"/>
        <pt x="292" y="441" on="1"/>
        <pt x="291" y="448" on="0"/>
        <pt x="286" y="504" on="0"/>
        <pt x="280" y="567" on="0"/>
        <pt x="276" y="623" on="0"/>
        <pt x="276" y="630" on="1"/>
        <pt x="275" y="641" on="0"/>
        <pt x="274" y="675" on="0"/>
        <pt x="274" y="708" on="0"/>
        <pt x="275" y="732" on="0"/>
        <pt x="276" y="732" on="1"/>
        <pt x="284" y="740" on="1"/>
        <pt x="294" y="751" on="0"/>
        <pt x="313" y="737" on="0"/>
        <pt x="328" y="705" on="0"/>
        <pt x="340" y="661" on="0"/>
        <pt x="349" y="619" on="0"/>
        <pt x="353" y="587" on="0"/>
        <pt x="354" y="583" on="1"/>
        <pt x="355" y="575" on="0"/>
        <pt x="356" y="509" on="0"/>
        <pt x="356" y="419" on="0"/>
        <pt x="356" y="318" on="0"/>
        <pt x="357" y="232" on="0"/>
        <pt x="359" y="174" on="0"/>
        <pt x="362" y="173" on="1"/>
        <pt x="379" y="166" on="1"/>
        <pt x="379" y="55" on="1"/>
        <pt x="379" y="45" on="0"/>
        <pt x="359" y="47" on="0"/>
        <pt x="335" y="58" on="0"/>
        <pt x="315" y="74" on="0"/>
        <pt x="315" y="79" on="1"/>
        <pt x="315" y="158" on="1"/>
        <pt x="297" y="126" on="0"/>
        <pt x="254" y="67" on="0"/>
        <pt x="202" y="23" on="0"/>
        <pt x="136" y="2" on="0"/>
        <pt x="95" y="8" on="1"/>
        <pt x="93" y="10" on="0"/>
        <pt x="81" y="22" on="0"/>
      </contour>
      <contour>
        <pt x="95" y="71" on="1"/>
        <pt x="96" y="70" on="0"/>
        <pt x="109" y="63" on="0"/>
        <pt x="111" y="63" on="1"/>
        <pt x="160" y="57" on="0"/>
        <pt x="234" y="109" on="0"/>
        <pt x="281" y="193" on="0"/>
        <pt x="303" y="292" on="0"/>
        <pt x="300" y="331" on="1"/>
        <pt x="276" y="313" on="0"/>
        <pt x="251" y="307" on="0"/>
        <pt x="240" y="320" on="0"/>
        <pt x="237" y="346" on="0"/>
        <pt x="235" y="377" on="0"/>
        <pt x="230" y="408" on="0"/>
        <pt x="221" y="418" on="1"/>
        <pt x="183" y="463" on="0"/>
        <pt x="125" y="489" on="0"/>
        <pt x="85" y="468" on="0"/>
        <pt x="60" y="410" on="0"/>
        <pt x="49" y="332" on="0"/>
        <pt x="51" y="242" on="0"/>
        <pt x="62" y="158" on="0"/>
        <pt x="82" y="89" on="0"/>
      </contour>
    </TTGlyph>
    <TTGlyph name="dagger" xMin="36" yMin="-6" xMax="411" yMax="709">
      <contour>
        <pt x="39" y="386" on="1"/>
        <pt x="36" y="393" on="0"/>
        <pt x="36" y="412" on="0"/>
        <pt x="41" y="431" on="0"/>
        <pt x="52" y="446" on="0"/>
        <pt x="62" y="449" on="1"/>
        <pt x="76" y="452" on="0"/>
        <pt x="133" y="457" on="0"/>
        <pt x="168" y="459" on="1"/>
        <pt x="160" y="510" on="0"/>
        <pt x="145" y="616" on="0"/>
        <pt x="137" y="670" on="1"/>
        <pt x="133" y="682" on="0"/>
        <pt x="150" y="702" on="0"/>
        <pt x="176" y="711" on="0"/>
        <pt x="203" y="706" on="0"/>
        <pt x="208" y="693" on="1"/>
        <pt x="207" y="636" on="0"/>
        <pt x="213" y="521" on="0"/>
        <pt x="219" y="461" on="1"/>
        <pt x="250" y="462" on="0"/>
        <pt x="312" y="463" on="0"/>
        <pt x="362" y="462" on="0"/>
        <pt x="395" y="459" on="0"/>
        <pt x="399" y="457" on="1"/>
        <pt x="415" y="446" on="0"/>
        <pt x="406" y="421" on="0"/>
        <pt x="380" y="401" on="0"/>
        <pt x="346" y="393" on="0"/>
        <pt x="336" y="401" on="1"/>
        <pt x="300" y="402" on="0"/>
        <pt x="248" y="397" on="0"/>
        <pt x="227" y="393" on="1"/>
        <pt x="240" y="297" on="0"/>
        <pt x="275" y="111" on="0"/>
        <pt x="295" y="24" on="1"/>
        <pt x="292" y="15" on="0"/>
        <pt x="277" y="-1" on="0"/>
        <pt x="258" y="-8" on="0"/>
        <pt x="239" y="-3" on="0"/>
        <pt x="231" y="8" on="1"/>
        <pt x="224" y="18" on="0"/>
        <pt x="223" y="39" on="0"/>
        <pt x="227" y="60" on="0"/>
        <pt x="232" y="82" on="0"/>
        <pt x="231" y="94" on="1"/>
        <pt x="217" y="159" on="0"/>
        <pt x="192" y="304" on="0"/>
        <pt x="179" y="382" on="1"/>
        <pt x="155" y="377" on="0"/>
        <pt x="98" y="373" on="0"/>
        <pt x="54" y="378" on="1"/>
        <pt x="52" y="378" on="0"/>
        <pt x="40" y="384" on="0"/>
      </contour>
    </TTGlyph>
    <TTGlyph name="daggerdbl" xMin="55" yMin="-8" xMax="433" yMax="707">
      <contour>
        <pt x="348" y="443" on="1"/>
        <pt x="318" y="445" on="0"/>
        <pt x="258" y="449" on="0"/>
        <pt x="228" y="451" on="1"/>
        <pt x="230" y="429" on="0"/>
        <pt x="235" y="386" on="0"/>
        <pt x="239" y="365" on="1"/>
        <pt x="285" y="363" on="0"/>
        <pt x="371" y="350" on="0"/>
        <pt x="427" y="332" on="0"/>
        <pt x="439" y="312" on="0"/>
        <pt x="410" y="303" on="1"/>
        <pt x="384" y="304" on="0"/>
        <pt x="297" y="295" on="0"/>
        <pt x="250" y="290" on="1"/>
        <pt x="261" y="221" on="0"/>
        <pt x="289" y="85" on="0"/>
        <pt x="303" y="22" on="1"/>
        <pt x="300" y="13" on="0"/>
        <pt x="285" y="-3" on="0"/>
        <pt x="267" y="-10" on="0"/>
        <pt x="247" y="-5" on="0"/>
        <pt x="240" y="6" on="1"/>
        <pt x="233" y="16" on="0"/>
        <pt x="232" y="37" on="0"/>
        <pt x="236" y="58" on="0"/>
        <pt x="241" y="80" on="0"/>
        <pt x="240" y="92" on="1"/>
        <pt x="230" y="140" on="0"/>
        <pt x="213" y="236" on="0"/>
        <pt x="205" y="286" on="1"/>
        <pt x="152" y="282" on="0"/>
        <pt x="68" y="286" on="0"/>
        <pt x="55" y="303" on="1"/>
        <pt x="55" y="318" on="0"/>
        <pt x="78" y="340" on="0"/>
        <pt x="115" y="354" on="0"/>
        <pt x="165" y="362" on="0"/>
        <pt x="193" y="364" on="1"/>
        <pt x="188" y="386" on="0"/>
        <pt x="182" y="429" on="0"/>
        <pt x="178" y="452" on="1"/>
        <pt x="155" y="452" on="0"/>
        <pt x="111" y="452" on="0"/>
        <pt x="88" y="451" on="1"/>
        <pt x="77" y="456" on="0"/>
        <pt x="60" y="470" on="0"/>
        <pt x="57" y="482" on="1"/>
        <pt x="54" y="495" on="0"/>
        <pt x="69" y="513" on="0"/>
        <pt x="100" y="522" on="0"/>
        <pt x="143" y="525" on="0"/>
        <pt x="167" y="524" on="1"/>
        <pt x="162" y="560" on="0"/>
        <pt x="151" y="633" on="0"/>
        <pt x="145" y="668" on="1"/>
        <pt x="141" y="680" on="0"/>
        <pt x="158" y="700" on="0"/>
        <pt x="184" y="709" on="0"/>
        <pt x="211" y="704" on="0"/>
        <pt x="216" y="691" on="1"/>
        <pt x="214" y="608" on="0"/>
        <pt x="222" y="520" on="1"/>
        <pt x="248" y="517" on="0"/>
        <pt x="296" y="510" on="0"/>
        <pt x="333" y="503" on="0"/>
        <pt x="356" y="498" on="0"/>
        <pt x="356" y="498" on="1"/>
        <pt x="379" y="481" on="0"/>
        <pt x="389" y="448" on="0"/>
        <pt x="378" y="427" on="0"/>
        <pt x="356" y="426" on="0"/>
      </contour>
    </TTGlyph>
    <TTGlyph name="dcaron" xMin="12" yMin="8" xMax="560" yMax="744">
      <component glyphName="d" x="0" y="0" flags="0x1004"/>
      <component glyphName="quoteright" x="418" y="0" flags="0x1004"/>
    </TTGlyph>
    <TTGlyph name="dcroat" xMin="12" yMin="8" xMax="379" yMax="744">
      <component glyphName="d" x="0" y="0" flags="0x1204"/>
      <component glyphName="hyphen" x="84" y="276" scalex="0.482849121094" scaley="0.65625" flags="0x1004"/>
    </TTGlyph>
    <TTGlyph name="degree" xMin="2" yMin="155" xMax="223" yMax="407">
      <component glyphName="o" x="-10" y="162" scalex="0.721069335938" scaley="0.541198730469" flags="0x1004"/>
    </TTGlyph>
</ttFont>
